<svg width="650" height="614" viewBox="0 0 650 614" fill="none" xmlns="http://www.w3.org/2000/svg">
<circle cx="319" cy="284" r="284" fill="url(#paint0_linear_214_94)"/>
<path d="M63.0105 247.111C42.9557 233.887 27.0897 264.121 32.0832 280.999C22.6164 276.583 -0.554868 266.872 7.14184 287.975C-3.09101 289.571 0.332048 298.222 5.14653 303.922C-1.38951 307.723 -1.71534 315.298 4.25662 320.08C11.9895 326.273 23.6516 329.071 33.0809 331.457C59.2219 338.071 85.8908 340.565 112.893 338.717C125.183 337.876 137.506 335.074 149.807 334.82C131.199 363.268 140.178 404.601 155.654 432.495C182.351 480.615 230.379 510.749 282.495 525.606C296.307 529.544 315.075 535.444 329.385 535.099C340.633 534.828 348.397 525.769 352.664 516.217C354.301 512.553 355.144 503.367 359.539 502.052C364.467 500.576 372.418 505.405 376.274 507.993C388.528 516.22 398.037 532.152 412.19 537.176C419.154 539.649 426.073 534.413 426.656 527.18C427.304 519.134 421.911 510.479 417.432 504.256C413.09 498.225 408.521 492.378 404.209 486.316C453.94 470.15 514.086 421.567 505.67 362.727C504.018 351.177 498.113 342.847 493 332.826C505.516 336.79 519.871 337.002 532.906 337.899C559.908 339.756 586.317 339.025 612.719 332.596C623.427 329.988 636.743 327.069 645.537 320.08C651.725 315.161 651.525 307.746 644.644 303.922C650.581 297.309 652.357 290.449 642.648 286.979C645.748 280.533 643.158 272.699 634.667 273.447C628.966 273.948 623.441 278.102 618.705 280.999C620.023 264.309 609.006 233.619 586.78 247.111C579.095 233.918 560.495 248.271 549.866 249.802C527.39 253.04 502.349 249.3 480.03 246.396C472.69 245.44 461.442 245.677 455.182 241.392C446.494 235.444 441.552 220.86 435.801 212.227C423.288 193.441 409.591 175.987 391.239 162.547C382.952 156.478 373.984 151.578 364.302 148.132C360.221 146.68 352.83 145.796 350.937 141.33C344.816 126.891 354.502 105.704 354.322 90.6314C354.241 83.838 352.765 76.5521 349.124 70.7122C347.13 67.5123 343.361 65.3175 342.154 61.6882C340.977 58.1494 341.821 54.2787 340.27 50.7677C336.41 42.0298 324.361 37.9135 315.417 39.2459C307.838 40.3748 298.323 44.7938 296.036 52.7573C294.974 56.4511 296.72 61.0284 295.152 64.4591C290.983 73.5774 282.843 75.8989 281.668 87.6413C280.648 97.8195 283.824 107.496 284.397 117.542C284.738 123.527 283.01 129.522 282.703 135.482C282.523 138.997 284.233 142.947 282.887 146.341C281.313 150.311 275.93 151.711 272.518 153.65C264.392 158.269 256.633 163.521 249.572 169.658C234.265 182.962 222.664 199.359 211.661 216.214C206.701 223.813 202.368 236.292 194.661 241.392C188.237 245.643 177.218 245.32 169.76 246.385C147.895 249.505 121.915 253.438 99.9238 249.776C89.2619 248.001 70.8262 233.695 63.0105 247.111Z" fill="black"/>
<path d="M295.464 83.6548C291.22 94.0582 286.418 113.689 291.907 124.46C297.342 135.129 309.828 118.41 311.427 112.559H312.425L313.422 117.542L318.411 112.559L320.406 118.539C325.182 121.58 329.465 128.168 335.372 128.428C342.496 128.741 345.026 122.683 345.308 116.545C345.809 105.623 344.505 93.4472 339.361 83.6548C323.203 93.3635 312.19 88.4668 295.464 83.6548Z" fill="white"/>
<path d="M324.396 103.588H338.364V99.6017C333.055 98.9319 325.614 96.5887 324.396 103.588ZM294.467 101.595V103.588L295.464 104.585H309.432C307.341 97.704 299.844 99.3286 294.467 101.595ZM324.396 109.569C327.336 113.64 335.354 113.988 334.373 107.575L324.396 109.569ZM297.46 109.569C298.965 114.711 304.383 113.874 306.439 109.569H297.46Z" fill="black"/>
<path d="M312.424 133.489C314.967 136.97 318.334 135.862 320.405 132.493L312.424 133.489ZM328.387 191.297V192.294L376.274 183.324L371.286 167.377C364.05 174.851 352.914 173.357 343.352 173.357C346.465 167.717 363.774 166.947 370.288 166.38C368.933 162.886 367.011 160.121 364.262 157.514C340.989 135.442 341.218 181.834 328.387 191.297ZM378.269 205.251C349.649 212.026 325.366 219.333 295.464 214.63C287.844 213.431 273.501 212.63 269.525 205.251L327.389 211.141L378.269 201.264L376.274 187.31C342.576 195.099 311.083 203.001 276.509 193.291V192.294L309.431 194.287C306.27 189.063 300.725 186.05 297.836 180.334C294.948 174.62 295.556 167.827 292.477 162.393C290.943 159.684 287.867 153.987 284.386 153.663C275.469 152.832 265.276 165.526 264.63 173.357C263.914 182.031 265.505 190.678 265.276 199.271C264.758 218.636 260.182 238.007 257.116 257.079C254.881 270.979 249.077 289.363 254.654 302.926C259.833 315.519 272.535 319.914 284.49 323.515C309.21 330.959 341.255 328.231 365.3 319.728C375.322 316.184 385.332 312.457 391.244 302.926C397.129 293.44 393.147 281.05 390.89 271.032C385.997 249.312 379.232 227.637 378.269 205.251ZM374.279 158.407C376.447 165.924 380.396 172.562 382.05 180.334C387.518 206.031 388.212 232.248 394.348 258.075C396.413 266.769 396.842 285.818 402.776 292.351C412.966 303.572 436.02 310.862 450.101 315.551C493.81 330.107 540.823 336.756 586.779 331.117C601.222 329.345 614.89 325.84 628.681 321.198C634.514 319.235 641.743 317.319 643.646 310.9L619.702 317.876C621.397 307.138 638.82 304.286 643.646 293.956C635.419 294.674 630.662 299.355 623.694 303.053C622.073 303.912 618.315 305.629 617.321 302.932C616.308 300.19 620.958 297.397 622.699 296.157C628.93 291.719 636.027 288.086 637.66 280.002C630.304 280.384 623.411 284.898 617.796 289.474C616.069 290.881 612.452 295.849 609.794 293.935C606.273 291.401 610.634 283.984 611.512 280.999C614.431 271.076 610.314 249.447 595.91 250.747C588.954 251.374 602.056 264.793 602.056 268.042C602.056 277.323 591.444 278.008 584.784 278.009C586.631 287.946 587.053 300.455 580.794 308.906C579.339 301.461 581.582 293.587 580.494 285.982C579.578 279.581 575.61 272.516 576.226 266.049C576.672 261.368 584.262 253.085 580.038 248.863C577.609 246.435 573.521 248.206 570.817 249.109C563.308 251.616 555.916 255.651 547.871 256.042C525.702 257.118 502.969 255.537 481.028 252.518C472.674 251.368 462.973 251.147 455.089 247.965C443.814 243.413 437.118 224.93 430.803 215.218C416.61 193.392 399.004 169.064 374.279 158.407ZM259.548 168.373C243.298 181.592 230.179 197.492 219.068 215.218C213.077 224.776 206.711 241.289 196.695 247.022C189.096 251.374 177.311 251.343 168.762 252.261C146.682 254.631 124.21 257.626 101.919 255.992C95.2057 255.5 74.604 243.308 69.83 249.552C66.271 254.206 73.6982 261.968 73.7868 267.045C73.9057 273.861 70.1264 281.107 69.282 287.976C68.4237 294.957 70.4777 302.1 68.9963 308.906H67.9987C63.9609 298.431 63.6096 289.045 65.0057 278.009C62.3941 278.009 59.6042 278.252 57.0245 277.782C37.6612 274.245 56.3854 258.571 57.0245 250.102C42.7733 251.355 35.0038 264.498 37.5379 278.009C38.1629 281.342 43.9038 291.452 39.8765 293.896C37.3411 295.434 33.7815 290.82 32.0792 289.487C26.3264 284.982 19.5703 280.389 12.13 280.002C14.0576 288.102 20.8619 291.495 27.0909 296.108C28.9384 297.475 33.358 300.216 32.5088 303.083C31.6359 306.028 27.6051 303.897 26.0578 303.031C19.2128 299.201 14.2879 294.667 6.14404 293.956C10.9661 304.28 28.3814 307.064 30.0878 317.876L7.1417 309.903C5.84046 318.683 23.5195 322.128 30.0878 323.996C55.9609 331.355 82.9645 334.58 109.9 332.737C145.924 330.273 182.475 324.142 215.652 309.211C224.75 305.116 236.979 301.195 244.266 294.17C250.161 288.488 249.762 269.996 250.993 262.062C254.962 236.491 260.725 212.248 259.587 186.314C259.337 180.6 260.858 173.823 259.548 168.373ZM299.455 168.373C303.038 192.256 330.318 193.556 332.377 168.373C319.218 170.636 312.672 171.428 299.455 168.373Z" fill="white"/>
<path d="M272.518 174.353C277.603 175.605 284.35 178.17 285.488 171.363C280.643 170.751 274.439 168.573 272.518 174.353ZM270.523 227.178C275.619 232.692 285.351 233.213 292.471 234.401C312.25 237.7 331.567 237.002 351.333 234.021C356.011 233.315 375.354 230.713 376.353 225.112C377.155 220.616 357.072 226.795 354.326 227.387C336.261 231.281 318.847 232.781 300.453 230.995C291.224 230.099 279.484 224.917 270.523 227.178ZM270.523 252.095C272.663 258.869 284.231 259.806 290.476 260.77C310.938 263.927 331.989 261.895 352.331 259.072C359.029 258.142 373.94 258.129 375.277 250.102L310.429 257.622L270.523 252.095Z" fill="black"/>
<path d="M62.0132 257.078C60.0784 259.825 57.3537 262.168 55.6501 265.048C50.5459 273.676 72.7152 273.494 65.6581 261.124C64.6628 259.378 63.507 258.358 62.0132 257.078ZM586.78 257.078C585.543 258.977 584.164 260.867 583.49 263.062C580.089 274.135 602.336 274.025 591.754 262.081C590.189 260.313 588.509 258.676 586.78 257.078Z" fill="white"/>
<path d="M361.911 276.086C359.403 277.844 362.282 281.359 364.699 279.72C367.213 278.015 364.315 274.404 361.911 276.086ZM264.537 277.012C266.531 282.735 276.071 284.032 281.497 284.852C297.508 287.271 314.309 285.996 330.382 284.896C336.085 284.506 343.985 285.163 347.343 280.002C337.101 275.517 319.492 280.153 308.434 280.909C292.998 281.966 279.523 278.318 264.537 277.012ZM263.54 294.953V296.946C291.234 309.21 327.045 311.531 356.322 304.396C363.753 302.584 371.082 301.257 378.269 298.516C380.258 297.757 385.562 296.299 384.503 293.173C383.518 290.258 379.268 291.71 377.272 292.31C370.617 294.312 364.118 296.635 357.319 298.149C339.01 302.226 320.096 304.041 301.45 301.506C290.537 300.022 273.952 292.353 263.54 294.953Z" fill="black"/>
<path d="M400.218 298.939C385.963 332.965 336.148 332.846 305.441 332.826L311.427 369.704H312.425L315.418 353.757H317.413L316.415 386.647C335.036 378.902 352.358 368.288 371.286 361.157C395.764 351.935 421.043 347.777 447.108 347.777V351.763C404.992 351.763 371.84 366.163 334.373 383.349C319.287 390.269 303.127 395.879 288.481 403.591L293.469 427.512C299.8 426.952 309.504 439.442 308.434 424.522C311.085 425.611 315.103 428.849 318.089 427.799C325.28 425.27 313.934 417.488 311.427 416.548C316.849 408.486 316.195 403.598 305.441 405.584C314.717 398.925 319.798 406.446 317.413 415.551C325.211 422.417 325.211 433.427 312.425 430.502C307.419 440.027 299.814 436.861 295.464 428.508H294.467C294.527 450.22 293.396 467.081 288.481 488.309C350.716 503.284 428.92 483.142 471.974 435.485C494.223 410.857 516.582 359.865 484.006 333.103C478.242 328.367 469.971 328.174 463.071 326.128C450.506 322.403 438.599 316.937 426.157 312.893C425.242 318.67 421.579 319.739 416.181 319.869C413.644 327.144 409.366 326.021 403.211 323.856C395.682 333.826 389.9 322.998 394.232 314.886C394.34 317.63 393.064 321.181 394.349 323.709C398.344 331.563 401.455 321.102 400.218 316.879C405.909 320.051 414.476 328.009 412.19 314.886C418.795 317.227 426.782 317.099 418.46 309.424C413.599 304.94 406.258 301.539 400.218 298.939ZM181.732 457.412C188.134 438.665 207.404 434.508 219.179 420.52C225.594 412.899 230.076 400.341 240.593 397.565C255.096 393.736 271.554 400.151 286.486 395.618C273.213 378.279 249.039 365.692 229.619 356.529C223.735 353.752 207.542 350.958 206.673 343.79C239.292 351.329 263.276 372.887 289.479 391.767C294.273 395.222 307.044 394.077 310.309 388.223C312.429 384.421 308.01 375.714 307.088 371.697C304.274 359.429 301.473 345.288 304.443 332.826C290.944 332.245 273.561 329.067 262.542 320.822C258.468 317.774 248.631 302.149 244.476 302.469C237.813 302.983 229.748 309.828 223.633 312.582C209.305 319.035 193.859 324.056 178.739 328.248C172.14 330.076 161.043 330.447 156.428 335.96C134.346 362.339 149.23 407.545 163.635 433.492C168.402 442.077 173.59 451.634 181.732 457.412Z" fill="#F4BB00"/>
<path d="M230.617 312.893L232.612 317.876L228.621 318.873C227.773 324.145 224.481 324.145 223.633 318.873H221.638C221.863 337.861 242.288 316.435 230.617 312.893ZM260.546 341.796C257.841 340.44 252.882 337.357 250.642 341.121C248.299 345.054 253.626 349.209 254.575 352.76C256.401 359.582 258.812 375.061 270.419 367.838C272.645 366.453 273.929 364.093 275.885 362.411C279.171 359.584 284.767 357.263 282.871 351.807C281.541 347.98 277.538 347.86 275.115 345.226C271.446 341.238 263.641 326.655 260.546 341.796Z" fill="black"/>
<path d="M263.539 349.77L252.565 341.796L261.544 353.757C259.092 354.272 258.029 355.334 260.546 356.747C258.619 366.029 271.537 368.461 268.527 357.743C271.44 357.741 276.53 358.541 278.653 356.011C283.155 350.644 272.225 349.994 269.525 350.767C269.041 347.73 270.597 341.854 268.503 339.466C263.981 334.305 263.539 348.116 263.539 349.77Z" fill="#F4BB00"/>
<path d="M316.415 344.786C323.707 343.572 317.63 337.502 316.415 344.786V344.786ZM346.345 358.74C344.999 353.762 342.944 349.678 348.34 346.78V351.763C357.542 347.141 358.707 349.028 356.321 358.74C362.632 356.383 364.814 347.387 357.3 344.543C346.871 340.597 333.916 351.669 346.345 358.74ZM496.991 365.717V363.723L495.993 362.727C489.023 364.819 486.915 362.713 489.01 355.75L488.012 354.753L484.021 355.75V348.773C475.157 353.661 485.06 372.386 496.991 365.717ZM209.666 360.733L213.657 357.743L209.666 360.733ZM151.802 372.694C152.233 367.005 161.36 360.053 162.311 368.797C162.688 372.263 158.848 374.64 157.788 377.677C161.332 377.68 168.2 376.952 169.15 381.723C169.631 384.139 167.453 386.162 168.1 388.641C169.014 392.138 176.34 397.359 170.594 400.533C165.699 403.238 159.385 396.807 154.795 395.617C156.961 402.99 169.853 409.871 175.736 402.202C179.607 397.155 175.298 393.366 173.768 388.641C171.507 381.655 175.149 375.842 164.772 374.687C165.24 372.715 165.764 370.77 165.621 368.717C164.516 352.96 142.07 366.311 151.802 372.694ZM412.19 364.72C411.679 374.526 405.985 376.977 397.225 374.687L396.228 375.684C398.125 389.307 390.104 382.922 383.258 379.67C375.995 392.346 371.286 385.46 371.286 373.69C360.396 381.973 379.488 401.84 384.256 383.657C390.816 390.749 398.515 390.378 400.218 379.67C409.264 379.59 417.073 374.782 414.185 364.72H412.19ZM227.624 381.664C241.056 384.117 242.289 371.269 230.617 366.714C233.943 378.588 236.525 378.184 223.633 374.687V382.661C221.6 381.121 218.836 376.036 216.48 375.605C213.844 375.123 212.457 379.06 209.722 379.038C200.483 378.959 212.629 368.913 214.654 367.71C209.071 364.301 201.858 371.666 203.297 377.658C204.819 383.999 224.42 387.137 227.624 381.664ZM438.129 410.568C438.63 425.997 454.969 420.877 455.089 407.578C470.704 410.096 464.205 396.052 461.724 387.928C459.476 380.571 463.014 371.176 451.099 370.355C440.659 369.636 441.577 378.529 436.544 384.019C432.949 387.939 427.417 388.986 424.31 393.714C417.14 404.625 429.002 410.562 438.129 410.568Z" fill="black"/>
<path d="M290.476 449.439C290.475 438.146 289.062 426.584 286.601 415.552C285.857 412.218 285.594 405.896 282.077 404.194C276.635 401.559 264.795 404.823 258.551 404.549C252.624 404.289 245.232 401.886 239.611 404.767C229.293 410.052 223.283 425.498 213.657 432.84C206.156 438.561 197.557 443.399 191.418 450.72C189.177 453.393 186.206 458.645 189.321 461.794C194.454 466.984 208.728 458.127 213.657 455.666C222.615 451.191 231.458 446.635 241.591 445.623C258.013 443.982 274.129 449.304 290.476 449.439Z" fill="white"/>
<path d="M441.122 389.904H440.125L439.127 386.914C434.216 388.967 428.24 391.559 426.182 396.896C421.617 408.732 436.268 408.057 442.12 402.861C442.356 406.302 440.483 410.452 441.74 413.715C443.715 418.845 449.637 417.008 451.356 412.784C453.104 408.489 451.214 403.389 452.096 398.874C456.318 403.546 465.412 407.307 462.264 396.882C460.885 392.311 456.873 389.565 454.092 385.917C464.959 382.313 449.818 366.479 443.296 378.052C441.413 381.392 442.007 386.192 441.122 389.904Z" fill="white"/>
<path d="M402.213 422.528L400.218 420.535L401.216 416.548C397.319 418.722 397.202 422.61 402.213 422.528ZM349.337 419.538L348.34 426.515H347.342V421.532H344.349C345.146 431.966 356.002 426.089 349.337 419.538ZM248.574 431.499L257.553 428.509V424.522C252.53 424.643 247.712 425.552 248.574 431.499ZM366.298 466.383C345.371 457.865 355.908 478.533 368.293 483.326L355.323 465.386L371.286 473.359V449.439H373.281C375.435 454.687 376.773 466.558 382.26 468.376C382.377 462.938 391.012 446.238 395.875 457.471C398.221 462.889 392.58 468.81 393.234 474.356H395.23C398.879 467.39 405.349 448.553 390.241 450.653C385.884 451.259 383.007 454.521 379.267 456.416C378.285 451.001 372.34 442.417 367.751 450.544C365.236 454.997 366.298 461.459 366.298 466.383Z" fill="black"/>
<path d="M193.704 469.373C200.344 483.304 224.225 494.814 237.6 501.513C241.793 503.613 248.595 508.787 253.501 507.249C261.503 504.739 252.32 499.66 248.575 499.273L252.565 489.306L241.591 492.296C240.512 485.551 237.117 474.748 232.612 487.313H230.617C230.033 484.535 222.18 473.08 222.388 480.488C222.508 484.772 228.153 488.244 230.617 491.3C226.387 489.284 220.408 485.618 219.954 480.341C219.269 472.355 227.844 475.849 230.617 479.34C237.879 478.116 243.558 477.143 244.584 486.316C253.988 484.657 255.955 488.875 254.561 497.28C260.959 500.787 260.212 504.946 258.551 511.234C277.221 518.429 295.528 523.659 315.418 526.184L317.413 498.277C308.023 497.536 298.832 495.363 289.479 494.459C283.394 493.871 277.297 494.916 271.521 492.326C257.358 485.978 253.275 466.198 256.556 452.429C233.782 445.704 214.649 464.532 193.704 469.373Z" fill="white"/>
<path d="M364.303 496.549C379.8 503.446 389.511 512.131 402.214 523.172C405.552 526.073 412.056 533.145 417.046 531.582C428.757 527.914 410.72 505.723 407.574 501.533C404.908 497.981 401.89 491.792 397.899 489.64C394.972 488.063 391.176 489.943 388.246 490.674C380.744 492.545 370.932 492.556 364.303 496.549Z" fill="white"/>
<path d="M534.902 501.267L521.932 534.157C519.798 529.934 518.863 523.816 514.736 520.959C509.495 517.331 504.957 523.147 505.189 528.177C505.717 539.6 517.219 546.694 514.948 558.078C508.897 556.916 504.712 559.47 499.984 563.061C499.833 545.119 489.063 554.416 486.016 566.051C484.697 564.745 483.402 563.332 481.981 562.129C468.906 551.046 473.927 574.107 477.038 580.005C448.57 579.986 419.702 577.303 391.239 576.057C343.104 573.952 293.646 574.873 245.581 576.976C223.767 577.93 201.404 576.589 179.736 579.431C156.225 582.516 132.425 582.469 108.903 586.419C105.063 587.063 86.3118 589.45 88.2971 595.747C90.2675 601.998 109.436 603.17 114.889 603.925C142.461 607.744 170.86 610.857 198.692 610.902C226.225 610.946 253.94 613.561 281.497 613.888C343.548 614.626 405.208 611.533 467.061 609.92C489.803 609.327 513.456 607.283 535.899 603.312C541.351 602.348 554.82 601.586 558.095 596.536C562.545 589.677 537.748 586.481 533.904 585.985C536.395 575.533 527.9 566.851 518.939 562.065L527.918 534.157C533.651 535.505 542.624 535.074 545.844 529.069C550.897 519.644 536.795 520.137 531.909 522.197L536.897 501.267H534.902Z" fill="black"/>
<defs>
<linearGradient id="paint0_linear_214_94" x1="23.5" y1="295.5" x2="639.5" y2="284" gradientUnits="userSpaceOnUse">
<stop stop-color="#F2ED7B"/>
<stop offset="1" stop-color="#F7E2E6"/>
</linearGradient>
</defs>
</svg>
