<svg width="138" height="46" viewBox="0 0 138 46" fill="none" xmlns="http://www.w3.org/2000/svg">
<path fill-rule="evenodd" clip-rule="evenodd" d="M8.05002 1.15002H129.95C133.76 1.15002 136.85 4.24002 136.85 8.05002V37.95C136.85 41.76 133.76 44.85 129.95 44.85H8.05002C4.24002 44.85 1.15002 41.76 1.15002 37.95V8.05002C1.15002 4.24002 4.24002 1.15002 8.05002 1.15002Z" fill="url(#paint0_linear_53_3716)"/>
<mask id="mask0_53_3716" style="mask-type:alpha" maskUnits="userSpaceOnUse" x="0" y="0" width="138" height="46">
<path d="M0 0.0460205H137.614V46H0V0.0460205Z" fill="white"/>
</mask>
<g mask="url(#mask0_53_3716)">
<path fill-rule="evenodd" clip-rule="evenodd" d="M136.61 35.035C136.61 35.452 136.61 35.86 136.6 36.271C136.6 36.645 136.6 36.987 136.596 37.341C136.572 38.018 136.531 38.761 136.399 39.471C136.279 40.176 136.079 40.8 135.779 41.392C135.469 41.99 135.074 42.529 134.611 42.986C134.135 43.466 133.595 43.859 133.001 44.161C132.405 44.465 131.797 44.666 131.083 44.794C130.346 44.927 129.584 44.964 128.933 44.981C128.596 44.989 128.243 44.994 127.902 44.994L126.655 44.996L9.712 44.994C9.361 44.994 9.019 44.989 8.672 44.981C8.028 44.964 7.266 44.927 6.522 44.794C5.82 44.667 5.197 44.46 4.617 44.164C4.017 43.86 3.477 43.467 3.011 42.995C2.535 42.527 2.142 41.991 1.837 41.389C1.539 40.808 1.335 40.184 1.212 39.483C1.072 38.709 1.036 37.925 1.022 37.327C1.013 37.084 1.004 36.277 1.004 36.277V9.71C1.004 9.71 1.014 8.915 1.021 8.681C1.036 8.079 1.071 7.295 1.211 6.529C1.334 5.823 1.538 5.199 1.837 4.617C2.141 4.014 2.533 3.474 3.004 3.01C3.479 2.534 4.02 2.14 4.616 1.833C5.207 1.533 5.829 1.328 6.517 1.208C7.292 1.07 8.077 1.034 8.674 1.019L9.712 1.005H127.895L128.946 1.02C129.535 1.034 130.321 1.07 131.083 1.207C131.775 1.328 132.403 1.534 133.006 1.837C133.593 2.139 134.135 2.534 134.604 3.005C135.077 3.472 135.469 4.015 135.782 4.62C136.078 5.207 136.28 5.83 136.397 6.516C136.531 7.242 136.572 7.986 136.597 8.686C136.6 9.012 136.6 9.362 136.6 9.71C136.61 10.14 136.61 10.551 136.61 10.965V35.034V35.035ZM137.606 9.711C137.606 9.359 137.606 9.004 137.601 8.651C137.572 7.882 137.529 7.111 137.386 6.349C137.257 5.579 137.027 4.861 136.676 4.161C136.321 3.473 135.864 2.841 135.317 2.297C134.773 1.751 134.143 1.294 133.457 0.941C132.748 0.585 132.033 0.355 131.262 0.22C130.505 0.083 129.732 0.036 128.962 0.017C128.612 0.011 128.252 0.005 127.902 0.002C127.489 0 127.069 0 126.655 0H10.965C10.543 0 10.127 0 9.706 0.002C9.354 0.005 9.005 0.012 8.649 0.017C7.883 0.036 7.109 0.083 6.345 0.22C5.575 0.355 4.86 0.585 4.158 0.94C3.471 1.294 2.842 1.751 2.298 2.297C1.747 2.842 1.29 3.473 0.942 4.16C0.584 4.86 0.358 5.58 0.223 6.349C0.085 7.112 0.037 7.882 0.017 8.651C0.007 9.005 0.006 9.359 0 9.711V36.293C0.006 36.649 0.007 36.996 0.017 37.352C0.037 38.122 0.085 38.893 0.223 39.654C0.358 40.424 0.584 41.147 0.942 41.845C1.292 42.529 1.747 43.161 2.298 43.701C2.842 44.251 3.471 44.707 4.158 45.057C4.86 45.416 5.575 45.644 6.345 45.783C7.109 45.919 7.883 45.964 8.649 45.985C9.005 45.993 9.354 45.998 9.706 45.998C10.126 46 10.543 46 10.966 46H126.656C127.069 46 127.489 46 127.902 45.998C128.252 45.998 128.612 45.993 128.962 45.985C129.732 45.965 130.505 45.919 131.262 45.783C132.032 45.643 132.748 45.416 133.456 45.057C134.143 44.707 134.773 44.251 135.317 43.701C135.864 43.161 136.321 42.529 136.675 41.845C137.027 41.147 137.257 40.425 137.385 39.655C137.529 38.893 137.572 38.123 137.601 37.352C137.606 36.996 137.606 36.649 137.606 36.292C137.615 35.874 137.615 35.459 137.615 35.035V10.966C137.615 10.546 137.615 10.128 137.605 9.711H137.606Z" fill="#FFFFFE"/>
</g>
<path fill-rule="evenodd" clip-rule="evenodd" d="M28.484 23.346C28.456 20.183 31.074 18.643 31.194 18.57C29.711 16.408 27.411 16.113 26.604 16.09C24.674 15.886 22.801 17.245 21.817 17.245C20.814 17.245 19.299 16.109 17.667 16.144C15.567 16.176 13.601 17.393 12.523 19.281C10.299 23.131 11.958 28.791 14.089 31.902C15.155 33.427 16.4 35.13 18.031 35.069C19.626 35.004 20.221 34.051 22.147 34.051C24.055 34.051 24.613 35.069 26.277 35.031C27.987 35.004 29.067 33.499 30.094 31.961C31.327 30.214 31.822 28.492 31.841 28.405C31.801 28.391 28.517 27.139 28.484 23.346ZM25.343 14.043C26.2 12.97 26.787 11.51 26.625 10.028C25.383 10.083 23.83 10.887 22.935 11.937C22.145 12.862 21.438 14.377 21.62 15.802C23.015 15.907 24.448 15.098 25.343 14.042V14.043ZM43.768 29.43H48.083L45.955 23.166H45.897L43.767 29.43H43.768ZM48.648 31.211H43.204L41.897 35.071H39.59L44.747 20.79H47.142L52.3 35.07H49.955L48.648 31.211ZM61.237 29.866C61.237 27.758 60.147 26.372 58.486 26.372C56.853 26.372 55.754 27.786 55.754 29.866C55.754 31.963 56.853 33.368 58.486 33.368C60.147 33.368 61.238 31.992 61.238 29.865L61.237 29.866ZM63.434 29.866C63.434 33.1 61.702 35.18 59.088 35.18C57.605 35.18 56.428 34.516 55.813 33.358H55.763V38.515H53.626V24.658H55.695V26.39H55.734C56.328 25.274 57.595 24.55 59.049 24.55C61.692 24.55 63.434 26.639 63.434 29.866ZM72.696 29.866C72.696 27.758 71.607 26.372 69.946 26.372C68.312 26.372 67.214 27.786 67.214 29.866C67.214 31.963 68.312 33.368 69.945 33.368C71.607 33.368 72.696 31.992 72.696 29.865V29.866ZM74.893 29.866C74.893 33.1 73.162 35.18 70.548 35.18C69.064 35.18 67.887 34.516 67.273 33.358H67.223V38.515H65.085V24.658H67.155V26.39H67.193C67.788 25.274 69.054 24.55 70.509 24.55C73.151 24.55 74.893 26.639 74.893 29.866ZM82.466 31.091C82.626 32.508 84.001 33.437 85.881 33.437C87.683 33.437 88.979 32.508 88.979 31.231C88.979 30.121 88.197 29.458 86.347 29.004L84.495 28.558C81.873 27.924 80.655 26.698 80.655 24.708C80.655 22.244 82.802 20.552 85.852 20.552C88.87 20.552 90.939 22.244 91.008 24.708H88.85C88.721 23.283 87.543 22.423 85.821 22.423C84.1 22.423 82.921 23.293 82.921 24.559C82.921 25.569 83.674 26.164 85.515 26.619L87.088 27.004C90.018 27.698 91.235 28.874 91.235 30.964C91.235 33.635 89.108 35.308 85.723 35.308C82.556 35.308 80.417 33.674 80.279 31.091H82.467H82.466ZM95.848 22.195V24.658H97.828V26.351H95.848V32.091C95.848 32.983 96.245 33.398 97.115 33.398C97.333 33.398 97.68 33.368 97.818 33.348V35.031C97.581 35.091 97.106 35.131 96.631 35.131C94.523 35.131 93.701 34.338 93.701 32.32V26.35H92.187V24.657H93.701V22.194H95.848V22.195ZM106.674 29.866C106.674 27.618 105.644 26.291 103.913 26.291C102.181 26.291 101.153 27.628 101.153 29.866C101.153 32.122 102.181 33.437 103.913 33.437C105.645 33.437 106.674 32.122 106.674 29.866ZM98.974 29.866C98.974 26.589 100.904 24.531 103.913 24.531C106.932 24.531 108.853 26.589 108.853 29.866C108.853 33.15 106.942 35.199 103.913 35.199C100.885 35.199 98.975 33.149 98.975 29.866H98.974ZM110.614 24.658H112.653V26.43H112.703C113.029 25.253 113.979 24.55 115.206 24.55C115.513 24.55 115.769 24.59 115.938 24.63V26.628C115.769 26.559 115.393 26.499 114.978 26.499C113.603 26.499 112.751 27.431 112.751 28.895V35.07H110.614V24.658ZM118.567 28.905H123.772C123.722 27.311 122.704 26.263 121.219 26.263C119.744 26.263 118.677 27.332 118.567 28.905ZM125.792 32.013C125.504 33.903 123.664 35.199 121.309 35.199C118.279 35.199 116.399 33.171 116.399 29.915C116.399 26.649 118.29 24.531 121.219 24.531C124.1 24.531 125.911 26.51 125.911 29.667V30.399H118.557V30.528C118.557 32.309 119.676 33.477 121.358 33.477C122.545 33.477 123.477 32.913 123.763 32.013H125.792ZM40.742 13.473C40.742 11.248 41.926 9.87302 43.832 9.87302C45.344 9.87302 46.514 10.853 46.687 12.253H45.625C45.425 11.41 44.735 10.867 43.832 10.867C42.601 10.867 41.83 11.871 41.83 13.473C41.83 15.072 42.6 16.075 43.837 16.075C44.745 16.075 45.435 15.585 45.625 14.81H46.687C46.496 16.166 45.369 17.068 43.837 17.068C41.93 17.068 40.742 15.694 40.742 13.473ZM51.684 14.31C51.684 13.188 51.181 12.533 50.295 12.533C49.407 12.533 48.907 13.188 48.907 14.311C48.907 15.442 49.407 16.094 50.295 16.094C51.181 16.094 51.685 15.438 51.685 14.311L51.684 14.31ZM47.852 14.31C47.852 12.642 48.784 11.624 50.295 11.624C51.804 11.624 52.735 12.642 52.735 14.311C52.735 15.99 51.809 17.003 50.295 17.003C48.78 17.003 47.851 15.99 47.851 14.311L47.852 14.31ZM54.108 11.724H55.091V12.546H55.168C55.418 11.972 55.934 11.624 56.712 11.624C57.868 11.624 58.505 12.318 58.505 13.55V16.903H57.483V13.807C57.483 12.974 57.122 12.56 56.366 12.56C55.609 12.56 55.13 13.065 55.13 13.872V16.902H54.107V11.724H54.108ZM61.98 11.624C63.143 11.624 63.904 12.166 64.004 13.079H63.024C62.93 12.699 62.558 12.457 61.979 12.457C61.408 12.457 60.975 12.727 60.975 13.131C60.975 13.441 61.236 13.636 61.798 13.764L62.658 13.964C63.643 14.192 64.104 14.615 64.104 15.377C64.104 16.351 63.196 17.003 61.96 17.003C60.728 17.003 59.924 16.446 59.833 15.528H60.857C60.984 15.928 61.365 16.175 61.983 16.175C62.62 16.175 63.073 15.89 63.073 15.475C63.073 15.166 62.83 14.967 62.312 14.843L61.408 14.633C60.423 14.4 59.968 13.959 59.968 13.188C59.968 12.27 60.808 11.624 61.979 11.624H61.98ZM65.5 16.903H66.518V11.724H65.501V16.903H65.5ZM65.395 10.858L66.588 9.22302H67.787L66.45 10.858H65.395ZM71.738 14.248C71.738 13.217 71.205 12.556 70.334 12.556C69.455 12.556 68.961 13.217 68.961 14.249C68.961 15.281 69.455 15.941 70.334 15.941C71.21 15.941 71.738 15.286 71.738 14.248ZM68.11 17.42H69.155C69.242 17.796 69.674 18.039 70.364 18.039C71.214 18.039 71.719 17.634 71.719 16.949V15.956H71.643C71.328 16.517 70.757 16.826 70.044 16.826C68.723 16.826 67.905 15.804 67.905 14.254C67.905 12.674 68.732 11.638 70.055 11.638C70.768 11.638 71.39 11.99 71.681 12.551H71.761V11.724H72.741V16.945C72.741 18.13 71.813 18.881 70.349 18.881C69.055 18.881 68.218 18.301 68.109 17.421L68.11 17.42ZM78.735 16.903H77.75V16.079H77.67C77.418 16.669 76.89 17.003 76.105 17.003C74.959 17.003 74.321 16.303 74.321 15.086V11.724H75.345V14.82C75.345 15.656 75.682 16.056 76.432 16.056C77.26 16.056 77.712 15.566 77.712 14.753V11.724H78.735V16.903ZM81.147 13.836H83.763C83.74 13.023 83.245 12.494 82.488 12.494C81.733 12.494 81.205 13.027 81.148 13.836H81.147ZM84.742 15.504C84.51 16.432 83.682 17.003 82.499 17.003C81.015 17.003 80.107 15.985 80.107 14.329C80.107 12.674 81.034 11.624 82.494 11.624C83.935 11.624 84.804 12.609 84.804 14.234V14.591H81.147V14.649C81.181 15.556 81.709 16.132 82.527 16.132C83.145 16.132 83.569 15.908 83.759 15.504H84.742ZM86.224 16.903H87.246V9.70302H86.224V16.903ZM92.5 14.31C92.5 13.188 91.995 12.533 91.11 12.533C90.222 12.533 89.722 13.188 89.722 14.311C89.722 15.442 90.222 16.094 91.11 16.094C91.995 16.094 92.5 15.438 92.5 14.311V14.31ZM88.666 14.31C88.666 12.642 89.599 11.624 91.11 11.624C92.619 11.624 93.55 12.642 93.55 14.311C93.55 15.99 92.623 17.003 91.11 17.003C89.594 17.003 88.666 15.99 88.666 14.311V14.31ZM98.515 13.836H101.131C101.107 13.023 100.614 12.494 99.856 12.494C99.1 12.494 98.572 13.027 98.515 13.836ZM102.11 15.504C101.877 16.432 101.05 17.003 99.866 17.003C98.382 17.003 97.474 15.985 97.474 14.329C97.474 12.674 98.402 11.624 99.861 11.624C101.302 11.624 102.171 12.609 102.171 14.234V14.591H98.515V14.649C98.549 15.556 99.077 16.132 99.895 16.132C100.513 16.132 100.937 15.908 101.126 15.504H102.11ZM103.545 11.724H104.528V12.546H104.604C104.856 11.972 105.371 11.624 106.15 11.624C107.305 11.624 107.942 12.318 107.942 13.55V16.903H106.92V13.807C106.92 12.974 106.559 12.56 105.802 12.56C105.047 12.56 104.566 13.065 104.566 13.872V16.902H103.545V11.724ZM113.116 13.836H115.731C115.708 13.023 115.214 12.494 114.457 12.494C113.702 12.494 113.174 13.027 113.117 13.836H113.116ZM116.711 15.504C116.479 16.432 115.651 17.003 114.468 17.003C112.984 17.003 112.074 15.985 112.074 14.329C112.074 12.674 113.002 11.624 114.463 11.624C115.903 11.624 116.773 12.609 116.773 14.234V14.591H113.116V14.649C113.15 15.556 113.677 16.132 114.496 16.132C115.114 16.132 115.537 15.908 115.726 15.504H116.711ZM118.192 16.903H119.215V9.70302H118.192V16.903Z" fill="#232322"/>
<defs>
<linearGradient id="paint0_linear_53_3716" x1="-1.59743" y1="23.8848" x2="145.128" y2="15.3789" gradientUnits="userSpaceOnUse">
<stop stop-color="#7BF2E8"/>
<stop offset="1" stop-color="#E2E2F7"/>
</linearGradient>
</defs>
</svg>
