<svg width="741" height="568" viewBox="0 0 741 568" fill="none" xmlns="http://www.w3.org/2000/svg">
<circle cx="342" cy="284" r="284" fill="url(#paint0_linear_373_136)"/>
<path d="M131.493 419.408L8.59399 514.267C8.59399 514.267 2.68061 530.635 8.59399 537.534C13.1021 542.794 25.2987 543.5 25.2987 543.5L151.777 451.624C151.777 451.624 158.439 446.255 162.517 446.255C166.594 446.255 172.659 450.431 172.659 450.431L203.681 472.505H247.829L433.372 366.907L490.644 409.266C490.644 409.266 504.937 418.471 515.106 418.215C524.621 417.974 537.776 409.266 537.776 409.266L614.737 349.008L672.961 299.492C672.961 299.492 672.899 315.575 672.961 330.515C673.02 344.525 669.21 350.741 674.751 361.538C679.725 371.229 686.068 379.972 695.632 380.032C707.183 380.106 715.916 366.907 715.916 366.907C715.916 366.907 723.372 332.189 726.059 309.634C728.654 287.843 740.022 244.008 740.022 244.008C740.022 244.008 739.79 227.051 732.267 219.547C724.304 211.605 704.823 211.195 704.823 211.195C704.823 211.195 664.851 211.194 601.612 216.564C594.453 219.547 587.273 226.87 587.89 235.655C588.457 243.723 601.612 252.359 601.612 252.359L648.147 254.746L582.521 314.405L515.106 372.277L467.974 339.464C467.974 339.464 449.517 325.625 435.758 325.145C422.725 324.691 404.138 335.884 404.138 335.884L266.324 419.408C266.324 419.408 242.838 437.554 225.756 436.709C210.353 435.947 194.136 419.408 194.136 419.408C194.136 419.408 175.983 404.493 162.517 404.493C149.05 404.493 131.493 419.408 131.493 419.408Z" fill="#FECD00"/>
<path d="M81.4674 42.543C79.3752 36.2417 77.0599 30.8342 81.1424 24.663C87.8721 14.4922 101.984 17.8666 102.297 30.6111C102.645 44.8483 83.5105 50.4026 80.2742 64.0205C43.4399 67.0285 7.13561 97.3393 1.86408 134.419C-0.881581 153.732 -4.53979 194.685 23.0009 195.272C20.8149 204.475 11.1925 219.126 26.5805 221.522C28.4056 227.814 32.4317 228.61 38.5124 228.681C41.675 237.358 60.8017 239.477 68.1352 234.471C77.1093 228.344 84.6676 206.849 82.6606 196.465L108.911 197.658C112.033 205.101 117.769 207.205 121.948 213.328C134.131 231.179 142.64 249.815 156.734 266.864C161.512 272.643 176.538 287.372 174.922 295.5C173.693 301.686 164.717 307.477 160.218 311.335C147.767 322.012 134.624 331.905 123.92 344.421C119.632 349.437 113.774 355.142 114.363 362.319C115.63 377.763 128.685 399.628 140.138 409.581C151.427 419.392 164.826 414.123 164.991 399.308C158.946 397.886 151.249 401.537 145.946 399.167C132.985 393.373 123.853 368.468 118.456 356.353L144.707 396.922L164.991 395.729C165.691 387.167 169.94 381.592 163.798 374.251L170.957 377.831L166.184 368.285L173.343 373.058H174.537L176.923 369.478L170.957 362.319L178.116 368.285H179.309L201.98 350.387C208.743 375.164 220.061 401.737 234.196 423.172C246.725 419.643 259.177 416.576 271.185 411.418C275.019 409.771 281.054 407.961 282.959 403.857C287.067 395.004 276.993 380.698 272.379 374.251L264.026 375.444L268.799 368.285L260.447 369.478L266.413 362.319L256.867 364.705V363.512L263.427 357.421L259.283 340.842L250.054 307.432L238.331 268.057L230.385 222.715L211.518 180.954L209.128 166.635L191.241 140.385C229.555 145.544 262.195 152.369 301.015 143.184C310.811 140.866 329.455 137.122 336.293 129.374C340.584 124.514 337.545 118.26 340.424 113.067C344.976 104.856 376.35 99.6827 361.868 85.498V84.3048C364.879 80.2456 363.788 77.1349 359.482 74.7592C361.552 69.7371 361.448 67.2875 358.289 62.8273C365.293 60.8048 381.941 48.0066 366.623 44.1168C352.157 40.443 329.072 53.9822 316.527 60.1498C292.588 71.9194 261.654 89.7911 234.196 87.777C224.356 87.0551 214.686 82.4685 205.56 79.0261C197.955 76.1589 187.274 74.8344 181.696 68.7933L174.537 69.9865L173.343 56.8613C181.689 56.427 192.118 50.0208 187.278 40.2032C185.009 35.6022 180.247 32.9927 178.08 28.2199C174.249 19.7816 175.983 10.0344 166.166 5.27835C158.26 1.447 136.799 -2.99287 129.324 2.75355C125.048 6.0408 124.626 14.8323 119.478 16.2593C108.812 19.2149 96.8047 11.9698 86.2449 16.3035C76.8914 20.142 72.1235 36.3444 81.4674 42.543Z" fill="black"/>
<path d="M100.56 17.4858L105.332 34.1906L120.844 19.8722L100.56 17.4858ZM137.549 41.3497L138.742 64.0204C150.412 74.6649 154.908 71.4862 153.06 56.8613L145.901 52.0885C151.238 53.0979 156.701 54.235 161.379 50.5302C165.127 47.5627 169.1 39.1614 162.606 37.7701L164.992 34.1906L161.412 35.3838L162.606 43.7361H161.412L163.799 32.9974C162.954 31.3901 162.297 29.6326 160.907 28.3714C148.829 17.4142 150.243 43.581 145.587 46.2168C142.634 47.8872 139.694 42.7816 137.549 41.3497Z" fill="white"/>
<path d="M91.014 30.611L92.2072 36.577C87.1681 34.9948 87.7278 32.5798 89.8208 28.2246C88.7488 28.789 87.3886 29.1112 86.5865 30.1457C77.1344 42.3461 103.361 38.6436 91.014 30.611ZM88.2299 33.3947L89.0253 33.7933L88.2299 33.3947ZM153.06 32.9974V34.1906H157.833L153.06 32.9974ZM155.446 35.3838L154.253 36.577V37.7702L155.446 38.9634H156.64L157.833 37.7702V36.577L155.446 35.3838Z" fill="black"/>
<path d="M102.945 43.7363C85.6979 69.0738 134.804 58.1632 129.195 84.3049H128.002C125.322 76.153 121.665 69.8148 112.49 68.7934C120.994 81.242 129.776 93.3505 129.071 109.362C128.558 121.008 125.03 132.687 119.247 142.771C116.466 147.623 111.456 151.797 109.63 157.09C107.002 164.714 110.517 178.098 112.49 185.726C122.46 181.161 131.21 173.252 141.127 168.136C158.574 159.137 176.555 155.897 196.014 155.897C191.847 147.14 183.542 141.016 179.886 132.033C174.048 117.691 184.725 98.8774 163.798 92.6573L164.991 87.8845C175.188 92.2862 182.53 100.321 183.676 111.748C184.445 119.4 179.998 128.009 187.662 133.226C192.025 118.865 189.703 103.155 185.241 89.0777C183.823 84.602 179.061 69.7623 173.343 78.339C166.228 74.3179 172.977 58.9495 164.742 56.8269C157.036 54.8402 159.861 70.8027 156.259 74.3787C146.809 83.7632 134.955 66.58 135.161 58.0547C119.566 63.7378 109.939 57.8017 102.945 43.7363Z" fill="#FECD00"/>
<path d="M156.639 44.9297L155.446 46.1229V47.3161V48.5093L159.026 44.9297H156.639Z" fill="black"/>
<path d="M302.209 71.1799C302.216 82.427 305.09 111.364 315.74 118.03C320.084 120.748 326.197 115.19 329.653 112.942C339.487 106.545 360.399 102.162 361.869 89.0778H352.323L360.676 79.5323L348.744 77.1459V75.9527L357.096 68.7935L345.164 71.1799L342.778 67.6003C351.215 63.6616 364.811 58.2755 369.028 49.7024C348.233 43.5587 320.718 63.485 302.209 71.1799ZM92.207 50.8956L85.0479 62.8275L94.5934 61.6344L92.207 50.8956Z" fill="white"/>
<path d="M326.072 64.0205L335.618 73.5661L326.072 74.7593L329.129 87.8844L324.879 102.203C338.27 95.8084 345.772 66.0513 326.072 64.0205Z" fill="black"/>
<path d="M7.49075 176.181C28.5239 169.536 47.0043 164.249 69.5368 164.249C63.0728 147.493 56.4238 129.904 56.4117 111.748L61.1845 122.487C81.5973 112.957 100.303 105.782 123.231 105.782C123.098 89.7672 115.153 81.243 108.912 67.6C70.3143 64.5789 25.4745 81.6129 10.4304 120.101C3.60989 137.55 3.7761 158.174 7.49075 176.181ZM186.47 78.3388C192.358 98.9369 198.117 113.86 193.629 135.612C239.509 145.108 275.996 144.394 321.301 132.033C318.265 126.731 313.176 122.976 309.927 117.714C302.422 105.558 298.554 88.8854 297.437 74.7592C275.502 80.7586 256.761 94.2918 233.004 92.5497C216.754 91.3577 202.523 80.7096 186.47 78.3388Z" fill="#FECD00"/>
<path d="M139.935 80.7254C147.298 89.2926 157.809 89.3558 163.798 79.5322C153.103 84.3933 151.149 84.7369 139.935 80.7254ZM144.707 90.271L136.355 133.226H132.775L135.162 137.999H136.355C142.581 126.746 151.969 102.396 144.707 90.271ZM157.832 91.4642L165.389 123.548L168.571 126.067C167.682 112.957 168.472 101.216 157.832 91.4642Z" fill="black"/>
<path d="M108.912 147.544H110.105C116.987 136.152 122.644 125.366 123.23 111.748C105.673 107.581 107.163 135.294 108.912 147.544ZM104.139 159.476L89.8204 161.862L102.912 151.851L106.525 111.748C99.1058 112.339 84.0648 113.715 78.9122 119.685C75.6312 123.487 75.8545 130.872 75.179 135.612C72.8885 151.678 71.4268 174.037 82.3067 187.857C86.3731 193.022 103.003 198.054 107.634 191.019C110.995 185.912 104.658 166.055 104.139 159.476Z" fill="white"/>
<path d="M92.2069 118.908L83.8545 145.158L85.0477 146.351C91.9823 142.712 94.9906 126.041 92.2069 118.908Z" fill="black"/>
<path d="M68.342 147.544H69.5352L73.1148 122.487C59.9466 125.629 64.7085 138.053 68.342 147.544Z" fill="white"/>
<path d="M444.2 142.772C434.553 145.093 432.295 150.044 432.268 159.477H433.461C433.659 151.289 436.86 146.109 445.393 145.158C448.626 132.218 463.164 123.224 466.87 141.579C470.356 139.062 472.059 134.411 476.434 132.971C485.192 130.088 490.618 140.511 489.541 147.545C496.367 147.549 503.146 147.508 508.407 152.586C511.279 155.358 514.954 161.163 509.643 163.53C496.027 169.597 471.925 163.057 457.325 163.056V164.249C471.379 169.008 487.987 167.905 502.666 167.828C508.207 167.799 516.544 167.062 516.075 159.472C515.393 148.405 504.087 147.872 496.969 143.59C488.323 138.39 481.551 120.488 469.257 134.419C458.846 124.707 445.03 126.791 444.2 142.772Z" fill="black"/>
<path d="M87.4336 141.578L88.6268 142.771L87.4336 141.578Z" fill="white"/>
<path d="M93.3993 169.021C89.3673 159.652 90.2569 157.39 99.3653 152.317C85.677 142.003 76.8415 171.37 93.3993 169.021Z" fill="black"/>
<path d="M180.503 163.056C180.161 166.645 180.543 167.989 184.083 169.022L180.503 163.056ZM188.856 163.056V166.636H191.242V163.056H188.856ZM199.594 164.249L201.981 170.215L199.594 164.249ZM164.992 165.443L167.378 171.409L164.992 165.443ZM28.9676 215.557C30.9639 222.869 33.321 225.297 40.8996 222.716C43.037 232.401 60.558 236.812 68.0926 229.603C77.3821 220.712 75.9941 209.116 75.5022 197.659L79.0818 201.238C80.5814 194.228 76.8542 172.908 69.3769 169.742C63.031 167.055 53.4355 169.417 46.8655 170.156C42.4897 170.647 30.5923 170.504 27.9144 174.511C25.5354 178.069 28.9315 185.246 28.813 189.306C28.6234 195.797 15.5211 218.617 28.9676 215.557ZM153.06 169.022L157.833 174.988L155.446 169.022H153.06ZM185.276 171.409L195.538 192.886L218.176 223.909L231.811 247.773C226.3 226.474 220.869 206.231 209.824 186.92C204.025 176.784 198.374 167.574 185.276 171.409ZM175.73 172.602L190.049 186.92L181.696 171.409L175.73 172.602Z" fill="white"/>
<path d="M101.752 172.602L95.7859 180.954L80.2744 178.568V179.761C90.9653 183.771 98.8823 184.067 104.138 172.602H101.752Z" fill="black"/>
<path d="M215.106 369.478L255.675 349.194C244.26 308.971 236.938 265.592 216.465 228.681C209.272 215.713 200.77 203.966 190.902 192.89C185.01 186.279 177.851 181.591 173.344 173.794C160.114 174.877 146.14 182.43 135.162 189.597C131.206 192.179 125.616 196.001 125.421 201.238C125.193 207.303 129.884 215.041 132.484 220.329C140.985 237.617 152.719 251.767 164.486 266.864C186.522 295.136 206.781 334.351 215.106 369.478ZM141.128 177.374L139.935 178.567L143.514 180.954L141.128 177.374ZM129.196 180.954V188.113H131.582L129.196 180.954ZM119.65 185.726L122.037 196.465H123.23L122.037 185.726H119.65Z" fill="white"/>
<path d="M312.948 203.624C296.32 199.677 286.554 220.541 302.209 228.681C295.578 216.026 296.41 200.671 314.141 208.397C318.478 196.018 331.627 183.338 340.391 200.045C355.009 196.219 357.512 205.203 355.903 217.943C361.36 217.104 364.791 217.722 364.255 223.909C370.245 225.75 374.439 226.159 377.38 232.261H309.368V234.647C329.417 234.647 356.842 239.599 376.117 234.268C387.463 231.13 372.733 222.26 367.835 221.522C366.991 216.215 364.556 214.51 359.482 213.17C362.207 200.63 353.497 193.637 341.584 196.465C335.668 179.968 316.139 191.399 312.948 203.624ZM154.253 189.306C154.082 197.54 152.331 204.128 145.9 209.59V211.977C157.805 213.665 157.831 197.529 157.832 189.306H154.253ZM594.541 246.579C598.294 252.39 609.589 251.858 616.019 252.456C635.794 254.294 655.814 258.101 675.679 258.511C675.115 285.817 665.916 312.129 668.61 339.648C669.296 346.662 671.369 355.556 676.313 360.854C680.009 364.812 684.624 365.316 686.417 359.933C662.795 347.383 675.96 299.441 678.935 278.795C679.77 272.998 683.507 261.971 680.92 256.503C678.351 251.074 665.161 252.514 660.167 251.858C638.805 249.053 616.075 246.757 594.541 246.579Z" fill="black"/>
<path d="M160.218 319.364L182.889 355.16C208.844 346.408 189.912 318.783 180.503 302.66L160.218 319.364ZM142.32 352.774C147.162 366.875 131.886 364.448 139.934 351.581C132.684 354.188 129.619 366.115 139.935 366.66C149.563 367.17 148.89 356.417 142.32 352.774Z" fill="white"/>
<path d="M283.119 384.99L286.338 404.03L274.766 412.695L236.584 425.559C250.221 436.404 287.741 421.434 296.824 408.836C305.518 396.775 295.776 385.57 283.119 384.99Z" fill="black"/>
<path d="M244.935 388.569C246.469 391.601 249.798 394.622 250.112 398.114C250.728 404.975 240.355 407.826 238.758 400.452C238.138 397.592 240.266 394.653 241.355 392.149C233.216 396.254 234.41 409.204 244.93 408.452C257.602 407.544 254.243 391.771 244.935 388.569Z" fill="white"/>
<defs>
<linearGradient id="paint0_linear_373_136" x1="46.5" y1="295.5" x2="662.5" y2="284" gradientUnits="userSpaceOnUse">
<stop stop-color="#FFF0B3"/>
<stop offset="1" stop-color="#FFFCF1"/>
</linearGradient>
</defs>
</svg>
