<svg width="30" height="30" viewBox="0 0 30 30" fill="none" xmlns="http://www.w3.org/2000/svg">
<path d="M22.9688 30H7.03125C3.15422 30 0 26.8458 0 22.9688V13.0664C0 9.18937 3.15422 6.03516 7.03125 6.03516H11.7188C12.366 6.03516 12.8906 6.5598 12.8906 7.20703C12.8906 7.85426 12.366 8.37891 11.7188 8.37891H7.03125C4.44656 8.37891 2.34375 10.4817 2.34375 13.0664V22.9688C2.34375 25.5534 4.44656 27.6562 7.03125 27.6562H22.9688C25.5534 27.6562 27.6562 25.5534 27.6562 22.9688V16.2305C27.6562 15.5832 28.1809 15.0586 28.8281 15.0586C29.4754 15.0586 30 15.5832 30 16.2305V22.9688C30 26.8458 26.8458 30 22.9688 30ZM19.2654 20.3554L21.2198 18.8605C21.7338 18.4673 21.8319 17.7318 21.4386 17.2178C21.0455 16.7037 20.3099 16.6058 19.7958 16.9989L17.8427 18.4928C16.169 19.7694 13.831 19.7695 12.1559 18.4918L6.56871 14.243C6.05356 13.8512 5.31838 13.9513 4.92656 14.4665C4.5348 14.9817 4.63482 15.7169 5.15004 16.1087L10.7359 20.3564C11.991 21.3137 13.4952 21.7924 14.9996 21.7924C16.5043 21.7924 18.0093 21.3134 19.2654 20.3554ZM30 7.38281C30 3.31189 26.6881 0 22.6172 0C18.5463 0 15.2344 3.31189 15.2344 7.38281C15.2344 11.4537 18.5463 14.7656 22.6172 14.7656C26.6881 14.7656 30 11.4537 30 7.38281ZM27.6562 7.38281C27.6562 10.1613 25.3957 12.4219 22.6172 12.4219C19.8387 12.4219 17.5781 10.1613 17.5781 7.38281C17.5781 4.6043 19.8387 2.34375 22.6172 2.34375C25.3957 2.34375 27.6562 4.6043 27.6562 7.38281ZM23.7891 9.19922V5.56641C23.7891 4.91918 23.2644 4.39453 22.6172 4.39453H21.4453C20.7981 4.39453 20.2734 4.91918 20.2734 5.56641C20.2734 6.21363 20.7981 6.73828 21.4453 6.73828V9.19922C21.4453 9.84645 21.97 10.3711 22.6172 10.3711C23.2644 10.3711 23.7891 9.84645 23.7891 9.19922Z" fill="white"/>
</svg>
