<svg width="155" height="46" viewBox="0 0 155 46" fill="none" xmlns="http://www.w3.org/2000/svg">
<path fill-rule="evenodd" clip-rule="evenodd" d="M8.05002 1.15002H147.2C151.01 1.15002 154.1 4.24002 154.1 8.05002V37.95C154.1 41.76 151.01 44.85 147.2 44.85H8.05002C4.24002 44.85 1.15002 41.76 1.15002 37.95V8.05002C1.15002 4.24002 4.24002 1.15002 8.05002 1.15002Z" fill="url(#paint0_linear_53_3728)"/>
<mask id="mask0_53_3728" style="mask-type:alpha" maskUnits="userSpaceOnUse" x="0" y="0" width="156" height="46">
<path d="M0 0.0460205H155.25V46H0V0.0460205Z" fill="white"/>
</mask>
<g mask="url(#mask0_53_3728)">
<path fill-rule="evenodd" clip-rule="evenodd" d="M154.255 35.1C154.255 35.517 154.255 35.925 154.245 36.335C154.245 36.709 154.245 37.052 154.24 37.405C154.216 38.082 154.176 38.826 154.044 39.535C153.924 40.241 153.723 40.865 153.424 41.456C153.114 42.054 152.719 42.594 152.255 43.05C151.779 43.531 151.24 43.923 150.645 44.226C150.05 44.529 149.441 44.73 148.727 44.858C147.99 44.991 147.229 45.028 146.577 45.046C146.241 45.054 145.887 45.058 145.547 45.058L144.3 45.06L9.712 44.994C9.361 44.994 9.019 44.989 8.672 44.981C8.028 44.964 7.266 44.927 6.522 44.794C5.82 44.667 5.197 44.46 4.617 44.164C4.017 43.86 3.477 43.467 3.011 42.995C2.535 42.527 2.142 41.991 1.837 41.389C1.539 40.808 1.335 40.184 1.212 39.483C1.072 38.709 1.036 37.925 1.022 37.327C1.013 37.084 1.004 36.277 1.004 36.277V9.71C1.004 9.71 1.014 8.915 1.021 8.681C1.036 8.079 1.071 7.295 1.211 6.529C1.334 5.823 1.538 5.199 1.837 4.617C2.141 4.014 2.533 3.474 3.004 3.01C3.479 2.534 4.02 2.14 4.616 1.833C5.207 1.533 5.829 1.328 6.517 1.208C7.292 1.07 8.077 1.034 8.674 1.019L9.712 1.005L145.539 1.07L146.591 1.085C147.179 1.098 147.966 1.134 148.727 1.271C149.419 1.393 150.047 1.599 150.65 1.901C151.238 2.204 151.78 2.598 152.249 3.07C152.721 3.536 153.113 4.08 153.426 4.684C153.723 5.272 153.924 5.895 154.041 6.58C154.176 7.306 154.216 8.051 154.241 8.75C154.245 9.076 154.245 9.427 154.245 9.774C154.255 10.205 154.255 10.616 154.255 11.03V35.098V35.1ZM155.245 8.716C155.217 7.946 155.173 7.176 155.03 6.414C154.902 5.644 154.672 4.925 154.32 4.225C153.965 3.537 153.509 2.906 152.962 2.361C152.418 1.816 151.787 1.358 151.101 1.005C150.392 0.65 149.677 0.42 148.907 0.285C148.15 0.147 147.377 0.1 146.607 0.082C146.256 0.076 145.897 0.069 145.547 0.067C145.133 0.064 144.714 0.064 144.3 0.064L10.965 0C10.543 0 10.127 0 9.706 0.002C9.354 0.005 9.005 0.012 8.649 0.017C7.883 0.036 7.109 0.083 6.345 0.22C5.575 0.355 4.86 0.585 4.158 0.94C3.471 1.294 2.842 1.751 2.298 2.297C1.747 2.842 1.29 3.473 0.942 4.16C0.584 4.86 0.358 5.58 0.223 6.349C0.085 7.112 0.037 7.882 0.017 8.651C0.007 9.005 0.006 9.359 0 9.711V36.293C0.006 36.649 0.007 36.996 0.017 37.352C0.037 38.122 0.085 38.893 0.223 39.654C0.358 40.424 0.584 41.147 0.942 41.845C1.292 42.529 1.747 43.161 2.298 43.701C2.842 44.251 3.471 44.707 4.158 45.057C4.86 45.416 5.575 45.644 6.345 45.783C7.109 45.919 7.883 45.964 8.649 45.985C9.005 45.993 9.354 45.998 9.706 45.998C10.126 46 10.543 46 10.966 46L144.3 46.064C144.714 46.064 145.133 46.064 145.546 46.062C145.897 46.062 146.256 46.057 146.606 46.049C147.377 46.029 148.15 45.984 148.906 45.847C149.677 45.707 150.392 45.48 151.101 45.121C151.787 44.771 152.418 44.315 152.961 43.766C153.509 43.226 153.965 42.594 154.32 41.909C154.672 41.211 154.902 40.489 155.03 39.719C155.173 38.957 155.217 38.187 155.245 37.416C155.25 37.06 155.25 36.714 155.25 36.357C155.26 35.939 155.26 35.523 155.26 35.099V11.031C155.26 10.61 155.26 10.192 155.25 9.775C155.25 9.423 155.25 9.069 155.245 8.715V8.716Z" fill="url(#paint1_linear_53_3728)"/>
</g>
<path fill-rule="evenodd" clip-rule="evenodd" d="M122.976 34.5H125.122V20.123H122.976V34.5ZM142.304 25.302L139.844 31.535H139.771L137.218 25.302H134.907L138.736 34.014L136.552 38.8601H138.79L144.69 25.302H142.304ZM130.134 32.8671C129.433 32.8671 128.452 32.515 128.452 31.646C128.452 30.5371 129.672 30.112 130.727 30.112C131.669 30.112 132.114 30.315 132.687 30.592C132.52 31.924 131.374 32.8671 130.134 32.8671ZM130.394 24.987C128.84 24.987 127.231 25.673 126.566 27.189L128.47 27.984C128.877 27.189 129.635 26.93 130.43 26.93C131.54 26.93 132.669 27.595 132.687 28.779V28.927C132.298 28.705 131.466 28.373 130.447 28.373C128.395 28.373 126.306 29.501 126.306 31.609C126.306 33.533 127.989 34.773 129.876 34.773C131.317 34.773 132.114 34.1251 132.612 33.3661H132.687V34.4761H134.759V28.9641C134.759 26.4121 132.853 24.987 130.394 24.987ZM117.132 27.053H114.08V22.125H117.132C118.736 22.125 119.647 23.452 119.647 24.588C119.647 25.702 118.737 27.053 117.132 27.053ZM117.077 20.123H111.935V34.5H114.08V29.0541H117.077C119.455 29.0541 121.793 27.332 121.793 24.588C121.793 21.845 119.455 20.123 117.077 20.123ZM89.039 32.869C87.556 32.869 86.316 31.629 86.316 29.924C86.316 28.2001 87.556 26.941 89.039 26.941C90.502 26.941 91.65 28.201 91.65 29.924C91.65 31.628 90.502 32.869 89.039 32.869ZM91.502 26.107H91.428C90.947 25.533 90.02 25.014 88.854 25.014C86.408 25.014 84.165 27.164 84.165 29.924C84.165 32.666 86.408 34.7971 88.854 34.7971C90.02 34.7971 90.947 34.2771 91.428 33.6851H91.502V34.3881C91.502 36.261 90.502 37.26 88.89 37.26C87.575 37.26 86.76 36.3161 86.426 35.5191L84.555 36.2971C85.092 37.5941 86.518 39.187 88.89 39.187C91.41 39.187 93.541 37.705 93.541 34.092V25.31H91.502V26.107ZM95.023 34.5H97.172V20.123H95.023V34.5ZM100.34 29.757C100.285 27.8671 101.804 26.904 102.896 26.904C103.75 26.904 104.472 27.331 104.713 27.942L100.34 29.757ZM107.01 28.127C106.602 27.034 105.36 25.014 102.823 25.014C100.303 25.014 98.209 26.997 98.209 29.906C98.209 32.647 100.285 34.7961 103.063 34.7961C105.304 34.7961 106.602 33.4261 107.14 32.6291L105.472 31.517C104.916 32.332 104.157 32.869 103.063 32.869C101.97 32.869 101.192 32.369 100.693 31.387L107.232 28.682L107.01 28.127ZM54.906 26.514V28.59H59.87C59.722 29.757 59.333 30.6101 58.74 31.202C58.017 31.925 56.887 32.722 54.906 32.722C51.848 32.722 49.458 30.258 49.458 27.201C49.458 24.143 51.848 21.68 54.906 21.68C56.555 21.68 57.758 22.327 58.648 23.161L60.112 21.698C58.87 20.513 57.222 19.604 54.906 19.604C50.717 19.604 47.197 23.014 47.197 27.201C47.197 31.3871 50.717 34.7971 54.906 34.7971C57.166 34.7971 58.87 34.055 60.204 32.666C61.574 31.295 62 29.369 62 27.812C62 27.331 61.963 26.886 61.889 26.514H54.905H54.906ZM67.646 32.869C66.164 32.869 64.886 31.647 64.886 29.906C64.886 28.146 66.164 26.941 67.646 26.941C69.128 26.941 70.406 28.145 70.406 29.906C70.406 31.646 69.128 32.869 67.646 32.869ZM67.646 25.014C64.94 25.014 62.736 27.071 62.736 29.906C62.736 32.722 64.941 34.7961 67.646 34.7961C70.351 34.7961 72.556 32.722 72.556 29.906C72.556 27.071 70.351 25.014 67.646 25.014ZM78.356 32.869C76.874 32.869 75.596 31.647 75.596 29.906C75.596 28.146 76.874 26.941 78.356 26.941C79.839 26.941 81.116 28.145 81.116 29.906C81.116 31.646 79.839 32.869 78.356 32.869ZM78.356 25.014C75.652 25.014 73.447 27.071 73.447 29.906C73.447 32.722 75.652 34.7961 78.357 34.7961C81.061 34.7961 83.266 32.722 83.266 29.906C83.266 27.071 81.061 25.014 78.356 25.014ZM48.359 14.102H49.582C50.378 14.102 51.009 13.874 51.476 13.417C51.942 12.962 52.174 12.322 52.174 11.5C52.174 10.684 51.942 10.046 51.476 9.58605C51.009 9.12805 50.378 8.89805 49.582 8.89805H48.36V14.102H48.359ZM47.472 14.95V8.05005H49.582C50.642 8.05005 51.49 8.37005 52.127 9.01005C52.763 9.64905 53.081 10.478 53.081 11.5C53.081 12.521 52.763 13.351 52.127 13.99C51.49 14.63 50.643 14.95 49.582 14.95H47.472Z" fill="black"/>
<path fill-rule="evenodd" clip-rule="evenodd" d="M48.359 14.102H49.582C50.378 14.102 51.009 13.874 51.476 13.417C51.942 12.962 52.174 12.322 52.174 11.5C52.174 10.684 51.942 10.046 51.476 9.58605C51.009 9.12805 50.378 8.89805 49.582 8.89805H48.36V14.102H48.359ZM47.472 14.95V8.05005H49.582C50.642 8.05005 51.49 8.37005 52.127 9.01005C52.763 9.64905 53.081 10.478 53.081 11.5C53.081 12.521 52.763 13.351 52.127 13.99C51.49 14.63 50.643 14.95 49.582 14.95H47.472V14.95Z" stroke="#232322" stroke-width="0.5"/>
<path fill-rule="evenodd" clip-rule="evenodd" d="M54.325 14.95H55.212V8.05005H54.325V14.95Z" fill="black"/>
<path fill-rule="evenodd" clip-rule="evenodd" d="M54.325 14.95H55.212V8.05005H54.325V14.95Z" stroke="#232322" stroke-width="0.5"/>
<path fill-rule="evenodd" clip-rule="evenodd" d="M58.737 15.104C58.236 15.104 57.747 14.941 57.269 14.614C56.789 14.285 56.475 13.825 56.329 13.234L57.138 12.906C57.234 13.286 57.431 13.606 57.73 13.866C58.03 14.126 58.365 14.256 58.737 14.256C59.123 14.256 59.453 14.156 59.725 13.953C59.999 13.751 60.135 13.476 60.135 13.128C60.135 12.743 59.999 12.446 59.725 12.238C59.453 12.028 59.02 11.834 58.429 11.654C57.819 11.462 57.356 11.213 57.041 10.907C56.727 10.602 56.569 10.212 56.569 9.736C56.569 9.241 56.765 8.811 57.157 8.446C57.549 8.079 58.06 7.896 58.689 7.896C59.274 7.896 59.749 8.042 60.115 8.334C60.482 8.626 60.72 8.946 60.828 9.294L60.02 9.63C59.961 9.412 59.818 9.21 59.59 9.023C59.363 8.837 59.069 8.743 58.709 8.743C58.369 8.743 58.077 8.838 57.837 9.027C57.595 9.218 57.475 9.454 57.475 9.736C57.475 9.993 57.586 10.21 57.808 10.386C58.03 10.563 58.356 10.723 58.786 10.864C59.126 10.974 59.41 11.079 59.639 11.183C59.867 11.283 60.099 11.422 60.332 11.592C60.567 11.761 60.743 11.974 60.862 12.228C60.982 12.481 61.041 12.775 61.041 13.108C61.041 13.443 60.971 13.742 60.834 14.006C60.696 14.269 60.512 14.477 60.284 14.631C60.056 14.786 59.812 14.903 59.547 14.983C59.284 15.063 59.013 15.104 58.737 15.104Z" fill="black"/>
<path fill-rule="evenodd" clip-rule="evenodd" d="M58.737 15.104C58.236 15.104 57.747 14.941 57.269 14.614C56.789 14.285 56.475 13.825 56.329 13.234L57.138 12.906C57.234 13.286 57.431 13.606 57.73 13.866C58.03 14.126 58.365 14.256 58.737 14.256C59.123 14.256 59.453 14.156 59.725 13.953C59.999 13.751 60.135 13.476 60.135 13.128C60.135 12.743 59.999 12.446 59.725 12.238C59.453 12.028 59.02 11.834 58.429 11.654C57.819 11.462 57.356 11.213 57.041 10.907C56.727 10.602 56.569 10.212 56.569 9.736C56.569 9.241 56.765 8.811 57.157 8.446C57.549 8.079 58.06 7.896 58.689 7.896C59.274 7.896 59.749 8.042 60.115 8.334C60.482 8.626 60.72 8.946 60.828 9.294L60.02 9.63C59.961 9.412 59.818 9.21 59.59 9.023C59.363 8.837 59.069 8.743 58.709 8.743C58.369 8.743 58.077 8.838 57.837 9.027C57.595 9.218 57.475 9.454 57.475 9.736C57.475 9.993 57.586 10.21 57.808 10.386C58.03 10.563 58.356 10.723 58.786 10.864C59.126 10.974 59.41 11.079 59.639 11.183C59.867 11.283 60.099 11.422 60.332 11.592C60.567 11.761 60.743 11.974 60.862 12.228C60.982 12.481 61.041 12.775 61.041 13.108C61.041 13.443 60.971 13.742 60.834 14.006C60.696 14.269 60.512 14.477 60.284 14.631C60.056 14.786 59.812 14.903 59.547 14.983C59.284 15.063 59.013 15.104 58.737 15.104V15.104Z" stroke="#232322" stroke-width="0.5"/>
<path fill-rule="evenodd" clip-rule="evenodd" d="M63.2 11.307H64.684C65.057 11.307 65.356 11.183 65.58 10.932C65.805 10.682 65.917 10.405 65.917 10.102C65.917 9.80005 65.805 9.52405 65.58 9.27405C65.356 9.02305 65.057 8.89805 64.684 8.89805H63.199V11.307H63.2ZM63.2 14.95H62.313V8.05005H64.665C65.249 8.05005 65.755 8.24405 66.182 8.63305C66.61 9.02205 66.823 9.51205 66.823 10.103C66.823 10.693 66.61 11.183 66.183 11.571C65.756 11.961 65.249 12.156 64.664 12.156H63.2V14.95Z" fill="black"/>
<path fill-rule="evenodd" clip-rule="evenodd" d="M63.2 11.307H64.684C65.057 11.307 65.356 11.183 65.58 10.932C65.805 10.682 65.917 10.405 65.917 10.102C65.917 9.80005 65.805 9.52405 65.58 9.27405C65.356 9.02305 65.057 8.89805 64.684 8.89805H63.199V11.307H63.2ZM63.2 14.95H62.313V8.05005H64.665C65.249 8.05005 65.755 8.24405 66.182 8.63305C66.61 9.02205 66.823 9.51205 66.823 10.103C66.823 10.693 66.61 11.183 66.183 11.571C65.756 11.961 65.249 12.156 64.664 12.156H63.2V14.95Z" stroke="#232322" stroke-width="0.5"/>
<path fill-rule="evenodd" clip-rule="evenodd" d="M69.178 13.48C69.688 13.998 70.314 14.255 71.053 14.255C71.793 14.255 72.418 13.998 72.927 13.48C73.437 12.963 73.694 12.303 73.694 11.5C73.694 10.697 73.438 10.036 72.927 9.52C72.417 9.002 71.792 8.743 71.053 8.743C70.314 8.743 69.689 9.003 69.178 9.52C68.668 10.036 68.412 10.697 68.412 11.5C68.412 12.303 68.669 12.963 69.178 13.48ZM73.583 14.058C72.904 14.756 72.061 15.104 71.053 15.104C70.044 15.104 69.201 14.756 68.523 14.058C67.845 13.362 67.507 12.508 67.507 11.5C67.507 10.491 67.845 9.638 68.524 8.941C69.201 8.244 70.044 7.896 71.053 7.896C72.056 7.896 72.897 8.246 73.578 8.946C74.258 9.646 74.599 10.497 74.599 11.5C74.599 12.509 74.26 13.362 73.583 14.058Z" fill="black"/>
<path fill-rule="evenodd" clip-rule="evenodd" d="M69.178 13.48C69.688 13.998 70.314 14.255 71.053 14.255C71.793 14.255 72.418 13.998 72.927 13.48C73.437 12.963 73.694 12.303 73.694 11.5C73.694 10.697 73.438 10.036 72.927 9.52C72.417 9.002 71.792 8.743 71.053 8.743C70.314 8.743 69.689 9.003 69.178 9.52C68.668 10.036 68.412 10.697 68.412 11.5C68.412 12.303 68.669 12.963 69.178 13.48ZM73.583 14.058C72.904 14.756 72.061 15.104 71.053 15.104C70.044 15.104 69.201 14.756 68.523 14.058C67.845 13.362 67.507 12.508 67.507 11.5C67.507 10.491 67.845 9.638 68.524 8.941C69.201 8.244 70.044 7.896 71.053 7.896C72.056 7.896 72.897 8.246 73.578 8.946C74.258 9.646 74.599 10.497 74.599 11.5C74.599 12.509 74.26 13.362 73.583 14.058V14.058Z" stroke="#232322" stroke-width="0.5"/>
<path fill-rule="evenodd" clip-rule="evenodd" d="M75.844 14.95V8.05005H76.924L80.277 13.417H80.315L80.277 12.088V8.05005H81.164V14.95H80.238L76.73 9.32205H76.691L76.73 10.652V14.95H75.844Z" fill="black"/>
<path fill-rule="evenodd" clip-rule="evenodd" d="M75.844 14.95V8.05005H76.924L80.277 13.417H80.315L80.277 12.088V8.05005H81.164V14.95H80.238L76.73 9.32205H76.691L76.73 10.652V14.95H75.844Z" stroke="#232322" stroke-width="0.5"/>
<path fill-rule="evenodd" clip-rule="evenodd" d="M82.744 14.95H83.63V8.05005H82.744V14.95Z" fill="black"/>
<path fill-rule="evenodd" clip-rule="evenodd" d="M82.744 14.95H83.63V8.05005H82.744V14.95Z" stroke="#232322" stroke-width="0.5"/>
<path fill-rule="evenodd" clip-rule="evenodd" d="M86.096 14.102H87.88C88.22 14.102 88.496 13.982 88.709 13.745C88.92 13.508 89.026 13.247 89.026 12.964C89.026 12.682 88.916 12.424 88.698 12.189C88.48 11.954 88.194 11.837 87.84 11.837H86.096V14.102ZM86.096 11.008H87.706C88.041 11.008 88.308 10.898 88.511 10.675C88.713 10.455 88.813 10.212 88.813 9.94905C88.813 9.68505 88.716 9.44405 88.52 9.22505C88.325 9.00705 88.066 8.89805 87.745 8.89805H86.095V11.008H86.096ZM85.21 14.95V8.05005H87.706C88.246 8.05005 88.713 8.22805 89.108 8.58505C89.503 8.94105 89.701 9.39005 89.701 9.92905C89.701 10.257 89.616 10.546 89.445 10.796C89.275 11.046 89.049 11.236 88.765 11.366V11.403C89.105 11.52 89.386 11.719 89.605 12C89.822 12.283 89.932 12.612 89.932 12.983C89.932 13.549 89.724 14.018 89.31 14.391C88.896 14.764 88.406 14.95 87.84 14.95H85.21Z" fill="black"/>
<path fill-rule="evenodd" clip-rule="evenodd" d="M86.096 14.102H87.88C88.22 14.102 88.496 13.982 88.709 13.745C88.92 13.508 89.026 13.247 89.026 12.964C89.026 12.682 88.916 12.424 88.698 12.189C88.48 11.954 88.194 11.837 87.84 11.837H86.096V14.102V14.102ZM86.096 11.008H87.706C88.041 11.008 88.308 10.898 88.511 10.675C88.713 10.455 88.813 10.212 88.813 9.94905C88.813 9.68505 88.716 9.44405 88.52 9.22505C88.325 9.00705 88.066 8.89805 87.745 8.89805H86.095V11.008H86.096ZM85.21 14.95V8.05005H87.706C88.246 8.05005 88.713 8.22805 89.108 8.58505C89.503 8.94105 89.701 9.39005 89.701 9.92905C89.701 10.257 89.616 10.546 89.445 10.796C89.275 11.046 89.049 11.236 88.765 11.366V11.403C89.105 11.52 89.386 11.719 89.605 12C89.822 12.283 89.932 12.612 89.932 12.983C89.932 13.549 89.724 14.018 89.31 14.391C88.896 14.764 88.406 14.95 87.84 14.95H85.21V14.95Z" stroke="#232322" stroke-width="0.5"/>
<path fill-rule="evenodd" clip-rule="evenodd" d="M91.127 14.95V8.05005H92.014V14.102H95V14.95H91.127Z" fill="black"/>
<path fill-rule="evenodd" clip-rule="evenodd" d="M91.127 14.95V8.05005H92.014V14.102H95V14.95H91.127Z" stroke="#232322" stroke-width="0.5"/>
<path fill-rule="evenodd" clip-rule="evenodd" d="M100.148 8.89805H97.005V11.086H99.838V11.914H97.005V14.102H100.148V14.95H96.119V8.05005H100.148V8.89805Z" fill="black"/>
<path fill-rule="evenodd" clip-rule="evenodd" d="M100.148 8.89805H97.005V11.086H99.838V11.914H97.005V14.102H100.148V14.95H96.119V8.05005H100.148V8.89805Z" stroke="#232322" stroke-width="0.5"/>
<path fill-rule="evenodd" clip-rule="evenodd" d="M107.877 8.89805H104.734V11.086H107.568V11.914H104.734V14.102H107.877V14.95H103.848V8.05005H107.877V8.89805Z" fill="black"/>
<path fill-rule="evenodd" clip-rule="evenodd" d="M107.877 8.89805H104.734V11.086H107.568V11.914H104.734V14.102H107.877V14.95H103.848V8.05005H107.877V8.89805Z" stroke="#232322" stroke-width="0.5"/>
<path fill-rule="evenodd" clip-rule="evenodd" d="M109.264 14.95V8.05005H110.343L113.696 13.417H113.734L113.696 12.088V8.05005H114.584V14.95H113.658L110.149 9.32205H110.111L110.149 10.652V14.95H109.264Z" fill="black"/>
<path fill-rule="evenodd" clip-rule="evenodd" d="M109.264 14.95V8.05005H110.343L113.696 13.417H113.734L113.696 12.088V8.05005H114.584V14.95H113.658L110.149 9.32205H110.111L110.149 10.652V14.95H109.264Z" stroke="#232322" stroke-width="0.5"/>
<path fill-rule="evenodd" clip-rule="evenodd" d="M37.903 23.089C37.9209 23.854 37.6629 24.429 37.1279 24.811L33.681 26.764L29.9479 23.089L33.681 19.356L37.0709 21.365C37.6059 21.749 37.8829 22.323 37.903 23.089ZM28.6269 24.351L32.0719 27.798L15.9919 37.044L28.6269 24.35V24.351ZM32.0719 18.378L15.9919 9.13201L28.6269 21.825L32.0719 18.378ZM27.422 23.088L12.6619 37.79C11.8189 37.368 11.3979 36.7 11.3979 35.78V10.395C11.3979 9.47701 11.8179 8.80701 12.6619 8.38501L27.422 23.089V23.088Z" fill="black"/>
<defs>
<linearGradient id="paint0_linear_53_3728" x1="-1.94668" y1="23.8848" x2="163.281" y2="13.0887" gradientUnits="userSpaceOnUse">
<stop stop-color="#7BF2E8"/>
<stop offset="1" stop-color="#E2E2F7"/>
</linearGradient>
<linearGradient id="paint1_linear_53_3728" x1="-3.14347" y1="23.9646" x2="164.631" y2="13.4076" gradientUnits="userSpaceOnUse">
<stop stop-color="#7BF2E8"/>
<stop offset="1" stop-color="#E2E2F7"/>
</linearGradient>
</defs>
</svg>
