<svg width="795" height="568" viewBox="0 0 795 568" fill="none" xmlns="http://www.w3.org/2000/svg">
<circle cx="284" cy="284" r="284" fill="url(#paint0_linear_277_121)"/>
<path d="M644.547 114.12V99.6204C636.547 99.6204 628.88 111.954 626.047 118.12C631.547 170.12 712.547 226.709 741.047 221.12C761.447 217.12 765.88 202.454 765.547 195.62L757.047 204.12H737.547L715.547 195.62L695.047 182.62L673.547 162.62L657.547 144.12L649.047 130.62L644.547 114.12Z" fill="#FECD00"/>
<path d="M792.547 375.62L789.547 258.62L785.547 268.62L766.047 281.12L746.547 290.12L726.047 293.62H708.047L680.047 290.12L655.047 284.12L633.047 273.12L635.547 365.62L785.547 379.62L792.547 375.62Z" fill="#FECD00"/>
<path d="M616.547 89.1204V164.12H618.547L617.717 106.12L616.547 89.1204ZM653.547 89.6494C629.739 95.1534 646.399 126.971 654.134 139.12C669.452 163.177 694.267 186.639 720.547 198.258C731.051 202.902 745.094 206.791 756.546 203.32C777.456 196.982 762.755 167.304 754.957 156.12C738.387 132.354 713.476 110.838 687.547 97.8734C677.628 92.9144 664.936 87.0174 653.547 89.6494Z" fill="black"/>
<path d="M653.547 93.6932C634.648 99.1252 652.28 128.965 658.242 138.12C672.999 160.78 696.145 182.048 720.547 193.862C730.452 198.656 744.513 202.974 755.543 199.467C773.182 193.859 756.91 165.817 750.826 157.12C734.843 134.277 709.185 111.43 683.547 99.9812C674.903 96.1212 663.208 90.9152 653.547 93.6932Z" fill="white"/>
<path d="M314.5 233.5L309 227.5L297 246L300 253L314.5 262.5H329.5L344 258L357 254.5L371 251.5L386 248.5L402 246L421.5 248.5L433 256.5L441.5 268L445 256.5V243.5L436.5 233.5L427.5 227.5L414.5 225H388L355 231L329.5 236H321L314.5 233.5Z" fill="white"/>
<path d="M753.547 189.12C722.119 200.276 687.276 165.099 670.177 142.12C664.542 134.548 653.553 120.352 655.88 110.121C657.35 103.652 663.963 102.6 669.547 103.421C680.688 105.058 691.435 112.271 700.547 118.464C708.672 123.986 716.361 130.516 723.547 137.21C734.502 147.413 742.979 158.287 750.547 171.12C752.482 164.064 742.906 153.922 738.457 149.12C723.062 132.506 705.336 116.022 684.547 106.429C676.916 102.908 659.08 95.6705 654.441 107.163C650.958 115.79 657.721 127.017 661.997 134.12C674.828 155.436 695.363 175.39 717.547 186.862C725.963 191.214 747.029 200.392 753.547 189.12ZM276.547 472.12H277.547C280.095 477.455 284.76 479.964 290.547 480.819C303.904 482.793 331.603 482.393 343.532 475.703C349.978 472.087 348.199 462.015 353.645 460.059C365.323 455.865 388.439 457.155 393.805 443.119C399.623 427.901 373.982 426.617 367.076 418.08C364.716 415.161 361.322 410.162 362.721 406.21C364.527 401.104 370.739 398.549 369.098 392.163C368.026 387.991 363.539 386.698 360.76 383.907C357.042 380.173 350.145 366.861 350.788 361.453C351.145 358.444 356.643 359.982 358.547 360.085C366.232 360.497 373.863 361.744 381.547 362.12C406.261 363.331 430.871 367.222 455.547 369.031C462.457 369.538 478.705 368.097 484.049 372.723C492.665 380.184 490.971 395.66 488.256 405.12C480.689 431.482 472.831 457.759 465.256 484.12L457.547 511.12C457.14 512.542 454.428 519.481 456.887 520.199C459.337 520.914 460.987 512.579 461.406 511.12C464.567 500.095 467.978 489.148 471.126 478.12C478.632 451.821 492.456 422.433 494.457 395.12C495.324 383.28 486.849 373.447 487.667 362.12C488.309 353.217 497.417 344.111 506.547 344.388C515.674 344.664 524.614 354.21 525.322 363.12C525.921 370.64 521.082 377.48 521.721 385.12C524.169 414.409 533.496 444.319 539.348 473.12C541.449 483.459 543.677 493.772 545.747 504.12C546.165 506.21 546.597 513.913 549.698 513.913C552.901 513.913 551.78 508.848 551.423 507.12C549.77 499.126 548.148 491.126 546.547 483.12C541.207 456.415 535.289 429.825 529.947 403.12C528.836 397.568 522.579 380.21 529.351 376.572C534.191 373.972 545.297 377.006 550.547 377.696C565.769 379.696 581.261 380.471 596.547 381.95C638.518 386.012 680.574 389.228 722.547 393.29C742.253 395.197 765.913 401.177 785.547 399.011C799.668 397.453 796.158 380.643 785.546 376.679C777.667 373.736 769.715 374.59 761.547 374.03C747.609 373.076 733.529 371.122 719.547 371.12V370.12C737.276 368.721 756.591 364.341 772.547 356.311C774.319 355.419 789.793 345.986 786.371 343.465C784.687 342.224 778.901 347.849 777.547 348.76C768.546 354.821 757.877 358.321 747.547 361.399C721.823 369.064 693.446 369.213 667.547 362.385C659.14 360.169 650.333 357.68 642.547 353.747C641.095 353.013 636.4 349.172 634.723 350.385C632.508 351.988 639.727 355.899 640.548 356.338C647.29 359.947 654.867 363.449 662.547 364.12C649.973 367.828 630.613 362.595 617.547 361.289C589.439 358.479 559.182 359.162 531.562 353.347C520.81 351.083 517.947 339.136 504.547 340.213C496.824 340.834 492.507 347.173 485.547 348.799C474.835 351.301 457.498 347.134 446.547 345.696C442.466 345.16 431.233 346.304 428.664 342.517C426.099 338.736 429.632 330.47 429.244 326.12C428.552 318.362 420.446 313.874 422.981 305.174C424.896 298.601 433.048 296.666 436.805 291.842C447.207 278.489 445.208 262.27 431.546 251.51C421.643 243.711 407.49 243.287 395.547 244.838C373.741 247.671 353.154 255.082 331.547 258.706C324.225 259.935 300.392 259.984 300.116 248.027C300.047 245.025 306.06 232.184 309.451 232.176C311.921 232.17 314.556 236.149 316.548 237.378C319.77 239.366 323.887 239.374 327.547 238.936C350.701 236.165 373.083 229.071 396.547 226.951C407.818 225.933 423.107 226.634 432.546 233.677C438.062 237.793 442.025 243.432 443.647 250.12C444.301 252.813 440.178 267.666 441.5 270C443.159 272.925 448.204 257.267 448.319 256.101C449.82 240.811 437.188 228.534 423.547 224.877C399.88 218.533 371.87 224.58 348.547 229.696C341.076 231.334 329.015 236.78 321.551 234.602C315.965 232.973 312.006 226.498 308.677 222.12C301.263 212.369 294.315 201.754 285.532 193.159C280.734 188.464 270.977 185.421 267.299 180.436C264.752 176.985 276.022 171.772 277.844 169.105C281.327 164.005 278.283 157.567 280.999 152.963C282.341 150.689 286.448 149.957 288.543 148.471C295.788 143.334 300.643 131.518 290.532 126.299C285.059 123.474 279.986 126.72 274.547 127.321C260.096 128.919 240.972 129.311 238.953 148.12C237.918 157.753 249.766 166.48 243.552 174.972C240.627 178.969 235.772 177.707 231.547 178.909C226.385 180.376 221.466 183.579 217.64 187.294C205.065 199.503 208.746 213.4 204.439 228.12C201.591 237.853 194.798 247.819 194.602 258.12C194.536 261.624 196.708 265.169 196.192 268.544C194.381 280.378 190.248 289.547 190.561 302.12C190.678 306.809 196.26 316.751 194.882 320.477C194.148 322.461 186.589 321.623 184.562 322.385C176.863 325.276 176.204 336.071 181.199 341.841C187.963 349.653 209.115 346.743 218.547 347.159C235.165 347.894 251.373 361.199 257.671 376.12C262.315 387.123 263.091 400.389 264.819 412.12C267.117 427.722 270.379 442.709 273.35 458.12C275.108 467.233 268.208 477.544 275.761 484.78C289.394 497.841 322.652 491.135 338.547 486.399C343.821 484.828 361.738 480.396 356.372 471.457C355.873 470.626 354.601 469.443 353.605 470.296C352.298 471.415 352.773 474.257 351.716 475.73C349.341 479.04 344.23 480.198 340.547 481.26C324.755 485.812 307.999 489.113 291.547 486.365C283.491 485.02 275.314 481.536 276.547 472.12ZM644.359 139.464C642.165 139.518 641.28 143.703 643.717 143.2C645.336 142.866 646.757 139.405 644.359 139.464Z" fill="black"/>
<path d="M270.546 163.12L274.546 152.12C271.116 151.819 263.16 147.771 260.585 150.878C258.862 152.957 260.815 157.549 258.097 158.918C256.208 159.869 254.064 155.889 252.544 157.872C247.79 164.075 245.345 185.763 256.489 187.199C266.279 188.46 257.898 172.417 258.749 171.394C260.361 169.456 268.448 171.116 271.357 169.111C273.607 167.56 278.098 154.614 273.899 156.041C272.908 156.379 272.662 161.717 270.546 163.12Z" fill="white"/>
<path d="M264.547 155.12H269.547C267.778 153.086 266.316 153.086 264.547 155.12ZM266.353 156.759L267.741 157.481L266.353 156.759ZM657.825 158.187C655.47 159.609 656.721 162.592 659.269 161.053C661.624 159.631 660.373 156.648 657.825 158.187ZM624.547 161.12V167.12H625.547L626.547 161.12H624.547ZM265.547 162.12L269.547 165.12L265.547 162.12ZM677.547 178.446C675.782 179.068 674.967 182.206 677.547 181.373C679.412 180.771 680.032 177.569 677.547 178.446Z" fill="black"/>
<path d="M258.547 294.12C258.583 281.232 264.261 268.579 269.805 257.12C272.023 252.538 278.155 244.534 276.758 239.21C274.842 231.902 259.248 223.164 253.547 218.366C252.509 217.492 246.274 213.076 247.754 211.237C249.071 209.601 253.704 214.277 254.547 214.991C259.542 219.225 264.431 223.6 269.546 227.69C270.75 228.652 273.72 231.721 275.519 230.778C278.271 229.336 275.313 213.094 274.976 210.121C274.825 208.793 274.145 204.327 276.551 204.327C279.352 204.327 279.391 211.351 279.547 213.12C280.212 220.671 278.949 234.055 284.695 239.656C286.921 241.826 293.135 247.956 296.195 244.693C299.246 241.44 305.562 231.598 305.618 227.12C305.672 222.832 300.839 218.318 298.417 215.12C290.865 205.144 281.228 190.134 268.601 186.173C263.188 184.475 261.733 193.073 255.561 191.562C250.888 190.418 249.024 185.419 245.119 183.148C238.425 179.254 227.723 183.897 222.551 188.333C184.95 220.583 227.528 276.275 258.547 294.12Z" fill="white"/>
<path d="M699.284 197.232L700.078 198.838L699.284 197.232ZM768.547 215.12C775.214 211.712 777.126 203.988 778.547 197.12L768.547 215.12ZM727.245 207.461C725.306 207.528 722.993 211.491 725.775 211.369C727.709 211.284 729.939 207.369 727.245 207.461ZM744.13 211.139L744.964 212.101L744.13 211.139ZM778.214 218.453L778.88 218.787L778.214 218.453ZM696.261 231.66C677.377 233.983 658.204 235.399 641.547 245.739C633.583 250.682 626.494 259.367 630.964 269.119C635.252 278.474 646.549 282.826 655.547 286.309C680.391 295.926 711.427 296.35 737.547 292.831C752.34 290.839 768.28 285.882 779.376 275.529C789.062 266.492 790.097 255.272 779.543 246.449C758.915 229.204 721.627 228.541 696.261 231.66Z" fill="black"/>
<path d="M694.547 235.544C677.556 237.776 659.571 239.422 644.547 248.584C637.746 252.731 630.679 259.566 635.004 268.116C639.506 277.017 651.715 280.946 660.547 283.776C684.802 291.547 712.442 292.133 737.547 288.831C751.114 287.046 766.241 282.255 776.532 272.936C783.59 266.544 786.326 257.586 778.453 250.588C758.405 232.767 719.694 232.241 694.547 235.544ZM205.547 236.12C203.22 243.258 197.59 252.437 198.79 260.12C200.974 274.112 223.773 276.331 234.547 279.12L215.268 255.12L205.547 236.12Z" fill="white"/>
<path d="M611.547 248.12C614.237 241.945 606.74 239.247 611.547 248.12V248.12ZM766.547 260.12H765.547C751.817 287.877 709.452 286.398 683.547 281.316C674.354 279.512 656.993 275.201 653.449 265.105C649.657 254.303 670.251 247.477 677.547 245.598C705.516 238.398 733.365 241.219 759.547 252.12C755.76 245.447 744.67 243.029 737.547 241.736C717.169 238.035 693.424 238.826 673.547 244.71C665.135 247.201 648.119 253.324 651.24 265.12C653.878 275.093 667.844 279.236 676.547 281.692C697.438 287.586 725.013 287.762 745.547 280.422C754.886 277.083 765.446 270.796 766.547 260.12Z" fill="black"/>
<path d="M281.158 243.166C278.985 244.264 277.807 249.059 276.788 251.12C274.083 256.588 262.487 274.64 265.575 280.569C269.528 288.162 289.885 292.491 297.547 294.708C319.787 301.143 346.26 305.322 368.547 296.689C379.717 292.363 389.693 279.448 401.547 278.264C411.002 277.319 414.607 283.838 418.214 291.12C419.246 293.203 422.054 297.905 425.07 296.148C430.351 293.072 421.137 279.873 419.084 277.125C418.658 276.554 415.569 273.435 416.241 272.601C417.051 271.598 420.977 275.718 421.413 276.18C423.675 278.58 429.584 292.102 433.223 290.148C442.263 285.294 424.087 267.712 424.32 262.967C424.396 261.425 429.139 265.837 429.408 266.129C430.993 267.85 437.377 281.01 439.501 278.56C441.674 276.053 439.7 270.797 438.825 268.12C435.606 258.271 427.612 251.295 417.547 249.125C385.589 242.232 353.948 261.449 322.547 263.981C311.384 264.881 300.899 255.713 292.547 249.49C290.257 247.784 284.328 241.565 281.158 243.166Z" fill="white"/>
<path d="M592.547 247.12L601.547 255.12L592.547 247.12Z" fill="black"/>
<path d="M200.365 272.372C197.203 274.008 196.231 281.994 195.641 285.12C193.108 298.557 195.034 312.061 203.446 323.119C217.531 341.634 243.002 346.353 256.937 365.12C267.181 378.916 267.476 399.728 270.109 416.12C270.886 420.961 270.074 433.889 274.15 437.092C280.162 441.818 297.904 437.134 304.547 435.385C310.376 433.851 317.247 432.646 322.542 429.703C325.322 428.158 328.339 425.644 327.969 422.119C327.527 417.906 323.62 414.272 322.475 410.12C319.711 400.096 318.976 389.296 316.42 379.12C309.963 353.41 297.705 319.155 275.377 302.91C269.988 298.989 262.582 300.549 256.547 296.852C246.157 290.488 240.796 284.401 228.547 281.696C221.769 280.199 214.793 278.399 208.547 275.311C206.523 274.31 202.755 271.136 200.365 272.372Z" fill="#FECD00"/>
<path d="M595.547 272.12V274.12L607.547 273.12V271.12L595.547 272.12Z" fill="black"/>
<path d="M399.547 282.12C402.312 284.617 405.607 286.718 407.369 290.123C408.064 291.466 408.127 295.001 409.527 295.774C412.821 297.593 413.348 289.678 412.789 288.135C410.679 282.308 404.759 282.135 399.547 282.12Z" fill="white"/>
<path d="M777.484 283.236L778.61 285.004L777.484 283.236ZM637.963 284.751L638.275 290.199L637.963 284.751ZM783.185 286.736C779.851 287.261 776.4 291.457 773.547 293.193C767.64 296.789 761.067 299.52 754.547 301.776C726.005 311.651 695.808 313.328 666.547 306.015C657.752 303.817 648.676 301.449 640.547 297.301C639.862 296.951 632.754 292.494 632.754 294.608C632.754 297.369 638.565 299.77 640.547 300.731C648.948 304.804 658.443 307.657 667.547 309.695C700.114 316.984 733.454 314.192 764.547 302.058C770.464 299.749 776.66 296.702 781.437 292.451C782.072 291.886 786.796 286.168 783.185 286.736ZM765.833 288.726V290.924V288.726ZM652.837 292.465L653.667 296.775L652.837 292.465Z" fill="black"/>
<path d="M330.547 335.12C323.718 320.685 308.156 301.594 292.547 296.707C287.629 295.167 278.858 289.733 275.299 296.143C272.691 300.84 284.612 309.051 287.457 312.12C292.629 317.702 296.055 326.769 301.937 331.378C307.678 335.877 323.396 334.972 330.547 335.12Z" fill="#FECD00"/>
<path d="M746.479 295.441L747.208 297.514L746.479 295.441Z" fill="black"/>
<path d="M308.547 301.121C314.072 308.965 321.573 315.423 327.417 323.121C330.139 326.708 332.81 332.787 336.757 335.092C346.184 340.598 366.656 338.237 377.547 339.291C382.483 339.768 399.91 344.216 403.519 340.347C405.34 338.395 404.644 333.615 404.971 331.121C406.104 322.498 406.454 313.766 407.547 305.121C400.678 307.919 392.996 310.154 386.652 304.726C384.454 302.845 382.22 295.887 379.245 295.856C372.929 295.79 364.198 301.772 357.547 303.026C340.855 306.173 325.085 304.237 308.547 301.121Z" fill="url(#paint1_linear_277_121)"/>
<path d="M672.427 296.466L673.261 301.774L672.427 296.466Z" fill="black"/>
<path d="M304.547 336.12C305.765 340.348 308.143 348.563 311.965 351.092C318.652 355.517 333.677 353.476 341.547 354.405C373.792 358.212 406.308 359.589 438.547 363.405C449.188 364.665 459.885 365.223 470.547 366.289C473.597 366.594 479.985 368.618 482.519 366.092C484.323 364.295 485.806 354.541 483.189 353.348C470.266 347.462 449.594 350.534 435.547 348.696C432.402 348.284 423.507 351.64 423.516 351.654C419.462 345.821 425.386 333.064 424.403 326.12C423.646 320.777 419.646 316.71 419.297 311.12C419.128 308.405 421.405 297.273 416.417 297.662C412.457 297.97 410.928 302.912 410.641 306.121C409.718 316.458 409.377 326.817 407.971 337.12C407.664 339.365 407.923 347.555 405.272 348.493C404.32 348.83 401.857 345.533 400.4 345.268C393.697 344.051 386.356 343.94 379.547 343.29C355.151 340.959 328.39 341.797 304.547 336.12Z" fill="white"/>
<path d="M696.427 298.296L697.667 303.774L696.427 298.296ZM720.022 298.465L721.157 302.49L720.022 298.465ZM779.007 308.465L780.087 312.775L779.007 308.465ZM641.427 312.296L643.002 319.774L641.427 312.296ZM768.435 312.291L769.917 315.949L768.435 312.291ZM783.394 315.292C776.185 318.192 770.093 324.459 762.547 327.516C734.897 338.717 703.787 342.09 674.547 335.909C664.148 333.711 653.161 330.952 643.547 326.335C642.193 325.684 635.117 320.647 633.893 322.277C632.157 324.589 640.224 328.601 641.547 329.23C651.874 334.137 663.318 337.467 674.547 339.506C706.346 345.278 742.313 342.503 771.547 327.85C775.671 325.783 780.171 323.296 783.394 319.94C784.507 318.782 787.425 313.67 783.394 315.292ZM746.042 318.75L747.218 323.199L746.042 318.75ZM665.427 320.296L666.667 325.774L665.427 320.296ZM688.092 322.466C686.626 323.36 687.296 328.79 689.258 328.199C691.525 327.515 690.155 321.206 688.092 322.466ZM714.456 323.296L716.638 328.944L714.456 323.296Z" fill="black"/>
<path d="M219.547 343.12C214.32 336.791 203.74 327.273 195.547 325.994C187.743 324.776 176.295 329.51 184.25 338.817C190.079 345.636 211.223 343.12 219.547 343.12Z" fill="white"/>
<path d="M765.429 339.466L767.051 345.774L765.429 339.466ZM779.479 339.232L780.207 340.838L779.479 339.232ZM645.275 342.291L646.101 345.779L645.275 342.291ZM748.095 342.466C746.137 343.631 747.698 351.084 750.076 349.774C752.432 348.477 750.371 341.111 748.095 342.466ZM666.964 348.461L668.128 351.779L666.964 348.461ZM718.001 348.466C715.732 349.654 716.575 356.771 719.091 354.944C720.816 353.691 720.667 347.07 718.001 348.466ZM694.658 353.232L695.948 354.838L694.658 353.232Z" fill="black"/>
<path d="M314.496 357.01C312.776 359.022 315.692 364.068 316.38 366.121C319.466 375.325 321.881 384.628 323.899 394.121C325.163 400.068 325.173 406.367 327.316 412.121C328.66 415.732 332.584 419.139 332.556 423.121C332.5 431.268 320.89 431.882 325.491 441.121C334.851 459.913 353.377 455.489 369.547 451.765C375.894 450.303 384.956 448.903 388.917 443.056C390.999 439.984 390.438 433.857 385.686 433.681C381.829 433.538 379.322 446.457 372.908 446.343C370.685 446.304 380.645 435.249 379.811 432.538C379.008 429.927 373.693 429.039 371.547 427.811C364.791 423.945 362.443 413.006 356.936 410.167C354.117 408.714 339.356 419.12 338.089 416.477C337.181 414.585 344.47 412.174 345.547 411.709C351.107 409.307 367.77 401.259 365.913 393.274C365.039 389.516 357.731 386.631 355.459 383.121C351.311 376.711 350.236 363 343.394 359.01C339.341 356.646 331.22 357.477 326.547 356.987C323.804 356.699 316.665 354.473 314.496 357.01Z" fill="#FECD00"/>
<path d="M325.491 441.12C320.89 431.881 332.5 431.267 332.556 423.12L338.089 416.476C339.356 419.119 354.117 408.713 356.936 410.166C362.443 413.005 364.791 423.944 371.547 427.81C373.693 429.038 379.008 429.926 379.811 432.537C380.645 435.248 370.685 446.303 372.908 446.342C379.322 446.456 381.829 433.537 385.686 433.68C390.438 433.856 390.999 439.983 388.917 443.055C384.956 448.902 375.894 450.302 369.547 451.764C353.377 455.488 334.851 459.912 325.491 441.12Z" fill="white"/>
<path d="M500.656 356.873C491.815 360.551 500.532 373.529 508.492 369.762C518.886 364.843 510.178 352.912 500.656 356.873Z" fill="black"/>
<path d="M528.547 357.12C529.338 360.245 528.465 368.998 530.578 371.096C533.238 373.739 542.007 372.986 545.547 373.159C557.173 373.724 568.957 375.182 580.547 376.29C630.419 381.055 680.527 387.37 730.547 390.155C744.79 390.949 759.423 392.288 773.547 394.25C778.116 394.885 786.261 396.955 789.685 392.686C795.459 385.49 785.051 380.277 779.547 379.009C763.741 375.368 745.762 377.32 729.547 375.405C662.914 367.539 595.431 362.399 528.547 357.12ZM502.714 360.232C499.204 362.833 503.814 367.394 506.94 365.074C510.386 362.516 506.005 357.792 502.714 360.232Z" fill="white"/>
<path d="M783.55 360.466C781.031 361.348 768.835 373.557 774.625 372.154C778.212 371.285 781.882 368.048 783.955 365.109C784.66 364.111 786.835 359.316 783.55 360.466ZM314.547 420.12L321.547 416.12L314.547 420.12Z" fill="black"/>
<path d="M315.492 436.693C306.332 437.858 297.988 442.004 288.547 442.116C285.622 442.151 278.82 440.852 276.579 443.148C274.603 445.172 276.295 449.776 276.744 452.12C278.124 459.337 278.104 470.935 285.59 474.802C289.657 476.903 295.126 476.12 299.547 476.12C311.03 476.119 324.361 476.335 335.547 473.616C341.992 472.049 351.919 459.244 339.771 458.872C337.427 458.8 327.563 469.863 324.379 466.929C321.468 464.248 333.716 459.724 333.795 457.16C333.869 454.771 331.075 453.16 329.528 451.795C325.738 448.45 320.439 436.064 315.492 436.693Z" fill="white"/>
<path d="M334.547 436.12C336.72 440.429 341.436 442.913 344.547 438.12L334.547 436.12ZM397.68 441.466C395.829 442.736 394.918 449.818 391.546 452.439C385.264 457.323 377.201 460.864 369.547 462.962C367.096 463.633 360.425 463.79 359.299 466.536C357.589 470.704 368.275 468.048 369.547 467.692C378.772 465.104 388.179 461.045 395.542 454.794C398.095 452.627 401.243 449.76 401.251 446.125C401.253 444.966 399.705 440.076 397.68 441.466ZM286.547 456.12C287.282 462.658 291.341 464.898 297.547 463.12V462.12C292.2 461.946 290.039 459.926 286.547 456.12Z" fill="black"/>
<defs>
<linearGradient id="paint0_linear_277_121" x1="-11.5" y1="295.5" x2="604.5" y2="284" gradientUnits="userSpaceOnUse">
<stop stop-color="#7BF2E8"/>
<stop offset="1" stop-color="#E2E2F7"/>
</linearGradient>
<linearGradient id="paint1_linear_277_121" x1="306.542" y1="319.818" x2="413.773" y2="315.516" gradientUnits="userSpaceOnUse">
<stop stop-color="#7BF2E8"/>
<stop offset="1" stop-color="#E2E2F7"/>
</linearGradient>
</defs>
</svg>
