<svg width="50" height="50" viewBox="0 0 50 50" fill="none" xmlns="http://www.w3.org/2000/svg">
<rect width="50" height="50" rx="20" fill="url(#paint0_linear_174_73)"/>
<path d="M21.1172 21.9309L21.1172 15.5366" stroke="#130F26" stroke-width="1.5" stroke-linecap="round" stroke-linejoin="round"/>
<path fill-rule="evenodd" clip-rule="evenodd" d="M21.1163 25.9431C19.0746 25.9431 18.3946 26.6158 18.3946 28.632C18.3946 30.6482 19.0746 31.3209 21.1163 31.3209C23.1581 31.3209 23.8381 30.6482 23.8381 28.632C23.8381 26.6158 23.1581 25.9431 21.1163 25.9431Z" stroke="#130F26" stroke-width="1.5" stroke-linecap="round" stroke-linejoin="round"/>
<path d="M31.6059 24.9272L31.6059 31.3206" stroke="#130F26" stroke-width="1.5" stroke-linecap="round" stroke-linejoin="round"/>
<path fill-rule="evenodd" clip-rule="evenodd" d="M31.6072 20.915C33.6481 20.915 34.329 20.2423 34.329 18.2261C34.329 16.209 33.6481 15.5364 31.6072 15.5364C29.5654 15.5364 28.8854 16.209 28.8854 18.2261C28.8854 20.2423 29.5654 20.915 31.6072 20.915Z" stroke="#130F26" stroke-width="1.5" stroke-linecap="round" stroke-linejoin="round"/>
<defs>
<linearGradient id="paint0_linear_174_73" x1="-1.01232" y1="26.0123" x2="53.213" y2="25" gradientUnits="userSpaceOnUse">
<stop stop-color="#B3E2FD"/>
<stop offset="1" stop-color="#E2F6F7"/>
</linearGradient>
</defs>
</svg>
