<svg width="30" height="30" viewBox="0 0 30 30" fill="none" xmlns="http://www.w3.org/2000/svg">
<path fill-rule="evenodd" clip-rule="evenodd" d="M0 15C0 6.71573 6.71573 0 15 0C23.2843 0 30 6.71573 30 15C30 23.2843 23.2843 30 15 30C6.71573 30 0 23.2843 0 15ZM20.8568 22.7629C22.2618 22.7629 23.3809 21.8585 24 19.6916L22.9524 19.2871C22.4285 20.7389 21.976 21.0015 21.619 21.0015C21.2617 21.0015 21.071 20.7636 21.071 20.2876C21.071 20.0733 21.119 19.8357 21.1901 19.5494L21.9523 16.8125C22.1428 16.1698 22.2142 15.6008 22.2142 15.0772C22.2142 13.0295 20.9759 11.9631 19.4758 11.9631C18.071 11.9631 16.6422 13.2348 15.928 14.5685L16.4517 12.1841H12.3799L11.8084 14.2985H13.7133L12.5404 18.984C11.6191 21.0318 9.92691 21.0539 9.7146 21.0063C9.3659 20.9277 9.14292 20.7975 9.14292 20.3446C9.14292 20.083 9.1905 19.7121 9.30958 19.2594L11.0956 12.1841H6.57144L5.99995 14.2985H7.88097L6.66659 19.2446C6.57144 19.6494 6.52367 20.0716 6.52367 20.4282C6.52367 21.8333 7.28565 22.7607 8.90485 22.7607C10.2479 22.7607 11.3366 21.9524 12.1204 20.6647L11.6417 22.5642H14.3086L15.8326 16.4729C16.2135 14.925 16.9517 14.1433 18.071 14.1433C18.952 14.1433 19.4997 14.6912 19.4997 15.5958C19.4997 15.8579 19.4758 16.1433 19.3806 16.453L18.5947 19.2627C18.4756 19.6675 18.4282 20.0727 18.4282 20.4533C18.4282 21.7872 19.2138 22.7629 20.8568 22.7629ZM8.40499 9.09498C8.40499 8.19047 9.14303 7.5 10.0241 7.5C10.9053 7.5 11.6433 8.19047 11.6433 9.09498C11.6433 10.0002 10.9053 10.6907 10.0241 10.6907C9.14303 10.6907 8.40499 10.0002 8.40499 9.09498Z" fill="white"/>
</svg>
