<svg width="757" height="715" viewBox="0 0 757 715" fill="none" xmlns="http://www.w3.org/2000/svg">
<path d="M240.5 386.5L235.196 365.074L226.591 314.592L240.933 252.065L265.6 202.731L288.546 171.754L318.949 144.218L343.616 132.172V148.808L348.779 157.986H359.105L380.33 144.218L522.595 101.768V93.1636L541.525 97.1791L566.192 116.683L583.402 137.335L597.743 157.986L611.51 182.079C615.908 191.258 624.934 210.188 625.852 212.483C626.77 214.777 628.529 229.119 629.294 236.002V266.406L625.852 295.088L611.51 314.592L594.301 321.476L578.812 326.639H555.866L532.92 321.476L495.633 303.119L464.082 275.584L452.036 266.406L470.966 341.554L483.013 396.624L487.602 424.733V450.547V472.346L483.013 495.292V526.843C483.013 529.137 480.336 551.892 478.997 562.983V597.402L462.5 606.5V638.5L426 668L372.872 660V629.54L332 653.5L290.5 628L282 611.5H265L239 558.5C239 558.5 222.438 517.965 220 490.5C217.589 463.347 226.5 421 226.5 421L240.5 386.5Z" fill="white"/>
<path d="M300.598 350.159C299.451 349.011 325.838 268.127 371.73 284.189C388.366 290.499 402.708 325.492 425.654 292.22C444.584 257.801 464.088 225.103 469.251 180.932C467.53 180.932 467.53 167.738 439.421 169.459C437.7 168.312 388.366 169.459 409.591 104.637C446.879 23.752 480.724 54.1556 480.724 54.1556C480.724 54.1556 502.001 67.9315 518.419 94.8845C522.846 102.153 525.129 106.363 528.337 115.536C531.658 125.034 501.906 116.556 503.096 128.73C503.4 131.841 501.942 134.709 499.85 137.622L489.902 164.87C492.792 172.81 479.223 184.996 487.034 194.7C496.395 206.329 526.859 215.395 523.748 222.808C522.702 224.377 490.675 342.246 412.46 390.026C404.868 394.663 400.855 382.578 392.379 385.725C385.271 387.017 369.42 380.842 345.337 378.841C340.13 378.409 338.665 369.621 332.717 369.663C327.888 369.697 318.539 378.69 314.36 377.56C305.226 375.09 298.863 368.259 300.598 350.159Z" fill="#FDCC00"/>
<path d="M500.229 134.466C489.134 137.364 480.486 162.352 488.756 171.18V172.327C480.515 178.45 478.207 188.701 484.133 197.522C489.495 205.502 500.28 208.29 508.26 212.869C516.037 217.33 522.772 224.067 528.568 230.839C536.59 240.213 542.429 251.681 547.268 262.964C550.413 270.3 552.574 279.461 558.742 284.762C560.709 276.887 555.894 267.876 552.833 260.669C544.652 241.405 534.767 223.011 517.439 210.37C509.586 204.642 497.943 202.367 491.503 195.061C483.726 186.236 490.135 178.183 500.229 178.064L501.377 173.474C495.531 168.923 492.087 166.352 493.346 158.56H502.524V152.823L495.64 150.528C496.495 139.231 504.809 142.419 512.85 140.203C511.717 136.214 504.905 130.859 506.491 126.738C508.592 121.279 519.911 126.121 524.318 124.435C538.184 119.131 528.258 106.562 525.47 97.7527C544.632 99.32 559.52 115.686 571.866 128.925C603.032 162.342 628.499 205.579 628.726 252.638C628.783 264.397 629.11 277.066 624.753 288.204C614.611 314.131 586.397 326.141 559.889 323.576C533.868 321.057 515.719 306.218 493.346 295.088L489.904 301.972C503.959 311.454 518.458 320.266 534.648 325.658C545.987 329.435 557.194 330.659 569.067 330.654C610.956 330.638 635.611 300.891 635.611 260.669C635.611 214.715 618.686 173.521 589.942 137.908C577.257 122.19 562.181 104.944 543.827 95.768C537.95 92.8303 526.067 87.8102 520.585 93.9124C513.851 101.408 527.553 109.215 523.385 115.743C517.718 124.622 498.782 109.599 499.138 128.701C499.178 130.805 499.64 132.471 500.229 134.466ZM430.244 148.234L434.833 101.195C423.127 104.714 424.462 124.718 424.509 134.466C424.535 140.035 424.22 146.254 430.244 148.234ZM386.647 163.149V165.443L388.941 167.738L399.267 160.854V157.412L398.12 156.265L386.647 163.149ZM399.267 213.63C405.348 231.516 429.788 246.087 441.717 260.669L446.306 251.491L415.329 220.514C410.396 215.589 406.387 210.062 399.267 213.63ZM339.607 323.771L344.197 324.918C349.519 314.814 355.691 306.654 364.848 299.677V295.088C352.511 296.889 342.827 312.619 339.607 323.771ZM296.01 324.918L294.863 329.507C300.426 332.154 316.408 344.177 305.059 350.082C300.202 352.609 291.129 349.056 285.684 349.011L284.537 350.159V354.748C292.263 357.197 304.633 360.828 311.752 355.06C325.497 343.926 306.313 327.892 296.01 324.918Z" fill="black"/>
<path fill-rule="evenodd" clip-rule="evenodd" d="M442.865 28.9149L440.57 14H444.012L446.306 27.7676L445.159 28.9149H442.865ZM327.8 71.1531C327.911 70.8412 328.023 70.5294 328.135 70.2177C320.534 67.9809 309.465 60.1834 314.573 50.8331C315.94 48.3329 318.339 46.7193 320.72 45.1185C322.046 44.2271 323.365 43.3397 324.498 42.3054C337.922 30.0419 347.936 22.4611 367.143 24.5249C381.312 26.0473 394.032 36.0995 400.648 48.419C401.853 50.6606 402.754 53.2174 403.662 55.7922C405.043 59.71 406.438 63.6696 408.939 66.6235C411.275 69.3829 414.708 71.0452 418.056 72.6663C419.488 73.3598 420.904 74.0458 422.213 74.8069C409.43 98.8241 399.837 118.649 406.151 145.939C404.291 145.939 402.206 145.79 400.042 145.634C395.024 145.273 389.577 144.882 385.5 146.254C382.228 147.355 378.232 150.207 373.936 153.274C362.906 161.146 349.9 170.43 342.108 155.112C340.835 152.611 340.785 149.829 340.761 147.087C340.724 143.166 341.189 139.457 341.902 135.614C311.591 149.96 293.172 167.477 275.592 196.421C274.704 197.882 273.448 199.691 272.051 201.703C267.475 208.293 261.395 217.049 261.869 222.804C262.202 226.854 266.798 230.099 270.267 232.549C270.859 232.967 271.418 233.361 271.917 233.733C282.097 241.309 294.769 248.439 307.483 250.344C307.459 241.763 304.236 234.141 301.043 226.593C296.855 216.694 292.721 206.921 295.928 195.273C298.108 187.353 304.341 182.463 310.489 177.641C316.822 172.672 323.065 167.775 324.693 159.707L325.84 158.56H328.135C330.933 168.844 322.999 175.545 315.007 182.296C309.481 186.963 303.928 191.653 301.872 197.568C298.491 207.292 303.014 216.618 307.518 225.905C310.349 231.742 313.173 237.564 314.023 243.46C315.205 251.67 313.366 259.561 311.537 267.406C309.928 274.312 308.326 281.182 308.8 288.205C309.244 294.767 314.699 299.167 320.103 301.972L317.809 308.856C302.122 305.136 277.043 280.468 275.359 264.111L301.747 288.205L307.483 258.375C290.662 254.894 279.632 246.576 267.354 237.318C264.04 234.819 260.636 232.252 257.002 229.692C255.334 233.759 253.622 237.811 251.912 241.86C240.957 267.794 230.046 293.625 230.762 322.624C231.154 338.511 234.587 353.149 238.135 368.277C238.688 370.637 239.245 373.009 239.793 375.399L291.421 368.516C295.585 361.712 306.657 364.392 305.816 373.087C304.94 382.151 293.82 382.329 291.421 374.252L267.328 373.105C285.464 383.882 282.201 411.701 258.149 402.935C282.82 426.544 324.822 450.394 360.259 445.069C384.585 441.413 418.41 413.041 400.414 386.872L391.236 393.756L386.647 392.609L385.5 385.725C378.592 384.609 375.449 387.358 370.796 391.426C370.358 391.81 369.907 392.204 369.437 392.609L365.995 391.462C362.469 376.792 350.211 375.971 344.197 389.167H339.608C339.332 388.014 339.159 386.792 338.985 385.562C338.714 383.644 338.44 381.709 337.772 379.994C335.138 373.221 328.753 372.383 323.591 376.808C322.062 378.12 320.047 380.598 317.756 383.417C309.776 393.233 298.442 407.175 292.568 390.314C293.955 390.038 295.409 390.064 296.859 390.091C299.353 390.137 301.835 390.182 303.935 388.683C306.182 387.077 308.921 383.92 311.956 380.421C321.402 369.533 333.722 355.331 343.049 374.252C353.795 371.409 364.537 369.729 370.585 381.136C377.167 376.791 381.43 378.021 387.4 379.743C388.599 380.089 389.867 380.454 391.236 380.798C393.533 381.376 395.707 381.737 397.73 382.073C405.831 383.418 411.5 384.359 412.835 397.198C414.929 417.356 398.153 438.47 380.91 446.532C380.91 480.269 380.044 513.84 378.571 547.494C378.415 551.043 377.471 555.446 376.475 560.085C374.535 569.125 372.402 579.063 375.539 585.338C378.942 592.145 387.294 594.227 394.375 595.992C395.265 596.214 396.135 596.431 396.973 596.651C414.904 601.374 434.644 604.149 453.19 603.695C460.915 603.505 470.381 602.136 475.387 595.56C479.936 589.585 478.545 581.637 477.297 574.504C477.053 573.111 476.815 571.75 476.627 570.44C475.033 559.305 475.247 546.073 476.331 534.874C477.244 525.445 478.911 516.116 480.579 506.785C482.518 495.935 484.457 485.083 485.211 474.067C488.38 427.809 480.094 377.995 465.81 334.097L471.547 329.507C472.307 332.791 473.07 336.066 473.831 339.333C482.647 377.18 491.232 414.029 492.181 453.416C492.708 475.247 489.276 497.276 485.879 519.074C484.636 527.055 483.397 535.006 482.359 542.905C481.566 548.945 482.49 556.544 483.448 564.414C485.811 583.84 488.375 604.919 465.81 608.301L462.369 658.782L448.601 664.519L463.516 662.224L466.958 670.255L456.632 675.992L469.252 672.55L472.694 679.434L468.105 682.876C482.374 680.277 496.526 700.318 481.766 709.857C474.111 714.803 462.039 714.986 453.19 715C434.075 715.031 414.47 713.605 395.825 709.114C395.125 708.946 394.401 708.777 393.659 708.605C387.023 707.063 378.998 705.199 374.776 699.869C371.602 695.863 371.66 690.818 371.717 685.95C371.725 685.304 371.732 684.66 371.732 684.023C352.112 695.474 327.887 706.825 305.189 710.067C286.079 712.796 280.397 699.381 289.126 684.023L296.01 686.317L290.274 680.581L293.716 672.55L302.894 675.992L294.863 669.108L296.01 657.635L305.189 662.224L308.63 661.077L296.01 654.193L278.801 615.185C261.243 619.365 255.848 605.944 250.327 592.211C248.75 588.287 247.162 584.338 245.278 580.766C233.601 558.636 224.294 535.464 219.669 510.781C218.638 505.28 218.294 499.563 217.95 493.847C217.522 486.727 217.094 479.61 215.339 472.92C214.238 468.722 211.524 465.197 208.766 461.616C206.009 458.035 203.208 454.397 201.932 449.974L168.66 466.036V468.331C184.418 475.684 188.921 500.683 175.331 512.464C162.631 523.473 149.23 512.385 147.83 498.16C147.419 493.99 147.819 489.592 148.88 485.54C150.452 479.539 153.762 474.558 157.187 469.478C126.569 462.188 100.396 496.758 99.822 524.548C116.563 521.44 149.5 536.502 133.651 557.769C117.317 579.689 94.822 549.466 94.0855 532.579C78.4363 537.917 62.0724 551.865 57.3719 568.146C61.6433 568.907 65.3996 570.42 68.8277 573.182C71.4275 575.28 73.6498 577.828 75.2503 580.766C87.1718 602.654 54.6001 613.135 48.9744 588.797C48.0166 584.654 48.0875 580.316 48.1573 576.043C48.1755 574.934 48.1935 573.83 48.1935 572.735C23.5596 579.728 0.937733 603.793 6.10815 631.247C7.10629 636.546 10.0697 640.811 13.0517 645.102C14.082 646.585 15.1146 648.071 16.0691 649.604C1.3604 649.824 -1.37649 624.686 0.539848 614.038C4.79059 590.419 25.8308 568.073 50.4881 566.998C57.5108 546.374 74.3439 533.355 94.0855 525.696C94.0889 489.57 125.357 455.17 162.923 464.889C171.792 453.995 186.646 448.472 199.637 444.237C198.415 415.784 206.055 390.941 234.056 377.694C206.624 315.809 236.38 245.01 269.402 191.831C287.383 162.875 308.31 136.767 343.049 128.73C341.099 125.164 338.099 122.92 335.058 120.646C332.78 118.942 330.48 117.222 328.582 114.916C317.115 100.979 322.5 85.947 327.8 71.1531ZM421.066 47.2717L407.298 34.6514C413.188 33.5657 417.47 37.4093 421.675 41.1846C422.237 41.6891 422.798 42.1923 423.36 42.6825V44.9771L421.066 47.2717ZM250.118 393.756L242.087 379.989L253.56 376.547L251.265 393.756H250.118ZM261.591 376.547C254.474 383.685 253.599 402.435 268.457 399.783C284.844 396.857 269.435 379.268 261.591 376.547ZM219.141 440.795L205.373 443.09C203.615 420.824 210.268 389.559 236.35 383.43L219.141 440.795ZM224.877 440.795L239.792 392.609H242.087C262.112 427.417 303.416 440.469 338.998 451.713C339.585 451.899 340.171 452.084 340.754 452.268C327.719 477.043 325.39 499.441 336.491 525.696C338.317 530.015 340.279 534.287 342.241 538.561C346.012 546.771 349.784 554.986 352.605 563.556C352.796 564.136 353.014 564.755 353.242 565.401C354.664 569.437 356.475 574.572 354.474 578.259C352.26 582.335 346.376 585.179 341.623 587.477C340.481 588.029 339.405 588.55 338.46 589.048C322.733 597.346 305.392 603.543 287.979 607.15C286.804 607.394 285.371 607.785 283.794 608.217C277.723 609.878 269.502 612.127 265.526 608.755C261.873 605.658 259.472 598.726 257.226 592.245C255.866 588.318 254.563 584.556 253.073 581.913C234.506 548.974 222.582 512.094 222.582 474.067C253.101 479.729 256.22 442.162 224.877 440.795ZM216.846 461.447L207.668 448.827L217.993 447.679L216.846 461.447ZM223.73 446.532L222.582 468.331C246.67 472.799 248.536 446.74 223.73 446.532ZM347.638 452.268L372.879 448.827C377.872 455.417 376.346 467.928 375.046 478.584C374.518 482.912 374.027 486.934 374.026 490.129C374.02 505.567 372.584 520.985 371.152 536.368C369.806 550.819 368.464 565.24 368.311 579.619C368.259 584.529 369.4 588.95 370.555 593.426C371.765 598.114 372.991 602.863 372.879 608.301H371.731L360.258 583.061C366.26 571.363 355.904 551.318 348.131 536.273C345.824 531.808 343.745 527.784 342.388 524.548C331.317 498.144 334.523 476.909 347.638 452.268ZM155.337 484.393C157.013 479.682 159.907 475.7 162.923 471.772C175.383 477.751 184.79 501.182 168.642 509.427C153.551 517.132 152.283 492.976 155.337 484.393ZM99.8214 530.285C100.666 540.628 112.812 568.605 127.036 555.161C144.145 538.99 110.526 529.447 99.8214 530.285ZM55.0414 577.151C55.0591 576.058 55.0767 574.967 55.0767 573.882C58.4239 574.686 61.4695 575.64 64.2333 577.805C82.5419 592.14 57.0379 606.982 55.1847 585.355C54.9526 582.646 54.9971 579.891 55.0414 577.151ZM291.42 625.511L285.684 614.038L322.398 602.724L354.522 587.65L371.731 624.363C368.472 625.955 364.804 628.396 360.909 630.988C351.214 637.441 340.119 644.825 330.45 642.354C325.858 641.181 323.854 636.734 321.836 632.255C320.376 629.015 318.909 625.759 316.449 623.714C310.524 618.789 303.33 621.375 296.705 623.757C294.888 624.41 293.114 625.047 291.42 625.511ZM377.468 655.34L379.763 597.975C406.23 606.438 432.407 609.448 460.073 609.448L456.632 630.1C455.657 630.1 454.659 630.085 453.65 630.069C444.934 629.936 435.298 629.79 431.401 639.283C430.374 641.787 430.23 644.666 430.088 647.528C429.835 652.613 429.585 657.643 424.383 660.419C416.511 664.623 403.89 661.379 392.571 658.47C386.975 657.031 381.696 655.674 377.468 655.34Z" fill="black"/>
<path d="M336.023 69L333.728 80.473L329.139 82.7676C329.139 87.2819 328.7 92.0638 329.383 96.5352C332.226 115.132 350.036 112.82 363.558 116.039V118.334L349.79 121.776C349.625 129.79 344.96 140.308 348.347 148.011C353.871 160.571 374.279 142.393 379.62 137.838L375.364 112.597L381.915 88.5041L380.767 87.3568C375.994 88.095 373.679 89.9015 371.589 94.2406H367L365.853 93.0933L370.442 73.5892L336.023 69Z" fill="white"/>
<path d="M338.147 78L343.884 82.5892L337 95.2095L343.884 97.5041L340.442 94.0622C344.782 87.3822 348.854 80.1859 338.147 78ZM350.768 83.7365L359.946 84.8838L358.799 81.4419L350.768 83.7365ZM351.915 86.0311V90.6203L356.504 89.473L355.357 86.0311H351.915ZM346.178 100.946V107.83L350.768 106.682L349.62 100.946H346.178Z" fill="black"/>
<path d="M351.915 90.6203V86.0311H355.357L356.504 89.473L351.915 90.6203Z" fill="black"/>
<path d="M334.057 83.0312V87.6204L338.646 86.4731L337.499 83.0312H334.057Z" fill="black"/>
<path d="M334.057 87.6204V83.0312H337.499L338.646 86.4731L334.057 87.6204Z" fill="black"/>
<path fill-rule="evenodd" clip-rule="evenodd" d="M685.205 144.583C708.015 145.133 731.325 144.033 753.135 151.833C754.435 152.293 755.865 151.623 756.335 150.323C756.795 149.023 756.125 147.593 754.825 147.123C732.505 139.143 708.665 140.143 685.325 139.583C683.945 139.543 682.795 140.643 682.765 142.023C682.725 143.403 683.825 144.543 685.205 144.583Z" fill="#FDCC00"/>
<path fill-rule="evenodd" clip-rule="evenodd" d="M683.155 111.466C690.265 104.924 698.025 100.023 707.405 97.5938C708.745 97.2478 709.545 95.8827 709.205 94.5467C708.855 93.2107 707.485 92.4077 706.155 92.7537C695.955 95.3937 687.505 100.676 679.775 107.785C678.755 108.719 678.685 110.302 679.625 111.318C680.555 112.333 682.145 112.4 683.155 111.466Z" fill="#FDCC00"/>
<path fill-rule="evenodd" clip-rule="evenodd" d="M663.376 40.0426C666.636 28.8676 673.056 20.1256 682.896 13.8126C684.056 13.0676 684.396 11.5197 683.646 10.3587C682.906 9.19767 681.356 8.85964 680.196 9.60464C669.306 16.5946 662.186 26.2686 658.576 38.6416C658.186 39.9656 658.956 41.3557 660.276 41.7417C661.606 42.1287 662.996 41.3666 663.376 40.0426Z" fill="#FDCC00"/>
<path fill-rule="evenodd" clip-rule="evenodd" d="M551.025 24.8766C549.085 27.1596 547.345 29.6196 545.865 32.2386C545.205 33.4046 544.045 35.8826 543.865 38.0076C543.665 40.2716 544.435 42.1816 546.415 43.1876C549.045 44.5216 551.145 44.3826 552.765 43.5756C554.325 42.8006 555.545 41.2776 556.315 39.2356C557.785 35.3326 557.565 29.3676 556.795 25.9636C558.865 23.8276 561.135 21.8906 563.565 20.1686C581.665 7.34356 608.215 12.0726 628.645 31.2486C635.795 37.9626 639.235 52.0626 641.025 67.2756C643.815 90.9626 642.225 117.419 642.005 125.17C641.955 127.084 642.135 128.22 642.235 128.447C642.705 129.563 643.535 129.853 644.115 129.963C644.955 130.113 645.625 129.953 646.165 129.673C646.895 129.289 647.495 128.613 647.775 127.57C647.925 126.994 647.965 126.192 647.945 125.337C647.925 124.744 647.805 124.096 647.925 123.671C648.705 120.949 649.645 118.291 650.565 115.614C653.635 106.615 657.605 98.1816 662.015 89.7586C676.025 62.9946 689.575 34.7156 712.545 14.3246C713.575 13.4096 713.675 11.8276 712.755 10.7956C711.845 9.76358 710.265 9.66955 709.225 10.5856C685.795 31.3796 671.875 60.1456 657.585 87.4396C653.835 94.6046 650.395 101.78 647.535 109.285C647.825 96.0086 647.715 77.6316 645.285 61.3716C643.125 46.9106 639.015 34.1306 632.065 27.6036C609.685 6.59656 580.495 2.03958 560.675 16.0896C558.555 17.5936 556.535 19.2476 554.655 21.0416C544.285 2.31661 522.085 -5.18844 502.465 3.76756C501.205 4.34056 500.655 5.82457 501.225 7.07957C501.805 8.33457 503.285 8.8886 504.545 8.3156C522.225 0.245596 542.275 7.44757 551.025 24.8766ZM552.475 31.1456C551.665 32.2896 550.915 33.4756 550.215 34.7016C549.845 35.3596 549.205 36.6246 548.935 37.8626C548.875 38.1526 548.865 38.6066 548.865 38.8166C549.555 39.1566 550.095 39.3206 550.535 39.0996C551.085 38.8276 551.365 38.1876 551.635 37.4726C552.315 35.6786 552.535 33.3006 552.475 31.1456Z" fill="#FDCC00"/>
</svg>
