<svg width="126" height="37" viewBox="0 0 126 37" fill="none" xmlns="http://www.w3.org/2000/svg">
<path d="M30.2152 1.37402H6.20862V9.23826H13.6589V30.7614H22.351V9.23826H30.2152V1.37402Z" fill="white" stroke="black"/>
<path d="M5.7947 8.8242V0.959961L0 6.34076V14.205H7.45033V36.1421H17.3841L22.7649 30.7613H13.6589V8.8242H5.7947Z" fill="black"/>
<path d="M115.066 29.9335V0.959961L109.685 5.92685V35.3143H118.377L124.172 29.9335H115.066Z" fill="black"/>
<path d="M108.444 0.959961H99.3378V29.9335H108.444V19.9997H115.48V29.9335H125V0.959961H115.48V10.8937H108.444V0.959961Z" fill="white" stroke="black"/>
<path d="M99.3377 29.9335V0.959961L93.9569 5.92685V35.3143H102.649L108.444 29.9335H99.3377Z" fill="black"/>
<path d="M69 30L68.5 0H67.5L62 4.46735V30V33.8548H70.6921L75.5 30H69Z" fill="black"/>
<path d="M50.5 29.5V0L46 4.92685V34.3143H54L58 29.5H50.5Z" fill="black"/>
<path d="M51 29L51 0.5H57.6452L68 16.5V0.5H75V29.5H69L57.6452 13.5L57.6452 29H51Z" fill="white" stroke="black"/>
</svg>
