<svg width="736" height="671" viewBox="0 0 736 671" fill="none" xmlns="http://www.w3.org/2000/svg">
<circle cx="346" cy="284" r="284" fill="url(#paint0_linear_174_69)"/>
<path d="M719.207 223.41C721.694 224.267 724.31 224.701 726.944 224.693C727.324 222.412 726.003 220.99 725.403 219.36C724.972 218.185 724.922 217.099 726.033 216.25C726.254 216.057 726.512 215.911 726.791 215.82C727.071 215.729 727.367 215.695 727.66 215.721C727.953 215.747 728.238 215.832 728.497 215.97C728.756 216.109 728.984 216.298 729.166 216.526C732.239 219.647 735.171 223.38 735.502 227.468C735.832 231.705 730.958 233.394 727.875 235.764C727.267 236.318 726.515 236.694 725.703 236.85C723.941 236.959 722.27 235.517 722.83 234.263C725.142 229.078 720.828 230.727 718.827 230.214C717.225 229.809 715.504 229.878 713.882 229.552C711.33 229.039 709.818 229.434 709.548 232.515C709.509 233.777 709.027 234.987 708.186 235.94C707.345 236.892 706.196 237.528 704.934 237.739C688.469 240.178 678.04 251.387 667.81 262.695C656.14 275.602 644.109 288.045 628.635 296.637C610.048 306.947 590.04 313.426 569.351 318.255C550.012 322.651 530.232 324.877 510.387 324.891C508.325 324.891 506.384 324.891 505.383 327.084C503.381 329.059 501.469 331.923 498.656 327.963C502.19 318.423 503.221 308.567 502.83 298.454C502.397 288.431 500.966 278.475 498.556 268.729C497.395 263.9 494.763 261.44 489.768 261.45C468.549 261.45 447.73 257.362 426.591 256.256C423.438 256.088 420.345 255.377 417.153 255.268C413.449 255.179 411.537 256.029 412.258 260.334C413.148 266.059 412.637 271.91 410.767 277.399C408.264 285.043 403.68 291.136 396.254 294.81C394.001 295.926 391.349 297.141 389.738 294.07C388.286 291.294 390.138 289.527 392.39 288.006C403.21 280.708 407.193 265.786 401.258 253.5C400.157 256.394 400.587 258.981 400.597 261.48C400.597 266.418 400.597 271.356 399.076 276.135C395.973 286.189 386.545 291.62 377.056 288.816C370.35 286.841 366.226 281.132 365.776 273.015C365.475 267.672 365.876 262.31 365.215 256.967C362.923 265.46 362.483 273.913 365.776 282.318C366.486 284.164 367.487 285.892 368.078 287.779C368.548 289.3 368.628 290.741 366.997 291.66C366.336 292.038 365.555 292.153 364.811 291.982C364.067 291.812 363.417 291.368 362.993 290.741C360.131 287.286 358.101 283.233 357.058 278.891C355.634 273.63 355.233 268.152 355.877 262.744C356.297 258.853 354.956 257.619 351.112 257.174C333.096 255.081 314.87 255.031 296.993 251.644C293.11 250.913 293.8 253.115 294.401 255.387C298.184 269.855 298.405 284.303 293.921 298.681C291.378 306.829 286.784 313.791 279.778 321.02C293.26 322.235 305.581 321.277 317.812 321.494C319.814 324.378 322.817 325.592 325.9 324.269C330.814 322.205 335.678 323.4 340.463 323.993C342.715 324.413 345.044 324.065 347.069 323.005C349.711 329.74 349.151 336.535 347.499 343.349C345.56 343.484 343.657 343.931 341.864 344.672C341.564 340.05 343.606 335.666 343.175 330.994C342.885 327.814 341.884 326.313 338.281 326.511C324.488 327.252 310.676 327.37 296.883 328.367C286.003 329.167 275.314 328.032 265.214 323.193C259.88 320.635 256.206 316.941 254.975 311.342C254.285 308.261 252.693 307.174 249.7 306.612C221.014 301.16 193.84 291.61 168.867 276.53C156.255 268.916 144.745 259.742 133.705 250.054C118.221 236.445 104.959 220.921 92.6676 204.508C87.543 197.664 80.3364 193.111 73.0198 188.776C69.2377 186.708 65.6236 184.353 62.21 181.734C54.0325 174.95 51.3801 166.299 54.3728 156.058C56.8951 155.89 58.2064 157.292 58.927 159.465C59.5276 162.368 58.927 165.39 59.7177 168.284C61.2291 174.278 65.7232 178.159 70.7277 180.441C88.4238 188.47 99.9342 202.829 111.765 217.158C130.732 240.159 152.802 259.93 178.606 275.187C195.461 285.132 214.018 291.245 233.025 295.827C247.569 299.462 262.296 302.34 277.145 304.449C283.251 305.268 284.332 304.814 286.053 298.82C290.567 283.187 289.717 267.642 285.052 252.157C284.242 249.481 282.38 248.701 279.948 248.207C272.941 246.736 265.935 245.244 258.929 243.773C241.993 240.119 228.151 230.698 214.228 221.346C204.449 214.778 194.63 208.241 185.202 201.209C177.895 195.758 171.019 189.773 166.635 181.517C162.411 173.617 162.131 164.729 160.719 156.176C160.289 153.579 160.109 150.913 158.848 148.552C157.587 146.192 156.195 146.271 154.974 148.661C154.569 149.383 154.304 150.174 154.194 150.992C153.193 159.771 148.248 166.565 142.923 173.162C139.32 177.646 137.058 182.327 139.4 188.173C140.121 189.981 139.901 191.837 137.969 192.923C136.037 194.01 134.456 193.091 132.964 191.837C129.661 188.973 128.58 183.137 130.512 178.011C131.418 175.708 132.583 173.511 133.985 171.464C140.451 163.84 145.736 155.722 147.277 145.521C147.509 143.44 148.477 141.507 150.011 140.062C151.546 138.616 153.548 137.752 155.665 137.62C159.158 137.255 163.212 140.247 165.103 144.533C166.034 146.636 166.835 148.809 166.445 151.189C167.446 156.7 168.447 162.191 169.297 167.721C170.879 178.584 177.785 186.04 185.822 192.706C203.344 207.144 222.239 219.877 242.244 230.727C254.515 237.423 268.267 239.487 281.86 242.163C306.272 246.973 331.044 248.632 355.757 250.814C358.119 251.022 361.001 252.177 362.132 248.839C362.733 247.062 357.919 241.926 355.587 241.926C352.577 241.928 349.598 241.33 346.829 240.168C345.456 239.598 344.178 238.829 343.035 237.887C339.242 234.658 335.708 218.6 337.8 214.107C338.341 212.951 339.132 211.44 340.163 211.075C345.167 209.307 346.438 204.853 348.79 200.962C351.835 195.92 355.3 191.137 359.15 186.662C364.815 180.105 376.726 178.871 386.054 183.611C387.078 184.242 388.232 184.641 389.432 184.777C390.632 184.914 391.847 184.785 392.991 184.401C402.379 181.438 408.344 184.085 413.229 192.696C414.95 195.708 416.322 195.373 418.103 192.538C423.889 183.334 431.446 181.616 440.934 187.423C442.696 188.509 443.206 188.193 444.337 186.84C449.712 180.431 456.648 177.369 464.756 180.184C468.663 181.447 472.167 183.699 474.916 186.716C477.664 189.733 479.562 193.41 480.42 197.377C480.752 199.421 481.885 201.254 483.573 202.483C490.319 207.48 491.01 217.711 485.004 225.533C479.589 232.574 472.773 238.065 464.075 240.879C455.868 243.526 448.241 242.134 441.395 237.107C439.483 235.705 438.302 235.349 436.27 236.9C434.486 238.28 432.406 239.238 430.189 239.702C427.971 240.166 425.676 240.123 423.478 239.576C420.726 238.944 419.074 239.467 417.673 241.768C416.152 244.287 413.91 246.193 410.216 248.681C419.626 248.826 429.023 249.436 438.372 250.508C457.559 252.74 476.847 253.728 496.104 255.16C509.079 256.204 522.134 254.69 534.509 250.706C555.078 244.05 575.857 238.006 594.954 227.597C600.669 224.486 604.853 219.953 608.386 214.66C609.838 212.477 609.387 211.49 606.875 211.006C599.028 209.495 591.191 207.905 583.354 206.354C575.917 204.883 573.665 202.76 573.665 196.103C573.665 155.613 572.313 115.123 574.576 74.7026C574.936 68.1847 575.576 61.6766 576.077 54.6748C573.695 55.5735 571.833 56.2154 570.011 56.966C568.45 57.6177 566.768 58.5757 565.667 56.5413C564.376 54.1514 566.528 53.4107 568.06 52.5121C579.7 45.7275 581.582 46.2805 588.278 58.2498C589.179 59.8496 589.829 61.2915 587.998 62.5358C586.166 63.7801 584.595 63.0098 583.384 61.2816C582.653 60.2446 582.273 58.8719 580.031 58.0621C579.246 68.8083 579.048 79.5883 579.44 90.3554C581.151 92.5083 580.681 95.0661 580.681 97.4856C580.681 118.047 580.931 138.608 580.621 159.169C580.441 170.535 581.992 181.813 581.722 193.16C581.642 196.735 583.313 198.562 586.877 199.175C593.773 200.37 600.719 201.347 607.465 203.224C611.019 204.211 613.281 202.997 614.632 199.767C616.093 196.261 617.505 192.736 620.037 189.803C622.899 186.485 626.182 184.203 630.917 185.556C635.221 186.791 637.363 189.813 637.853 195.323C638.053 197.624 637.763 199.925 637.753 202.236C637.753 209.001 638.223 209.633 645.12 210.877C648.563 211.5 652.016 212.062 655.479 212.596C674.576 215.558 693.444 219.914 712.781 221.257C715.063 221.286 717.445 221.592 719.207 223.41Z" fill="#232322"/>
<path d="M341.429 344.938C341.803 344.651 342.14 344.318 342.43 343.949C343.241 342.514 341.63 339.488 344.062 339.537C346.854 339.597 345.122 342.653 345.773 344.265C348.075 348.113 346.113 352.02 345.683 355.788C344.222 368.459 347.024 373.721 358.953 379.161C376.678 387.252 394.982 387.647 413.657 383.246C419.828 381.817 425.885 379.946 431.781 377.648C443.491 373.019 447.464 365.887 445.923 353.592C443.451 333.939 438.787 314.75 433.763 295.621C433.083 293.585 432.702 291.463 432.632 289.32C432.702 287.342 433.353 285.67 435.444 285.136C437.536 284.602 438.937 285.839 439.798 287.599C441.223 290.755 442.232 294.08 442.8 297.49C443.891 302.821 445.422 308.034 446.803 313.316C447.744 316.847 449.736 318.558 453.379 318.944C462.646 319.933 471.913 320.754 481.241 321.011C486.595 321.15 492.039 321.911 494.251 328.113C493.25 331.011 491.249 331.258 488.727 330.21C485.004 327.609 480.65 327.549 476.377 327.361C468.621 327.025 460.794 327.252 453.168 325.591C448.825 324.651 447.854 326.283 448.825 330.062C449.755 334.878 450.158 339.779 450.026 344.681C449.716 352.593 451.817 360.091 452.648 367.796C458.563 387.509 462.136 407.716 464.658 428.062C470.338 474.987 472.252 522.282 470.382 569.505C469.992 576.57 470.052 583.653 470.562 590.711C470.772 592.996 471.143 595.489 470.462 597.566C467.46 606.913 470.973 615.37 473.645 623.926C472.314 626.893 468.521 628.02 467.95 631.522C469.393 630.236 470.731 628.84 471.953 627.348C473.955 625.103 475.496 625.261 476.567 628.149L477.868 629.86C477.928 632.462 474.756 633.48 474.776 636.101C476.307 634.479 476.477 631.354 479.78 631.73L481.781 632.837C483.683 634.044 484.924 635.31 482.652 637.368C481.721 638.198 480.71 639.108 480.76 640.661C483.262 640.008 482.502 636.042 485.594 636.131C491.859 640.454 498.214 644.677 502.298 651.344C507.171 659.316 504.749 665.577 495.752 668.613C489.287 670.799 482.652 670.73 475.987 670.423C457.152 669.543 438.437 667.713 420.232 662.511C415.168 661.067 410.014 659.306 408.223 652.313C438.167 661.433 467.99 664.044 498.665 659.049C497.664 656.457 496.193 657.021 494.922 657.15C466.692 660.151 438.141 657.706 410.855 649.949C407.852 649.088 406.852 647.526 406.511 644.845C404.97 633.965 406.031 623.085 406.031 612.274C406.031 608.139 404.79 606.161 400.807 605.617C399.486 605.439 398.205 605.043 396.904 604.757C392.14 603.688 389.788 601.146 389.278 595.934C387.616 579.119 389.908 562.363 390.278 545.598C390.428 538.2 391.089 530.761 391.81 523.422C392.532 515.878 391.547 508.269 388.927 501.148C386.085 493.116 384.514 484.659 383.333 475.619C378.789 478.863 376.597 483.532 373.435 487.359C360.855 502.463 347.344 516.795 335.925 532.858C326.788 545.717 319.822 559.713 312.697 573.659C308.273 582.314 304.02 591.057 299.396 599.613C294.062 609.455 289.008 611.898 277.789 609.989C274.786 609.475 273.225 610.187 271.884 612.749C268.321 619.544 263.067 625.488 260.485 632.719C258.704 637.724 256.862 642.461 253.579 646.724C251.808 649.019 250.267 649.692 247.325 649.069C229.31 645.359 212.006 639.642 195.753 630.968C192.421 629.188 188.988 627.595 185.605 625.904C178.78 622.877 173.055 618.199 167.351 614.094C172.355 619.287 179.581 622.313 184.514 628.08C202.665 639.456 222.72 647.545 243.742 651.967C245.073 652.244 247.244 651.809 247.405 653.678C247.545 655.349 245.403 655.656 244.202 656.358C240.939 658.168 237.457 657.733 233.954 657.179C224.296 655.646 215.509 651.601 206.632 647.892C194.623 642.946 182.613 638.07 172.005 630.464C168.081 627.654 164.318 624.657 161.997 620.296C159.234 615.083 160.135 610.85 164.879 607.259C170.884 602.739 178.079 601.987 185.195 601.324C188.388 601.008 188.268 604.163 189.198 606.161C189.659 607.15 188.978 609.376 191.1 608.931C192.851 608.555 192.1 606.903 192.1 605.627C192.1 603.926 188.758 601.671 191.95 600.751C195.143 599.831 195.603 603.283 196.524 605.469C197.074 606.774 196.224 609.574 198.896 608.614C200.637 607.981 199.787 605.726 199.296 604.173C199.104 603.538 198.761 602.958 198.295 602.482C196.744 600.919 198.125 599.89 199.166 599.425C200.207 598.96 201.878 597.744 203.019 599.801C203.883 601.585 204.431 603.502 204.64 605.469C204.801 606.458 205.201 607.447 206.502 607.239C207.503 607.071 207.763 606.171 207.773 605.35C207.773 604.203 208.013 602.808 207.463 601.957C204.721 597.714 207.022 595.34 210.235 592.779C216.19 588.06 220.353 581.799 223.726 575.182C233.684 555.628 245.473 537.102 256.272 518.022C273.285 487.874 290.909 458.022 308.253 428.013C318.334 410.591 328.396 393.167 338.437 375.739C339.438 374.018 340.369 372.405 339.668 370.19C336.896 361.466 339.118 353.167 341.429 344.938Z" fill="#232322"/>
<path d="M718.84 223.569C701.773 222.141 684.915 219.235 668.058 216.299C659.06 214.722 650.061 212.917 641.062 211.637C636.553 210.993 635.313 209.049 635.873 204.754C636.363 201.035 636.813 197.237 636.063 193.408C635.353 189.828 633.554 187.458 629.934 186.386C626.315 185.315 623.875 187.259 621.705 189.679C618.546 193.2 616.796 197.514 615.146 201.839C613.957 204.973 612.287 205.964 608.687 205.082C600.629 203.098 592.42 201.66 584.251 200.123C581.402 199.587 579.872 198.496 579.822 195.303C579.252 161.443 578.322 127.583 578.822 93.7134C578.822 92.4043 579.092 91.0951 579.232 89.7463C594.59 75.5041 611.477 89.3396 615.926 103.75C618.356 111.625 618.866 119.996 621.925 127.742C622.671 129.747 623.647 131.661 624.835 133.445C631.624 143.363 640.712 144.057 648.831 135.359C652.272 131.763 656.301 128.772 660.749 126.512C674.017 119.569 687.135 125.282 691.035 139.852C694.034 151.168 695.764 162.772 697.643 174.326C698.293 178.343 699.643 181.884 703.452 184.185C720.16 194.311 724.279 204.943 718.84 223.569Z" fill="#FDCC00"/>
<path d="M34.7017 74.4774C44.895 43.5482 74.834 18.8226 109.339 20.6373C130.486 21.742 148.56 30.0068 163.76 44.4556C165.081 45.7081 166.363 47.0001 167.655 48.2724C167.655 51.2312 165.051 52.3555 163.279 53.7462C152.775 62.0505 142.782 71.0057 130.807 77.4164C126.541 79.6947 121.975 81.2234 117.79 83.5313C114.425 85.3559 112.843 82.545 111.672 80.2667C107.436 71.8835 102.52 63.8751 97.7738 55.7877C93.6384 48.7557 89.9636 41.4179 84.877 34.4352C84.0059 36.2302 84.9872 37.0487 85.4778 37.9265C94.4895 54.0026 102.25 70.7296 111.211 86.8254C111.821 87.8084 112.147 88.9362 112.156 90.088C112.165 91.2398 111.856 92.3723 111.261 93.3643C99.6762 114.234 88.0712 135.083 76.7865 156.11C76.5301 156.532 76.228 156.926 75.8853 157.284C74.963 158.229 73.8604 158.986 72.6406 159.511C71.4209 160.037 70.108 160.32 68.7771 160.344C67.4462 160.369 66.1234 160.135 64.8844 159.656C63.6454 159.176 62.5146 158.461 61.5567 157.55C59.5541 155.647 61.026 153.654 61.2363 151.495C58.1422 152.175 55.5889 153.743 52.7051 152.708C39.0774 140.241 32.8093 124.382 30.8367 106.551C30.7266 105.564 30.7066 104.578 30.6465 103.592C33.4201 100.959 37.0948 101.481 40.4392 100.998C42.7222 100.673 45.0653 100.781 47.3082 100.081C50.3121 99.0945 52.1445 97.2798 52.3147 94.0941C52.5149 89.3601 52.4649 84.6359 52.3147 79.9018C52.2346 76.943 50.7025 75.4143 47.6986 75.2664C45.0526 75.1348 42.4 75.2206 39.7683 75.5228C37.956 75.7299 36.0535 76.2822 34.7017 74.4774Z" fill="#FDCD00"/>
<path d="M74.4304 156.452C81.0302 146.37 85.9122 135.371 91.9193 124.974C97.7557 114.843 103.251 104.534 109.127 94.4221C110.875 91.4162 111.016 89.2085 109.217 85.9464C100.096 69.4089 91.4071 52.6448 82.5471 35.9694C81.854 34.6684 81.4722 33.4069 82.9188 32.5298C84.9278 31.2979 85.5606 33.1211 86.2739 34.3137C93.2051 46.0942 100.113 57.8978 106.997 69.7243C109.238 73.5679 111.317 77.4904 113.477 81.3735C114.22 82.7138 114.732 83.719 116.882 82.8025C136.159 74.5929 152.111 61.7315 167.641 48.2493C172.774 44.3859 177.887 40.4635 183.071 36.6691C189.67 31.8399 194.693 32.5692 198.259 39.4286C210.806 63.5252 214.332 88.834 207.471 115.158C204.045 128.236 203.643 128.128 191.278 123.417C188.957 122.53 186.607 121.722 184.246 120.884C173.387 118.597 163.653 113.364 153.437 109.422C143.964 105.776 134.753 101.439 124.948 98.6599C123.773 98.3347 122.387 97.1225 121.292 98.4332C120.498 99.4188 121.352 100.651 121.764 101.676C127.299 115.562 131.488 129.902 136.681 143.906C138.389 148.528 139.836 153.239 141.131 157.98C141.563 159.576 141.915 161.134 140.81 162.691C138.921 165.362 136.792 165.539 134.783 162.967C133.5 161.046 132.521 158.946 131.88 156.738C126.294 138.23 119.524 120.105 113.326 101.548C103.371 117.533 94.5713 133.883 85.2693 149.958C83.2603 152.914 81.8439 156.235 79.654 159.064C78.6495 160.375 77.2331 161.479 75.4048 160.562C73.5766 159.645 73.657 158.138 74.4304 156.452Z" fill="#232322"/>
<path d="M74.3829 156.973C74.4831 158.407 74.2327 160.13 76.1155 160.568C77.9984 161.006 78.5392 159.383 79.3104 158.158C81.033 155.429 82.0345 152.252 84.4482 149.961C86.7417 153.278 85.7302 156.574 84.318 159.821C83.5168 161.664 82.4852 163.466 83.3165 165.518C84.3781 168.197 85.8303 169.99 89.3256 169.124C92.2401 168.397 95.1145 167.909 97.6984 166.136C99.401 164.99 101.845 163.317 103.417 165.797C105.15 168.506 103.147 170.329 100.473 171.604C104.669 170.428 108.345 167.53 112.992 170.11C114.684 171.046 116.777 169.363 118.45 168.247C119.651 167.354 120.783 166.372 121.835 165.309C126.713 160.807 128.165 161.036 131.129 166.654C131.87 163.437 130.058 159.771 132.622 156.694C133.463 158.497 134.314 160.279 135.135 162.082C135.786 163.516 136.497 164.861 138.45 164.223C140.403 163.586 140.654 161.893 140.123 160.17C138.39 154.632 136.638 149.105 134.775 143.617C129.397 127.781 123.958 111.965 118.27 95.3423C124.679 96.7862 130.95 98.7858 137.008 101.318C151.851 107.234 166.623 113.27 181.416 119.355C182.287 119.813 183.112 120.353 183.879 120.969C180.715 132.572 174.475 142.372 166.062 150.848C164.39 147.67 164.22 143.876 161.495 141.107C157.359 136.944 152.542 137.322 149.477 142.302C148.701 143.379 148.174 144.614 147.935 145.918C147.073 156.226 141.194 163.954 134.915 171.524C123.417 177.589 111.029 177.918 98.5397 176.693C86.1004 175.36 74.1422 171.173 63.6065 164.462C61.1452 163.085 59.0771 161.108 57.5974 158.716L53.8917 155.977L52.2793 153.158C54.7631 151.555 58.3586 152.7 60.3716 149.872C60.4713 149.737 60.6033 149.63 60.7556 149.56C60.9078 149.489 61.0755 149.458 61.243 149.469C61.4105 149.48 61.5726 149.532 61.7144 149.622C61.8561 149.711 61.973 149.835 62.0542 149.981C62.3832 150.47 62.5646 151.041 62.5771 151.629C62.5895 152.217 62.4324 152.796 62.1243 153.298C59.4703 156.515 61.8839 157.59 64.2676 158.497C67.853 159.811 71.6688 161.953 74.3829 156.973Z" fill="#FDCD00"/>
<path d="M34.6207 74.8943C38.7823 74.5955 42.9339 74.3158 47.0855 74.0073C51.237 73.6988 53.539 75.3475 53.9008 79.6862C54.1926 84.6467 54.1322 89.6204 53.7199 94.573C53.4887 98.7863 51.0963 101.062 46.9045 101.582C41.4562 102.267 35.9778 102.778 30.4993 103.356C23.6738 103.221 16.8484 103.106 10.0229 102.942C0.252156 102.701 -0.0293531 102.508 0.111378 92.9242C0.111378 89.27 -0.290704 85.6448 0.433057 81.9424C1.52875 76.2827 2.20227 75.039 8.24366 75.5018C16.0383 76.2428 23.8929 76.1879 31.6754 75.3379C32.6605 75.2125 33.6155 75.0775 34.6207 74.8943Z" fill="#242423"/>
<path d="M679.728 111.073C686.822 117.652 691.203 126.315 697.31 133.674C703.736 141.428 711.07 147.819 720.45 151.879C723.457 153.27 726.306 154.972 728.952 156.956C730.314 157.912 731.445 159.154 732.265 160.594C733.084 162.034 733.571 163.635 733.691 165.284C733.771 166.094 733.691 166.992 732.793 167.368C732.598 167.446 732.387 167.48 732.176 167.467C731.966 167.454 731.76 167.395 731.576 167.294C731.391 167.193 731.232 167.052 731.109 166.882C730.987 166.712 730.904 166.517 730.867 166.311C728.872 160.295 724.062 157.154 718.624 154.862C705.033 149.123 695.983 138.603 687.99 126.898C686.324 124.448 684.597 122.028 682.911 119.588C681.247 117.04 679.086 114.845 676.556 113.132C674.025 111.419 671.176 110.222 668.173 109.611C646.11 104.801 626.014 95.7823 608.97 80.7777C608.026 79.8384 606.747 79.303 605.408 79.2861C604.41 79.2861 603.023 78.891 602.883 78.0118C602.155 73.4779 598.772 70.1687 596.707 66.0101C599.291 65.615 599.61 67.5313 600.748 68.2425C605.218 71.0281 610.178 73.3001 611.006 79.3552C626.642 92.1966 644.524 100.445 664.131 105.245C667.664 106.115 671.316 106.589 674.609 108.209C675.617 108.307 676.593 108.612 677.474 109.105C678.356 109.599 679.123 110.269 679.728 111.073Z" fill="#2C2C2C"/>
<path d="M564.312 644.33C562.162 641.645 561.017 638.636 561.801 635.236C562.805 630.669 565.919 628.905 572.347 629.493C574.858 629.719 575.762 629.66 575.722 626.71C575.602 616.813 579.9 612.893 590.105 613.491C593.058 613.667 592.767 611.531 593.541 610.169C598.764 601.065 609.551 598.331 617.285 604.289C621.665 607.64 622.96 612.266 622.488 617.371C622.197 620.497 622.579 621.468 626.355 621.066C640.347 619.596 651.024 633.158 645.861 645.447C645.329 646.731 645.058 648.798 643.089 648.22C641.12 647.642 642.205 645.839 642.537 644.496C645.771 631.081 636.038 621.644 622.448 625.24C618.591 626.22 617.476 625.446 618.28 621.595C618.776 619.2 618.938 616.751 618.762 614.314C618.179 607.268 612.735 603.789 605.272 604.848C600.039 605.592 593.42 613.383 596.001 618.733C596.237 619.167 596.39 619.638 596.453 620.125C596.654 622.82 597.528 626.74 594.203 627.132C591.19 627.504 591.863 623.535 591.492 621.252C591.24 619.674 591.743 617.724 589.704 617.077C587.273 616.323 584.812 616.166 582.522 617.803C578.444 620.742 577.62 625.172 580.011 631.042C580.563 632.394 582.432 633.923 580.553 635.363C579.097 636.49 577.801 634.903 576.485 634.305C575.316 633.683 574.109 633.133 572.869 632.659C570.368 631.865 567.847 631.737 565.939 633.913C564.181 635.873 564.432 638.127 565.407 640.361C565.788 641.253 566.28 642.105 566.722 642.977C567.164 643.85 567.265 644.634 566.441 645.094C565.617 645.555 564.965 644.781 564.312 644.33Z" fill="#2A2A2A"/>
<path d="M322.728 643.006C320.87 637.631 320.336 632.077 320.083 626.434C320.013 624.854 319.518 622.966 321.708 622.221C322.59 621.93 323.537 621.884 324.443 622.09C325.35 622.295 326.181 622.742 326.845 623.384C329.641 625.659 330.681 629.057 332.548 632.504C334.324 627.457 336.131 623.016 338.916 619.032C340.148 617.263 341.641 616.002 343.882 616.31C346.123 616.618 347.213 618.297 348.04 620.214C348.802 622.245 349.018 624.436 348.666 626.573C347.813 633.968 346.197 641.259 343.842 648.331C343.347 649.851 342.671 652.047 340.551 651.163C338.795 650.427 339.946 648.49 340.4 647.189C342.842 640.125 345.204 633.041 345.154 625.47C345.154 623.801 345.961 621.267 343.67 620.721C341.379 620.174 340.41 622.638 339.522 624.337C336.851 629.332 335.285 634.828 334.93 640.462C334.849 641.883 335.152 643.93 333.163 643.989C331.175 644.049 331.337 641.883 331.145 640.552C330.197 634.655 327.609 629.132 323.666 624.596C322.829 634.749 325.685 643.363 327.411 652.772C324.09 651.332 324.302 649.027 323.838 647.089C322.425 645.986 323.495 644.228 322.728 643.006Z" fill="black"/>
<path d="M487.612 625.248C485.679 625.966 482.497 623.085 481.832 627.58C481.801 627.745 481.734 627.903 481.636 628.041C481.537 628.179 481.409 628.295 481.261 628.381C481.113 628.467 480.947 628.521 480.776 628.539C480.604 628.557 480.43 628.54 480.266 628.487C479.305 628.138 478.373 627.411 478.691 626.255C479.632 622.806 480.236 619.069 483.039 616.567C485.361 614.494 487.766 615.112 487.838 618.481C487.838 620.972 488.544 622.019 491.071 622.248C491.373 622.279 491.665 622.37 491.929 622.516C492.194 622.662 492.424 622.86 492.606 623.096C492.789 623.333 492.919 623.604 492.99 623.892C493.06 624.179 493.068 624.478 493.014 624.77C492.789 627.52 490.641 628.646 488.451 629.603C487.428 630.032 486.067 631.178 485.218 629.982C483.152 627.112 488.073 627.839 487.612 625.248Z" fill="black"/>
<path d="M452.784 367.824C446.969 355.539 449.498 342.381 449.082 329.534C451.805 342.16 454.665 354.776 452.784 367.824Z" fill="black"/>
<path d="M195.419 589.312C193.008 592.314 191.146 590.725 189.203 588.522C188.592 591.554 190.413 592.968 191.461 594.693C191.787 595.219 192.112 596.009 191.461 596.409C190.993 596.682 189.956 596.789 189.66 596.506C187.229 594.176 185.041 591.632 185.855 588.005C185.985 587.366 186.311 586.779 186.791 586.319C189.844 583.726 193.354 586.114 196.65 585.802C199.133 585.568 199.316 589.039 199.163 591.359C199.061 592.821 198.858 594.683 196.844 594.488C194.829 594.293 195.826 592.461 195.704 591.3C195.592 590.862 195.531 590.365 195.419 589.312Z" fill="black"/>
<path d="M184.628 627.839C178.35 623.944 172.332 619.654 166.61 614.993C165.514 614.119 163.263 613.043 164.328 611.666C165.819 609.726 167.269 612.088 168.445 612.923C174.265 617.074 179.984 621.386 185.682 625.628C183.796 625.598 184.577 626.904 184.628 627.839Z" fill="#D7D7D7"/>
<path d="M557.949 102.466C560.578 104.146 565.265 103.132 566.023 107.833C566.318 109.711 564.832 110.645 562.803 110.456C559.711 110.168 553.941 106.481 554.365 104.742C554.788 103.003 556.078 102.446 557.949 102.466Z" fill="#414040"/>
<path d="M322.452 643.353C324.055 644.308 323.508 645.865 323.479 647.26L318.68 647.011C319.16 647.852 319.361 648.253 319.639 648.625C320.398 649.762 322.452 649.8 322.356 651.595C322.356 652.016 321.588 652.684 321.108 652.742C319.054 653.009 317.941 651.481 316.971 650.077C316.244 649.05 315.765 647.87 315.57 646.629C315.09 643.201 316.53 642.15 319.774 643.63C320.81 644.108 321.665 644.748 322.452 643.353Z" fill="black"/>
<path d="M556.904 157.675C559.42 159.383 563.801 158.925 564.249 163.143C564.284 163.54 564.215 163.939 564.048 164.303C563.882 164.667 563.623 164.983 563.296 165.222C562.97 165.46 562.586 165.614 562.182 165.668C561.778 165.721 561.367 165.673 560.987 165.528C558.119 164.351 553.972 164.424 553.46 160.32C553.237 158.466 554.996 157.81 556.904 157.675Z" fill="#3A3A3A"/>
<path d="M554.334 637.881C550.197 638.037 548.129 639.925 548.449 644.023C548.542 644.942 549.059 646.174 547.705 646.477C546.019 646.859 545.853 645.382 545.564 644.326C544.209 639.436 548.915 634.448 554.437 635.006C555.926 635.162 558.067 635.211 557.943 637.05C557.777 639.661 555.719 637.998 554.334 637.881Z" fill="black"/>
<path d="M559.404 135.41C557.516 134.971 554.589 135.225 554.353 131.961C554.183 129.759 556.043 128.892 557.95 129.262C560.084 129.672 563.161 129.136 563.35 132.565C563.473 134.728 561.698 135.468 559.404 135.41Z" fill="#3A3A3A"/>
<path d="M488.542 329.943C490.419 329.634 492.456 329.733 493.65 327.81C494.293 327.219 495.132 326.882 496.009 326.864C496.885 326.845 497.738 327.147 498.406 327.711C500.854 330.64 502.7 327.711 504.767 327.043C500.332 334.037 495.215 334.924 488.542 329.943Z" fill="black"/>
<path d="M561.426 187.838C559.379 187.016 555.773 188.029 555.276 184.256C554.941 181.768 557.323 181.357 558.978 181.969C561.197 182.781 564.994 181.276 565.157 185.601C565.224 187.748 563.521 188.2 561.426 187.838Z" fill="#3A3939"/>
<path d="M564.258 644.305C565.698 644.855 566.689 644.675 566.73 642.977C569.795 645.823 572.554 649.029 577.121 649.949C578.142 650.167 579.031 650.898 578.541 651.979C578.05 653.061 576.855 652.824 575.925 652.501C571.195 650.822 566.689 648.83 564.258 644.305Z" fill="black"/>
<path d="M561.376 84.6438C559.355 84.1749 556.325 84.6438 556.153 81.2442C556.001 78.7398 558.123 78.1857 560.073 78.5054C562.022 78.8251 564.831 78.3882 565.124 81.532C565.437 84.1003 563.619 84.761 561.376 84.6438Z" fill="#464646"/>
<path d="M476.806 627.617C475.524 626.737 474.36 624.652 472.861 627.518C472.137 628.607 471.283 629.602 470.317 630.483C469.202 631.698 468.778 634.96 467.013 633.843C464.538 632.262 467.309 630.166 468.167 628.476C468.745 627.29 469.551 626.229 470.54 625.356C471.528 624.482 472.679 623.813 473.926 623.387C475.603 624.316 477.003 625.452 476.806 627.617Z" fill="white"/>
<path d="M677.573 102.637C679.062 101.094 680.542 101.305 681.832 102.808C683.763 105.083 683.616 107.458 681.937 109.823C680.07 110.604 678.129 111.015 676.807 109.141C675.191 106.866 676.408 104.712 677.573 102.637Z" fill="#292929"/>
<path d="M485.838 635.68C484.507 637.786 483.228 639.923 481.825 641.999C481.646 642.383 481.327 642.686 480.929 642.848C480.532 643.011 480.086 643.02 479.682 642.874C478.383 642.355 478.466 641.307 478.965 640.391C479.838 638.794 480.535 636.748 481.949 635.853C484.424 634.286 482.032 633.441 481.876 632.292C482.841 632.301 483.771 632.648 484.497 633.269C485.224 633.891 485.7 634.746 485.838 635.68Z" fill="white"/>
<path d="M479.529 631.371C477.32 632.684 476.795 635.096 475.408 636.959C474.863 637.667 474.418 638.887 473.259 638.421C471.912 637.872 472.268 636.661 472.754 635.627C473.833 633.224 475.161 630.971 477.657 629.62L479.529 631.371Z" fill="white"/>
<path d="M678.13 102.466C676.491 108.553 676.906 109.24 682.337 109.495C682.337 110.83 680.638 110.369 680.314 111.37C678.201 111.105 676.643 109.878 675.126 108.572C676.916 106.874 675.126 103.575 678.13 102.466Z" fill="#6D6D6D"/>
<path d="M498.349 327.968L493.608 328.067C489.816 322.977 484.274 322.048 478.482 322.068C469.479 322.068 460.566 320.823 451.612 320.22C447.971 319.973 446.16 318.48 445.37 314.744C443.629 306.551 441.369 298.457 439.228 290.353C438.688 288.317 438.698 284.957 435.356 285.767C432.015 286.578 433.466 289.404 434.006 291.559C438.908 310.851 444.08 330.103 446.651 349.869C446.901 351.845 447.181 353.822 447.341 355.799C448.191 366.966 444.9 373.588 434.486 377.867C410.287 387.879 385.568 391.486 360.279 381.455C355.943 379.761 351.949 377.314 348.485 374.231C343.613 369.882 342.923 364.347 343.713 358.418C344.34 353.713 344.974 349.009 345.614 344.305C346.874 337.288 348.115 330.271 345.514 323.273C336.811 308.014 333.85 297.578 347.154 280.045C345.331 280.6 343.776 281.795 342.783 283.405C336.09 292.379 334.34 301.985 338.271 312.689C341.772 322.246 341.442 322.631 331.139 322.572C326.597 322.572 321.985 325.191 317.494 322.394C306.409 323.543 295.251 323.824 284.122 323.234C281.674 322.995 279.242 322.616 276.839 322.097C276.839 321.554 276.629 321.109 276.769 320.961C292.264 308.488 295.566 291.43 295.065 273.048C295.007 265.948 293.652 258.917 291.064 252.293C290.204 250.218 290.654 248.933 293.195 249.546C312.202 254.063 331.839 253.875 351.216 255.96C357.418 256.632 357.408 256.543 356.678 262.769C355.462 271.998 357.519 281.357 362.5 289.256C363.31 290.561 364.051 292.745 366.171 291.48C368.292 290.215 366.571 288.515 365.881 287.23C360.629 277.1 359.129 266.693 363.35 255.822C363.82 254.616 364.211 253.321 365.811 252.639C367.362 254.102 366.551 255.96 366.461 257.581C366.111 263.659 365.701 269.747 366.862 275.785C368.292 283.218 372.654 287.566 379.506 288.515C385.959 289.414 392.751 285.698 395.832 279.492C398.643 273.858 398.833 267.78 398.713 261.702C398.643 258.905 398.713 256.108 398.713 253.302C398.713 252.106 398.943 250.89 400.354 250.633C401.614 250.406 402.014 251.552 402.354 252.402C406.076 260.605 406.246 278.938 396.862 286.499C395.223 287.894 393.382 289.04 391.401 289.898C389.58 290.659 388.81 292.023 389.55 293.852C390.47 296.095 392.191 295.334 393.731 294.632C402.394 290.679 407.436 283.89 409.437 274.866C410.779 269.404 410.905 263.719 409.807 258.204C409.067 254.883 410.287 254.31 413.319 254.319C429.845 254.399 446.14 257.087 462.546 258.5C471.49 259.271 480.463 259.913 489.436 260.21C494.838 260.388 497.969 262.967 499.09 267.79C502.841 283.88 505.392 300.098 502.831 316.672C502.191 320.734 501.171 324.707 498.349 327.968Z" fill="#FDFDFD"/>
<path d="M58.1114 158.861C66.7154 164.785 75.7196 169.91 85.9144 172.763C100.198 176.846 115.362 176.846 129.645 172.763C131.516 172.24 133.267 171.015 135.378 171.578C133.006 175.37 130.675 179.161 130.895 183.89C130.981 186.375 131.809 188.78 133.277 190.801C134.277 192.253 135.698 193.201 137.529 192.085C139.099 191.098 139.089 189.834 138.249 188.274C135.448 183.051 137.118 178.401 140.43 174.106C142.031 172.013 143.541 169.831 145.312 167.886C150.315 162.386 151.955 155.564 153.496 148.633C153.896 146.836 154.276 144.289 156.828 144.318C159.169 144.318 159.999 146.707 160.439 148.495C161.605 152.599 162.365 156.805 162.71 161.053C163.501 178.045 172.055 190.387 185.661 199.964C201.359 211.012 217.066 222.05 233.364 232.22C245.839 240 260.026 243.564 274.333 245.529C283.187 246.743 286.989 250.239 288.339 258.72C290.58 272.848 291.651 286.779 286.879 300.572C284.768 306.664 283.877 307 277.404 305.874C256.264 302.211 235.214 298.252 214.665 291.923C186.982 283.393 163.111 268.613 141.631 249.774C125.873 236.001 112.087 220.461 99.3207 203.992C91.8672 194.395 82.0526 187.83 71.3076 182.271C60.1623 176.564 56.3105 169.298 58.1114 158.861Z" fill="#FDFDFD"/>
<path d="M641.628 218.044C659.388 221.015 676.399 223.837 693.41 226.64C696.028 227.066 698.687 227.294 701.306 227.72C702.895 227.987 704.734 228.017 704.864 230.374C704.994 232.731 703.434 233.692 701.535 233.94C691.721 235.237 683.795 240.397 676.419 246.359C669.3 252.33 662.737 258.923 656.81 266.059C640.548 284.876 619.74 296.761 596.682 305.299C569.697 315.203 541.812 319.739 513.087 319.739C509.519 319.739 508.29 319.372 509.089 315.183C511.818 301.238 508.19 287.669 505.691 274.071C505.401 272.457 505.082 270.832 504.742 269.218C503.083 261.126 503.073 260.889 511.138 260.572C526.03 259.978 539.783 255.035 553.565 250.153C566.878 245.438 579.961 240.179 592.994 234.732C604.338 229.978 611.564 221.857 616.212 210.962C618.47 205.654 620.949 200.424 623.678 195.343C624.677 193.472 626.266 190.778 628.905 191.699C631.074 192.451 631.054 195.195 631.054 197.354C631.079 198.997 630.949 200.638 630.664 202.256C629.664 207.466 629.964 212.042 633.662 216.568C638.31 222.223 639.059 229.146 637.57 236.297C637.14 238.377 635.471 241.249 638.959 242.031C642.617 242.834 642.537 239.436 643.127 237.178C644.776 230.869 643.687 224.729 641.628 218.044Z" fill="#FDFDFD"/>
<path d="M362.767 208.915C364.137 207.197 365.768 207.286 367.629 208.115C374.046 210.891 380.937 212.442 387.939 212.687C391.201 212.864 392.651 213.901 392.701 217.387C392.701 220.447 393.762 223.498 394.372 226.559C394.682 228.1 395.373 229.472 397.153 229.62C398.934 229.768 399.755 228.682 400.565 227.251C401.856 224.999 401.916 220.428 405.257 221.326C409.349 222.442 406.418 226.5 406.188 229.067C405.057 241.469 397.413 249.181 384.717 251.323C383.086 251.6 381.066 251.639 381.446 254.039C381.826 256.438 383.647 255.875 385.368 255.648C393.372 254.582 393.372 254.611 393.372 262.846C393.372 266.796 393.442 270.745 392.081 274.547C390.08 280.056 386.538 282.535 380.785 282.327C376.003 282.15 372.721 279.306 371.661 273.54C370.35 266.411 370.66 259.143 371.011 251.935C371.111 250.069 371.371 248.361 369.71 246.998C358.985 238.161 357.084 226.757 359.935 213.99C361.386 211.176 363.667 211.699 365.878 212.706C367.216 213.206 368.341 214.14 369.068 215.355C369.795 216.57 370.082 217.994 369.88 219.391C369.66 221.613 368.439 223.706 368.99 226.658C369.82 225.286 368.99 224.437 369.27 223.647C371.091 217.772 370.841 212.904 363.337 211.324C362.226 211.126 361.936 209.951 362.767 208.915Z" fill="#FDFDFD"/>
<path d="M317.282 321.948C323.431 321.533 329.488 320.753 335.586 320.832C340.238 320.891 340.279 319.37 338.66 316.042C334.827 308.033 333.485 299.836 336.764 291.244C338.576 286.454 341.495 282.124 345.301 278.583C346.562 277.408 348.16 276.262 349.79 277.595C351.84 279.373 349.636 280.499 348.611 281.546C338.804 291.293 336.949 302.216 343.077 314.462C344.399 317.089 345.762 319.755 345.967 322.768C345.834 325.553 347.382 328.693 341.612 325.553C338.25 323.735 332.286 322.59 327.264 325.167C322.581 327.547 317.866 325.681 317.282 321.948Z" fill="#232322"/>
<path d="M362.568 209.322C362.666 209.787 362.911 210.208 363.265 210.52C363.619 210.833 364.063 211.021 364.531 211.055C370.294 212.4 371.786 215.04 370.853 221.018C370.539 223.01 368.89 225.132 371.717 227.095C373.16 228.091 371.423 229.038 370.323 228.898C365.65 228.281 366.936 225.103 367.663 222.193C369.155 216.276 367.437 213.446 362.302 213.177C361.154 213.118 360.565 213.924 359.76 214.403C359.22 211.932 360.683 210.527 362.568 209.322Z" fill="black"/>
<path d="M465.821 546.919C466.203 562.644 465.198 576.973 465.821 591.313C466.213 600.051 463.418 603.495 454.671 604.573C437.37 606.724 419.805 605.412 403.032 600.714C393.431 598.042 393.41 597.745 393.34 587.542C393.199 566.939 394.969 546.415 396.246 525.881C396.884 517.181 395.93 508.44 393.431 500.072C385.226 472.987 381.999 445.327 385.206 417.094C385.618 413.492 386.071 409.9 386.352 406.298C386.614 402.943 388.363 401.775 391.651 402.161C396.457 402.745 401.293 403.151 406.109 403.655C421.954 405.397 435.809 400.261 448.427 391.424C452.017 388.901 452.861 390.147 453.455 393.472C458.445 420.183 461.936 447.144 463.911 474.233C465.62 498.894 466.394 523.555 465.821 546.919Z" fill="#FDCD00"/>
<path d="M382.124 462.247C382.737 468.249 378.23 471.868 375.029 475.803C362.603 491.07 349.606 505.873 337.241 521.179C324.193 537.376 315.381 556.124 305.966 574.456C301.821 582.525 298.359 590.919 293.421 598.602C290.199 603.606 285.893 605.603 280.252 604.298C262.775 600.262 246.575 592.051 233.08 580.389C229.306 577.165 228.925 573.922 231.484 569.512C247.215 542.748 262.819 515.912 278.295 489.004C293.973 461.838 309.553 434.62 325.036 407.348C326.923 404.026 328.368 401.663 332.965 403.255C335.705 404.244 338.927 403.71 341.867 402.8C343.453 402.315 344.718 401.524 344.296 399.695C343.945 398.153 342.56 397.856 341.135 397.846H340.633C337.622 398.172 333.417 400.13 331.861 397.243C330.506 394.712 334.039 391.715 335.625 389.115C337.492 386.06 338.184 381.046 341.406 380.364C344.848 379.642 346.956 384.418 349.706 386.683C354.667 390.84 359.916 394.653 365.413 398.093C366.349 398.582 367.117 399.333 367.619 400.252C368.121 401.171 368.335 402.216 368.234 403.255C368.284 413.469 369.348 423.624 369.95 433.809C370.321 440.127 374.045 443.697 378.983 446.238C380.669 447.108 381.131 447.79 381.221 449.372C381.442 453.713 381.783 457.975 382.124 462.247Z" fill="#FDCC00"/>
<path d="M226.087 580.645C236.86 591.546 249.872 599.943 264.21 605.246C267.723 606.585 268.844 607.873 266.393 611.519C263.064 616.653 260.013 621.964 257.254 627.43C255.786 630.217 254.357 631.236 251.092 629.977C247.107 628.409 243.217 626.604 239.443 624.574C232.973 621.178 231.634 617.012 235.613 610.81C237.776 607.454 237.091 605.646 234.343 603.328C230.374 600.052 226.99 596.187 223.071 592.92C220.094 590.403 220.282 588.156 222.505 585.439C223.726 583.891 224.857 582.303 226.087 580.645Z" fill="#FDFDFD"/>
<path d="M411.05 618.028C410.921 608.285 410.921 608.384 420.769 609.144C431.652 609.953 442.535 611.434 453.457 609.795C455.895 609.43 458.302 608.808 460.709 608.186C461.853 607.9 463.136 606.36 463.952 608.394C464.768 610.427 463.514 611.355 461.605 611.78C456.432 612.895 451.319 614.376 446.106 615.096C441.838 615.689 440.137 617.199 440.465 621.73C440.853 627.544 438.118 630.17 432.199 630.456C425.882 630.762 419.675 629.726 413.507 628.433C411.677 628.058 410.98 627.209 411.03 625.471C411.1 622.954 411.05 620.476 411.05 618.028Z" fill="#FCFCFC"/>
<path d="M378.206 401.904C382.431 400.968 383.68 402.699 382.831 407.89C381.221 417.791 381.026 427.882 380.626 437.924C380.626 438.869 380.948 440.157 379.914 440.67C378.577 441.334 377.962 439.906 377.172 439.211C375.406 437.692 374.937 435.589 374.742 433.366C373.971 424.532 373.152 415.698 372.42 406.864C371.981 401.501 372.088 401.501 378.206 401.904Z" fill="#F4C602"/>
<path d="M120.784 88.0453C124.585 86.268 128.365 84.6296 132.026 82.7727C148.543 74.4518 161.55 61.4043 176.151 50.4917C179.601 47.91 183.171 45.4177 186.451 42.6672C190.292 39.4699 192.418 41.3267 194.012 44.9113C198.088 53.5994 201.047 62.7599 202.817 72.1779C205.304 86.7744 205.395 101.391 201.885 115.918C200.962 119.731 199.879 121.369 195.256 119.502C171.518 109.871 148.182 99.2558 124.053 90.5377C122.789 90.1008 121.486 89.7234 120.784 88.0453Z" fill="#FDFDFD"/>
<path d="M132.501 156.753V170.14C129.871 169.783 129.771 168.153 129.311 166.543C128.101 162.279 127.032 162.07 123.692 165.161C121.692 167.07 119.942 169.365 117.242 170.528C114.542 171.691 112.552 172.456 109.462 170.528C106.863 168.958 103.683 171.999 100.693 172.764C99.3329 173.102 97.813 174.643 97.093 172.854C96.4331 171.224 98.463 171.025 99.7429 170.866C100.401 170.763 101.017 170.482 101.525 170.055C102.033 169.627 102.413 169.069 102.623 168.441C102.983 167.676 103.413 166.911 102.853 166.135C102.053 165.032 101.063 165.569 100.213 166.036C96.813 167.904 93.8632 170.647 89.4134 170.18C87.8535 170.021 86.3136 172.933 84.4136 170.091C82.5137 167.248 79.6839 164.565 81.9838 161.285C84.5436 157.658 84.3936 153.901 84.3537 149.966C89.2734 139.133 96.0631 129.323 101.483 118.759C105.013 111.882 108.952 105.213 113.482 97.123C119.812 117.864 127.102 136.996 132.501 156.753Z" fill="#FDCD00"/>
<path d="M18.53 98.6685C17.8706 98.6685 17.2013 98.6685 16.532 98.6685C1.48714 98.2997 5.19338 101.486 3.64494 85.6468C3.32526 82.3991 4.9736 80.9955 7.64091 81.3951C20.3281 83.27 32.7556 80.5959 45.253 79.346C47.4009 79.1309 47.8904 80.0017 47.7505 81.8561C47.7505 82.1942 47.7505 82.5425 47.7505 82.8806C47.1012 99.273 51.1371 96.0355 34.394 97.7157C29.1193 98.2484 23.8246 98.5148 18.54 98.9041L18.53 98.6685Z" fill="#FBFBFB"/>
<path d="M378.697 293.024C377.351 292.726 376.673 292.092 376.784 291.084C376.763 290.86 376.798 290.633 376.885 290.423C376.972 290.212 377.11 290.023 377.289 289.868C377.467 289.714 377.681 289.599 377.914 289.531C378.148 289.464 378.395 289.446 378.637 289.48C378.882 289.481 379.124 289.53 379.348 289.623C379.571 289.716 379.771 289.851 379.935 290.02C380.098 290.189 380.221 290.388 380.295 290.603C380.37 290.818 380.394 291.046 380.367 291.271C380.296 292.315 379.375 292.679 378.697 293.024Z" fill="#3C3C3C"/>
<path d="M374.068 214.857C374.733 214.3 375.468 213.823 376.258 213.437C378.36 212.851 380.638 212.409 382.466 213.849C383.89 214.877 382.762 215.752 379.937 215.515C379.039 215.443 378.141 215.35 377.255 215.248C376.368 215.145 375.514 215.032 374.068 214.857Z" fill="#232322"/>
<path d="M381.269 232.476C380.861 233.276 380.28 233.941 379.583 234.408C378.885 234.875 378.094 235.128 377.286 235.142C376.444 235.195 375.547 234.565 375.987 233.694C376.934 232.139 378.378 231.075 380.005 230.734C380.747 230.503 381.369 231.259 381.269 232.476Z" fill="black"/>
<path d="M363.654 220.898C363.017 220.833 362.434 220.558 362.024 220.131C361.615 219.703 361.411 219.155 361.455 218.601C361.532 217.429 362.269 216.39 363.775 216.448C364.39 216.534 364.949 216.809 365.349 217.223C365.75 217.636 365.965 218.161 365.956 218.701C365.946 219.242 365.713 219.761 365.298 220.164C364.884 220.567 364.316 220.828 363.698 220.898H363.654Z" fill="black"/>
<path d="M377.105 219.123C377.634 219.086 378.161 219.218 378.59 219.495C379.018 219.772 379.319 220.176 379.438 220.633C379.489 220.85 379.489 221.075 379.441 221.293C379.392 221.511 379.294 221.718 379.153 221.902C379.012 222.086 378.831 222.244 378.621 222.365C378.41 222.487 378.174 222.57 377.926 222.611C376.684 222.928 376.154 222.063 375.923 221.154C375.816 220.747 375.876 220.319 376.092 219.947C376.308 219.575 376.667 219.283 377.105 219.123Z" fill="black"/>
<path d="M434.034 440.227C435.092 446.448 436.111 452.669 437.216 458.88C438.889 468.631 439.696 478.522 439.627 488.428C439.627 491.563 439.103 494.956 440.027 497.794C445.4 514.235 440.684 530.636 440.132 547.017C439.789 557.088 439.722 567.148 439.808 577.219C439.808 578.856 440.541 581.535 438.035 581.535C435.711 581.535 436.13 578.916 436.13 577.209C435.978 561.533 434.996 545.787 438.131 530.289C439.465 523.661 436.14 516.785 439.455 510.345C439.524 510.108 439.545 509.859 439.517 509.613C439.489 509.368 439.413 509.13 439.293 508.917C434.92 500.781 436.368 491.861 436.13 483.189C435.825 471.977 435.292 460.805 433.053 449.792C432.939 448.641 432.939 447.48 433.053 446.329C433.262 443.352 430.757 440.485 432.214 437.28C434.263 437.499 432.976 439.552 434.034 440.227Z" fill="#FDFAF1"/>
<path d="M435.891 420.362C428.391 420.047 423.244 415.48 419.035 409.352C418.267 408.242 417.669 406.734 419.125 405.686C419.398 405.48 419.71 405.338 420.039 405.27C420.369 405.202 420.709 405.209 421.036 405.292C421.362 405.374 421.668 405.53 421.932 405.748C422.197 405.966 422.413 406.242 422.566 406.556C426.007 411.908 431.313 413.595 436.899 414.799C438.893 415.229 441.237 415.847 440.689 418.57C440.2 420.948 437.766 420.173 435.891 420.362Z" fill="#2E2B21"/>
<path d="M433.559 440.868L431.875 438.567C431.769 441.594 433.337 444.229 432.593 447.075C431.033 443.411 430.927 439.344 430.103 435.478C429.908 434.56 429.722 433.278 430.803 432.925C432.203 432.46 432.504 433.752 432.682 434.943C432.965 436.911 433.249 438.849 433.559 440.868Z" fill="#FDF0C3"/>
<path d="M257.305 581.535C255.254 580.717 256.076 579.417 256.622 578.314C258.802 573.901 261.042 569.528 263.282 565.145C274.075 543.967 285.265 522.997 297.257 502.45C299.032 499.406 299.894 496.146 298.625 492.6C297.218 488.66 298.189 485.813 302.659 484.848C307.615 483.774 310.013 480.839 309.498 475.717C309.25 473.254 310.489 471.304 311.807 469.383C321.058 455.429 330.285 441.485 339.489 427.55C340.48 426.093 341.63 423.847 343.602 425.265C345.386 426.546 343.394 428.22 342.611 429.441C333.949 442.575 325.243 455.688 316.495 468.782C314.542 471.424 313.386 474.564 313.165 477.834C312.927 483.163 310.192 486.778 304.81 488.019C302.748 488.492 301.113 489.162 301.836 491.496C303.819 497.485 301.242 502.538 298.447 507.325C284.948 530.404 272.351 553.965 260.209 577.762C259.486 579.161 258.842 580.708 257.305 581.535Z" fill="#FDFAF2"/>
<defs>
<linearGradient id="paint0_linear_174_69" x1="50.5" y1="295.5" x2="666.5" y2="284" gradientUnits="userSpaceOnUse">
<stop stop-color="#7BF2E8"/>
<stop offset="1" stop-color="#E2E2F7"/>
</linearGradient>
</defs>
</svg>
