<svg width="687" height="583" viewBox="0 0 687 583" fill="none" xmlns="http://www.w3.org/2000/svg">
<circle cx="403" cy="299" r="284" fill="url(#paint0_linear_390_135)"/>
<path fill-rule="evenodd" clip-rule="evenodd" d="M395.796 423.51L419.207 516.607H460.583V555.261L210.148 560.705V516.607L251.525 512.251L287.456 368.524C287.456 368.524 248.131 303.263 251.525 258.006C259.691 190.498 301.067 152.933 301.067 152.933C301.067 152.933 331.503 118.945 447.705 213.046L456.227 205.741C456.227 205.741 454.594 155.111 501.414 178.521C528.636 222.075 478.004 225.34 478.004 225.34L469.596 235.187C580.933 379.112 519.38 383.768 519.38 383.768C519.38 383.768 489.52 406.623 466.571 414.8C440.425 424.116 395.796 423.51 395.796 423.51Z" fill="#F9D645"/>
<path d="M452.32 4.53485L450.142 7.80138V8.89023C457.192 14.9212 476.799 11.053 486.074 11.0679C509.589 11.1057 535.176 13.614 556.849 23.3846C621.737 52.6367 651.705 138.018 647.126 204.882C645.669 226.156 639.95 246.535 634.157 266.946C645.556 280.24 650.534 259.534 653.382 250.614C660.794 227.388 662.396 201.896 661.336 177.661C658.543 113.878 623.763 35.288 561.204 10.4688C525.989 -3.50213 488.895 -0.0914324 452.32 4.53485ZM259.594 46.9998C258.183 35.7782 267.335 18.4028 280.049 30.0076C284.243 33.8348 284.295 38.7089 285.727 43.7333H287.904C294.936 25.8651 309.176 35.6079 315.125 48.0886C320.223 47.444 325.51 46.0906 330.353 48.5862C340.01 53.5623 337.828 63.3314 329.276 67.8784C312.721 76.6817 282.489 76.4868 263.95 76.3975C259.083 76.3746 243.79 76.1656 243.79 68.7767C243.79 63.1506 252.722 63.9531 255.239 60.0659C238.764 60.2042 234.034 74.8644 251.972 78.9247C272.21 83.5055 305.011 78.7363 324.925 73.3967C349.408 66.832 340.599 37.9359 317.303 44.8221C311.641 29.5926 299.835 27.2929 286.815 35.0225C282.696 25.6838 272.028 19.4754 262.909 26.7679C257.523 31.0747 252.981 41.965 259.594 46.9998ZM455.586 72.0432V77.4874L456.675 78.5763C470.562 77.9807 481.942 75.9936 495.874 79.2884C549.247 91.9146 593.283 142.471 597.039 197.26C598.04 211.865 595.756 226.907 591.318 240.814C588.133 250.792 582.117 260.753 581.892 271.302C591.813 275.986 596.173 266.121 599.87 258.236C607.669 241.604 611.238 222.117 610.874 203.793C609.748 147.148 573.576 96.3931 520.917 75.5319C501.111 67.6846 475.595 61.5424 455.586 72.0432ZM95.1788 141.729C90.3104 135.668 84.9262 131.381 83.556 123.219C82.0413 114.197 86.7216 95.3576 99.5342 100.367C107.912 103.644 111.237 112.481 114.778 119.952C119.578 118.997 149.064 102.75 144.33 122.103C143.876 123.962 142.769 125.834 141.999 127.574L145.266 128.663C160.948 109.819 170.528 125.521 177.931 140.64C186.141 140.737 193.177 147.829 183.327 153.403C177.032 156.967 169.551 155.512 162.687 155.982C147.081 157.05 131.503 157.421 115.867 158.104C107.442 158.474 99.275 161.18 91.9122 155.884L95.1788 151.529H90.8234C85.0596 164.131 101.381 162.596 109.334 162.401C131.689 161.853 160.843 164.128 182.286 157.73C196.961 153.352 193.348 137.424 179.02 137.374C178.218 119.879 163.751 113.275 148.532 118.864C143.275 103.446 126.502 108.842 116.956 116.686C115.101 112.232 113.109 107.407 109.998 103.667C86.6603 75.6125 64.2712 135.492 95.1788 141.729ZM355.413 114.508L354.324 129.752H356.502L355.413 114.508ZM382.634 126.485L379.367 142.818C384.011 139.331 384.695 131.974 384.811 126.485H382.634ZM483.896 137.852C481.098 138.294 470.428 140.48 474.818 145.432C478.445 149.525 490.699 146.914 495.874 148.152C511.935 151.996 526.311 162.286 533.029 177.661C539.85 193.269 537.376 207.285 538.5 223.376C538.783 227.421 541.614 230.853 545.947 230.62C551.813 230.306 552.182 224.635 552.674 220.126C553.89 208.993 553.336 197.315 550.594 186.372C543.008 156.107 516.393 132.721 483.896 137.852ZM337.991 408.496C339.8 400.357 329.365 396.683 323.836 392.389C308.751 380.672 295.485 366.8 285.012 350.787C248.886 295.547 250.815 218.824 296.615 168.95C296.615 197.971 309.838 222.548 325.651 246.258C354.979 290.234 394.201 329.462 438.165 358.772C460.177 373.446 493.931 395.597 522.006 386.474C541.402 380.173 539.853 356.541 535.045 340.988C523.575 303.896 498.513 269.69 471.919 241.903C461.235 242.773 455.29 253.87 448.758 261.502C432.391 280.627 412.839 299.328 398.966 320.3H397.878L364.123 284.368L386.989 266.153L442.52 219.037V215.771L439.254 214.682L440.343 210.326C417.688 189.46 392.773 171.538 365.212 157.793C351.099 150.755 333.418 143.747 317.303 146.44C293.67 150.388 277.623 183.48 268.036 202.705C241.111 256.694 252.339 318.528 286.827 366.031C298.171 381.656 318.281 403.975 337.991 408.496ZM412.033 153.707L405.5 161.328L406.588 162.417L414.21 154.795L412.033 153.707ZM457.764 189.638C455.76 200.437 456.287 215.672 467.564 221.215L462.542 205.971L461.031 189.638H457.764ZM452.32 217.948L455.586 221.215L452.32 217.948ZM305.326 261.502C325.443 297.601 360.275 328.946 393.522 352.648C403.322 359.634 419.156 373.747 431.632 373.653L401.144 353.243L351.057 312.662L319.666 277.835L305.326 261.502ZM541.605 300.701L555.76 296.345C550.308 294.983 545.4 296.579 541.605 300.701ZM609.114 332.277C618.553 328.366 631.591 323.604 628.713 339.899C634.599 338.386 639.722 332.931 646.134 333.658C655.063 334.668 661.496 345.92 653.638 352.346C647.173 357.633 637.518 356.371 629.802 357.83C624.895 358.757 620.524 361.439 615.647 362.348C602.646 364.771 587.33 342.448 603.669 337.721V334.455C587.18 335.702 593.075 356.525 602.585 363.143C612.724 370.199 622.764 362.482 633.068 360.914C640.24 359.823 648.486 360.41 654.797 356.237C662.927 350.864 661.828 337.575 653.655 332.731C646.904 328.732 639.344 330.593 633.068 334.455C629.477 322.467 615.427 321.931 609.114 332.277ZM553.582 343.166L564.471 348.61L555.76 342.077L553.582 343.166ZM550.316 393.252L559.027 396.519L550.316 393.252ZM449.053 395.43V397.608H453.409V395.43H449.053ZM11.3377 511.936C21.012 508.728 29.6349 499.989 37.47 493.639C58.7859 476.367 78.5497 456.383 95.3018 434.628C104.811 422.28 118.2 398.349 136.555 399.904C148.675 400.93 157.56 413.848 165.954 421.252C183.418 436.655 199.552 453.576 217.129 468.844C223.827 474.663 229.587 482.136 237.817 485.804C233.599 471.962 211.06 458.731 200.797 448.768C188.065 436.41 174.757 424.568 161.598 412.666C154.248 406.019 147.12 397.745 136.555 396.736C122.623 395.405 111.407 408.503 103.764 418.296C86.6695 440.201 69.0266 461.475 48.3585 480.175C37.6667 489.849 18.545 499.672 11.3377 511.936ZM290.445 411.4L290.808 412.125L290.445 411.4ZM158.332 418.296C154.421 426.904 149.729 426.411 143.088 420.474H141.999C135.504 426.757 132.695 426.62 124.578 423.74C118.947 432.518 113.182 433.576 108.245 423.74H107.156C107.781 435.145 120.051 438.327 125.666 428.095C132.27 430.497 137.305 430.602 141.999 424.829C148.059 428.988 166.419 429.476 158.332 418.296ZM286.815 419.385C278.809 440.606 272.041 468.525 271.572 491.248H272.66C278.293 474.616 279.976 456.083 284.232 438.984C285.637 433.335 290.15 424.581 286.815 419.385ZM451.231 470.56C468.435 462.385 484.664 448.44 500.229 437.433C505.759 433.522 514.793 424.569 522.006 425.026C533.384 425.749 546.792 443.647 554.671 450.776C582.285 475.763 605.622 505.241 635.246 528.138C643.887 534.819 657.581 547.948 669 547.868C664.884 541.134 654.718 537.425 648.312 532.928C635.1 523.655 623.233 512.757 611.291 501.952C589.317 482.069 570.669 458.918 548.138 439.614C541.455 433.888 530.569 421.363 520.917 421.91C507.586 422.664 489.077 441.528 478.452 449.1C470.178 454.996 455.905 461.413 451.231 470.56ZM495.874 458.583L505.673 455.317H507.851C512.055 459.849 516.713 459.849 520.917 455.317C529.105 459.904 544.144 459.796 541.605 446.606H540.516C534.736 458.125 529.027 453.877 518.739 452.05C514.756 458.791 509.252 453.047 504.584 449.872L496.962 456.405L500.229 446.606C493.976 448.463 493.283 453.097 495.874 458.583ZM208.419 557.668H48.3585C35.3128 557.668 22.1987 557.275 9.16005 557.684C4.94567 557.817 -1.43082 559.516 0.287161 565.23C2.52125 572.662 19.5674 569.645 25.4927 569.645H104.978H442.52H554.671C561.372 569.645 587.694 573.505 588.516 564.197C589.268 555.691 576.12 557.668 571.004 557.668H510.029C517.036 547.006 508.243 540.201 498.051 538.069C497.859 532.144 495.867 527.916 489.341 529.358C485.264 515.966 471.138 526.285 480.63 531.536L478.452 526.091C484.545 524.43 485.895 528.199 486.074 533.713L493.696 531.536L494.785 532.625L492.607 540.246C503.151 543.452 510.351 544.926 507.851 557.668H441.431C441.431 552.784 442.934 544.715 439.535 540.719C435.557 536.042 424.797 537.329 421.863 542.543C419.449 546.83 420.991 553.136 421.832 557.668H394.611C398.243 545.351 390.544 543.807 380.456 544.602L379.367 545.691L380.456 557.668H214.952C213.11 548.173 208.779 536.17 214.957 527.325C218.457 522.318 225.793 522.357 231.284 521.468C245.96 519.093 261.09 518.642 275.927 518.465C315.7 517.993 355.991 515.964 395.7 519.743C410.18 521.121 424.76 521.629 439.254 523.01C447.113 523.758 455.492 526.194 463.208 523.914V520.647L462.119 519.558C399.154 516.855 337.044 508.594 273.749 512.928C258.494 513.973 243.188 513.569 228.018 516.024C221.698 517.046 214.345 517.197 210.273 522.885C203.211 532.749 207.037 546.794 208.419 557.668ZM177.931 515.203L182.286 534.802C177.062 537.58 174.987 540.895 174.664 546.779C166.839 544.938 160.065 546.925 158.332 555.49L177.931 550.046C178.021 542.356 180.881 538.503 188.819 538.069L180.109 518.47L194.264 528.269C191.471 521.079 185.476 516.564 177.931 515.203Z" fill="black"/>
<path d="M427.276 543.513V557.668H435.987L433.81 543.513H427.276ZM384.812 550.046L383.723 557.668H390.256L389.167 550.046H384.812Z" fill="white"/>
<defs>
<linearGradient id="paint0_linear_390_135" x1="107.5" y1="310.5" x2="723.5" y2="299" gradientUnits="userSpaceOnUse">
<stop stop-color="#FFC69C"/>
<stop offset="1" stop-color="#F7E2F1"/>
</linearGradient>
</defs>
</svg>
