<svg width="30" height="30" viewBox="0 0 30 30" fill="none" xmlns="http://www.w3.org/2000/svg">
<path d="M4.33594 30C1.94508 30 0 28.0549 0 25.6641V14.5312C0 12.1404 1.94508 10.1953 4.33594 10.1953C6.7268 10.1953 8.67188 12.1404 8.67188 14.5312V25.6641C8.67188 28.0549 6.7268 30 4.33594 30ZM4.33594 12.5391C3.23742 12.5391 2.34375 13.4327 2.34375 14.5312V25.6641C2.34375 26.7626 3.23742 27.6562 4.33594 27.6562C5.43445 27.6562 6.32812 26.7626 6.32812 25.6641V14.5312C6.32812 13.4328 5.43445 12.5391 4.33594 12.5391ZM15 30C12.6091 30 10.6641 28.0549 10.6641 25.6641V20.8594C10.6641 18.4685 12.6091 16.5234 15 16.5234C17.3909 16.5234 19.3359 18.4685 19.3359 20.8594V25.6641C19.3359 28.0549 17.3909 30 15 30ZM15 18.8672C13.9015 18.8672 13.0078 19.7609 13.0078 20.8594V25.6641C13.0078 26.7626 13.9015 27.6562 15 27.6562C16.0985 27.6562 16.9922 26.7626 16.9922 25.6641V20.8594C16.9922 19.7609 16.0985 18.8672 15 18.8672ZM25.6641 30C23.2732 30 21.3281 28.0549 21.3281 25.6641V15.4102C21.3281 13.0193 23.2732 11.0742 25.6641 11.0742C28.0549 11.0742 30 13.0193 30 15.4102V25.6641C30 28.0549 28.0549 30 25.6641 30ZM25.6641 13.418C24.5655 13.418 23.6719 14.3116 23.6719 15.4102V25.6641C23.6719 26.7626 24.5655 27.6562 25.6641 27.6562C26.7626 27.6562 27.6562 26.7626 27.6562 25.6641V15.4102C27.6562 14.3117 26.7626 13.418 25.6641 13.418ZM19.1487 12.9521L25.6339 6.14004C26.0802 5.67129 26.062 4.92949 25.5932 4.48324C25.1245 4.03693 24.3827 4.05521 23.9365 4.52396L17.4407 11.3471C17.4332 11.355 17.4257 11.363 17.4184 11.3712C16.8076 12.05 15.7734 12.1454 15.049 11.5954L7.60887 4.83656C7.58906 4.81863 7.56873 4.80135 7.54781 4.78477C5.9751 3.54105 3.75164 3.61148 2.26084 4.95223C2.24707 4.96465 2.23354 4.97736 2.22041 4.99037L0.347813 6.84264C-0.112383 7.29779 -0.116426 8.03977 0.338789 8.4999C0.793828 8.95998 1.5358 8.96408 1.996 8.50893L3.84627 6.67875C4.47627 6.12744 5.40047 6.09592 6.06627 6.6017L13.5066 13.3606C13.5263 13.3785 13.5467 13.3958 13.5676 13.4123C14.3163 14.0044 15.2143 14.294 16.1082 14.2939C17.2297 14.2939 18.3445 13.838 19.1487 12.9521ZM30 6.67969V3.51562C30 1.57711 28.4229 0 26.4844 0H23.3203C22.6731 0 22.1484 0.524648 22.1484 1.17188C22.1484 1.8191 22.6731 2.34375 23.3203 2.34375H26.4844C27.1305 2.34375 27.6562 2.86945 27.6562 3.51562V6.67969C27.6562 7.32691 28.1809 7.85156 28.8281 7.85156C29.4754 7.85156 30 7.32691 30 6.67969Z" fill="white"/>
</svg>
