<svg width="568" height="600" viewBox="0 0 568 600" fill="none" xmlns="http://www.w3.org/2000/svg">
<circle cx="284" cy="284" r="284" fill="url(#paint0_linear_277_120)"/>
<path d="M37.1047 563.396L33.5947 519.824H86.2438V563.396H37.1047Z" fill="white"/>
<path d="M186.348 558.142L167.475 518.805L216.557 499.558L232.158 540.178L186.348 558.142Z" fill="white"/>
<path d="M46.8754 293.171L36.325 282.711C32.9757 284.106 26.3776 286.895 26.7795 286.895C3.06604 316.181 5.17613 426.004 9.19536 477.254C10.7026 490.851 0.654279 515.953 0.151876 515.43C-1.85774 540.533 16.7312 541.056 17.2336 541.579C35.3201 534.257 41.8514 545.762 42.8562 545.762C77.0197 548.691 98.958 535.129 105.657 527.982L109.676 519.091L110.681 493.466L107.666 467.841L94.6038 411.361L97.1158 409.792L102.642 417.636L107.666 427.05L109.676 436.986L112.188 447.445L116.71 469.933C122.738 502.879 131.782 522.229 131.782 522.752C138.815 534.257 149.868 535.303 149.366 535.303C155.395 536.349 170.467 534.257 170.969 534.257C183.429 533.002 201.281 523.972 208.649 519.614L210.157 517.522L213.171 513.339L217.19 509.678L221.21 506.54L226.736 504.971H230.253C245.124 491.165 239.129 478.3 234.272 473.593L223.219 464.703L214.678 454.244L208.147 436.986L198.099 409.792L186.041 383.644L171.974 353.312L152.38 321.934L134.796 298.923L114.7 303.63L93.599 307.291L69.4836 303.63L46.8754 293.171Z" fill="#FECD00"/>
<path d="M254.22 122.103L214.107 169.728L226.141 180.874L230.653 190.501L226.141 199.621V215.327L220.625 218.873L217.115 231.033H208.09L203.577 239.646L189.036 243.193L183.019 251.806L214.107 249.272L245.195 236.606L277.285 215.327L300.351 194.554L318.903 173.275L323.416 159.088L321.41 150.475V139.329L318.903 135.782V127.169L313.889 116.023L318.903 104.37V92.2104H311.883L282.3 119.063L277.285 116.023L272.271 104.37L264.249 107.917L254.22 122.103Z" fill="white"/>
<path d="M33.8449 143.841C28.3144 151.781 21.5451 158.302 17.1681 167.147C3.34714 195.078 3.58 231.059 12.4363 260.371C14.6505 267.699 11.0893 275.041 16.3533 281.544C23.4442 290.303 32.7378 284.499 40.1482 289.158C63.2792 303.702 91.0619 317.587 119.086 306.983L116.859 329.275L112.066 344.475C123.429 335.121 124.099 318.668 124.1 304.956C142.502 301.652 159.198 285.159 170.944 271.517C175.393 266.35 179.576 256.688 185.458 253.306C189.912 250.746 197.367 252.444 202.322 252.225C210.413 251.866 218.683 249.707 226.39 247.314C253.624 238.86 276.653 220.631 296.589 200.585C310.976 186.117 330.392 169.724 325.204 147.894C323.798 141.978 326.792 137.636 320.657 133.708C324.679 124.075 316.771 122.498 316.868 114.44C316.957 107.086 324.724 101.092 323.001 93.1911C321.383 85.7737 313.425 86.6827 308.623 90.0782C297.918 97.6466 289.729 109.112 279.54 117.495C278.385 112.596 279.253 105.431 274.312 102.477C268.42 98.9548 261.865 103.793 258.405 108.391C252.908 115.696 248.95 124.164 243.718 131.681C237.927 140.004 215.885 159.771 214.356 170.235C227.027 160.811 250.614 131.829 258.685 118.508C260.679 115.217 265.502 106.261 270.366 107.713C274.923 109.073 272.975 116.98 274.845 120.323C276.722 123.678 280.736 125.773 283.251 128.657C287.201 133.188 289.238 140.005 294.583 142.828L295.586 141.814C293.994 134.126 290.83 126.446 284.555 121.548V120.535L316.646 92.1626C318.503 100.91 311.004 106.933 310.922 115.469C310.875 120.503 316.098 122.986 316.393 127.628C316.652 131.693 309.889 139.83 318.651 137.761C320.016 142.39 317.32 144.427 317.38 148.763C317.429 152.282 321.95 153.017 321.751 157.033C321.046 171.322 301.126 188.248 291.39 197.058C261.193 224.38 231.623 247.198 189.285 247.198V246.185C196.253 243.316 210.691 245.066 210.345 235.038C225.644 230.64 227.961 214.104 229.834 200.586C230.503 195.755 234.016 192.64 232.593 187.413C230.247 178.797 221.283 171.611 214.356 166.711C205.568 160.496 193.521 160.004 185.422 154.122C179.319 149.689 184.115 140.426 173.24 142.031C165.425 143.184 157.762 149.857 152.18 155.079C149.926 157.186 146.726 161.806 143.154 160.857C137.304 159.305 131.533 150.033 127.109 146.044C118.627 138.395 109.852 134.518 99.0294 131.681V130.668C115.673 123.271 114.732 105.353 108.055 91.1493C135.979 78.938 97.3236 54.9739 80.9783 55.7232C70.0484 56.2248 59.6921 63.4902 54.2515 72.9099C51.5557 77.5771 50.6788 83.74 47.2339 87.8814C42.9723 93.0047 34.8765 94.6938 29.8737 99.432C17.5846 111.069 14.5255 137.204 33.8449 143.841Z" fill="black"/>
<path d="M75.9641 95.2023C77.2227 101.876 82.3542 107.033 75.9641 112.428L67.9414 106.349C68.1279 114.17 72.8764 120.677 72.8764 128.641C72.8764 133.369 68.8981 140.37 71.0211 144.678C73.8882 150.498 89.5676 160.612 93.2561 150.888C95.2678 145.585 91.7628 138.334 92.0095 132.694L80.9783 129.655V128.641C92.4979 125.869 106.329 126.131 107.011 110.402C107.216 105.682 104.987 101.75 105.046 97.2289C96.046 96.3463 104.314 105.973 99.0294 110.402L101.035 107.362C98.2051 100.759 96.755 98.7509 103.041 94.189L75.9641 95.2023Z" fill="white"/>
<path d="M439.994 0.382514C406.955 4.65855 380.459 29.9176 376.103 63.7897C370.804 104.997 398.888 152.021 445.009 147.59C485.686 143.682 512.858 103.859 509.02 63.7897C505.949 31.7218 474.663 -4.10439 439.994 0.382514Z" fill="black"/>
<path d="M388.85 111.415C397.2 105.859 408.088 103.205 415.818 97.378C419.904 94.2965 420.471 88.8743 424.164 85.4686C429.442 80.6007 446.343 78.9602 453.031 81.2989C460.013 83.7399 461.697 91.9183 468.078 95.3808C476.498 99.9497 485.124 103.472 491.14 111.415H493.145C499.268 100.814 503.601 88.3069 504.137 75.9497C504.592 65.465 503.025 55.4106 499.468 45.5506C486.904 10.7277 442.503 -4.57689 411.915 15.243C381.646 34.8564 370.608 79.7161 388.85 111.415Z" fill="white"/>
<path d="M435.984 24.7417C427.604 26.2685 414.798 34.3203 413.158 43.5675C410.667 57.6198 424.221 79.2812 439.995 76.6253C458.77 73.4628 472.687 38.4633 454.889 26.3883C450.072 23.12 441.434 23.7486 435.984 24.7417Z" fill="black"/>
<path d="M427.379 45.6732C414.598 52.8825 431.295 76.4389 444.916 69.289C449.715 66.771 456.089 54.168 450.422 49.6317C447.674 47.4331 441.407 48.323 437.99 47.419C435.032 46.6367 430.358 43.9925 427.379 45.6732Z" fill="white"/>
<path d="M391.858 115.469C406.303 140.719 445.773 149.677 470.08 134.651C475.565 131.261 486.876 124.561 487.954 117.495C489.361 108.273 469.841 102.388 464.078 98.7703C459.12 95.6585 457.289 88.0385 451.974 86.1557C447.053 84.4129 431.452 85.5609 427.353 88.8613C422.795 92.5314 422.318 98.8686 416.925 102.301C408.539 107.64 399.544 108.385 391.858 115.469Z" fill="#FECD00"/>
<path d="M442 97.2284V99.255C447.457 100.881 456.848 101.159 458.045 94.1885L442 97.2284ZM85.9922 100.268L93.0121 99.255V97.2284L85.9922 100.268ZM90.0035 101.282L89.0007 102.295V104.322L90.0035 105.335H92.0092L93.0121 104.322V102.295L92.0092 101.282H90.0035ZM91.0064 113.441L98.0263 116.481L91.0064 113.441Z" fill="black"/>
<path d="M97.0235 135.734C97.3525 139.799 98.8818 143.822 98.8447 147.894C98.7725 155.97 91.9943 162.614 83.9866 159.94C77.1824 157.668 73.0246 151.895 66.9384 148.673C62.3022 146.219 41.2271 145.78 36.8679 148.52C28.4053 153.84 21.8064 167.084 18.4964 176.266C9.22839 201.975 9.50667 231.18 16.7964 257.33H18.8021L25.822 251.25C23.6404 259.362 16.7756 265.217 19.1209 274.552C20.4606 279.885 29.2346 285.143 34.3469 281.62C37.6694 279.331 38.8475 272.971 40.6486 269.49C44.4725 262.101 49.7832 254.993 55.911 249.4C61.0186 244.738 67.2031 240.336 73.9582 238.599C77.0911 237.794 83.2365 237.926 84.2353 233.878C85.6874 227.996 74.3885 222.37 71.1352 218.785C63.1667 210.002 54.0442 182.39 64.9327 173.226C67.7156 185.037 64.3731 197.26 69.8626 208.692C75.6861 220.82 91.8208 223.501 89.0008 239.091L92.0093 240.104C100.443 225.654 111.468 210.789 118.079 195.519C120.659 189.559 123.627 182.876 121.39 176.27C118.711 168.362 109.187 165.244 105.046 158.027L106.049 157.013C116.343 164.247 126.816 170.482 127.109 184.372C130.745 180.881 140.082 172.506 139.953 167.146C139.851 162.939 133.798 158.704 131.12 156C121.019 145.797 111.208 138.514 97.0235 135.734Z" fill="white"/>
<path d="M177.251 146.88C166.554 148.507 158.51 156.688 151.177 164.107C134.867 180.607 119.72 200.627 108.206 220.851C104.689 227.028 100.123 240.864 93.8299 244.344C89.8567 246.541 83.7474 241.855 78.9729 242.813C63.493 245.918 43.9326 262.886 41.8043 279.623C40.9444 286.386 51.0901 291.227 55.9076 293.949C73.1173 303.672 93.6905 307.233 113.069 303.475C134.924 299.239 153.951 284.356 167.94 267.462C174.339 259.734 178.798 250.062 186.292 243.335C191.599 238.57 199.233 240.766 203.708 237.036C206.284 234.889 202.914 230.181 205.834 228.647C209.093 226.935 213.612 230.578 216.163 226.492C218.378 222.945 213.374 219.442 215.276 216.396C217.629 212.624 223.821 215.72 225.025 209.686C225.89 205.356 222.055 202.642 221.904 198.704C221.77 195.225 226.957 194.383 227.135 190.433C227.538 181.493 212.921 172.105 206.333 168.085C196.496 162.082 175.181 162.527 177.251 146.88Z" fill="white"/>
<path d="M362.776 182.346V185.386C401.657 188.487 440.029 192.479 479.105 192.479C488.184 192.479 497.157 191.597 506.182 191.47C508.439 191.438 515 192.157 515 188.426C515 184.967 509.33 185.368 507.185 185.559C497.805 186.396 488.536 186.399 479.105 186.399C440.217 186.399 401.469 182.372 362.776 182.346ZM363.779 219.838V223.892C394.854 230.373 426.171 235.396 458.046 233.985C465.713 233.646 473.473 232.82 481.11 231.993C483.086 231.779 487.781 231.292 487.207 228.157C486.707 225.428 482.018 225.891 480.108 226.009C472.755 226.468 465.38 227.067 458.046 227.773C426.06 230.848 395.303 222.352 363.779 219.838ZM508.188 230.985C510.889 222.764 518.766 233.209 508.188 230.985ZM363.779 258.344V261.384C375.51 262.883 387.029 264.424 398.878 264.424C403.998 264.424 409.158 265.423 411.915 260.371C398.245 256.288 378.132 258.346 363.779 258.344ZM449.02 265.437V269.49H461.054C459.311 264.184 453.723 265.437 449.02 265.437ZM108.055 317.115C104.228 328.538 103.987 341.725 101.637 353.594C98.2291 370.808 91.4318 389.596 93.1838 407.299C95.4612 430.323 104.497 453.023 107.629 476.204C109.008 486.412 112.601 500.818 108.573 510.652C107.011 514.467 103.91 516.078 101.695 519.264C100.513 520.966 100.825 523.041 103.194 523.159C121.027 524.049 115.062 490.623 114.022 481.271C112.325 466.012 110.19 450.54 106.315 435.672C103.452 424.685 98.197 412.729 98.6222 401.22C99.4244 379.518 107.411 358.146 109.144 336.368C109.64 330.129 111.589 323.227 110.061 317.115H108.055ZM195.302 476.204C204.76 475.219 213.517 466.964 216.362 457.965C209.264 456.951 197.189 469.549 195.302 476.204ZM38.859 493.43C37.0077 490.827 19.9996 483.842 17.9758 486.952C16.4542 489.29 20.2655 491.461 21.8301 492.225C27.0827 494.791 33.3469 495.077 38.859 493.43ZM75.964 496.47H82.9839L81.9811 492.417L75.964 496.47ZM182.265 545.109C179.999 538.816 176.407 528.05 169.228 526.869C171.489 539.689 181.189 552.824 187.033 564.361C189.516 569.26 192.233 575.717 197.323 578.366C203.11 581.379 211.548 578.478 217.364 576.815C233.111 572.314 265.756 563.039 272.511 546.122C278.422 531.319 259.75 530.976 251.461 531.936L254.469 526.869C248.736 525.981 246.699 528.52 242.435 531.936L246.447 522.816C240.332 520.271 238.034 522.895 233.41 526.869L239.427 518.763C238.05 514.035 234.153 502.236 229.902 499.579C224.057 495.927 213.112 505.294 211.797 510.656C209.894 518.417 219.786 525.814 214.036 532.843C208.033 540.181 191.159 542.98 182.265 545.109ZM20.8079 555.242L30.8363 559.295C24.5727 559.024 20.2204 555.379 17.7994 563.348L24.8192 568.415C19.2629 567.759 15.9053 565.457 11.7823 570.441L15.7937 573.481C5.90218 572.336 -5.5366 584.444 2.98583 593.612C7.71091 598.695 16.2622 599.65 22.8136 599.812C37.5867 600.178 52.3762 600.278 66.9385 597.536C73.1531 596.366 82.2107 595.497 85.9022 589.588C89.2817 584.18 87.8657 576.506 88.0131 570.441C88.324 557.613 89.0009 544.827 89.0009 531.936C81.3974 534.425 83.9867 547.738 83.9867 554.228C74.6032 554.306 59.4603 561.597 50.9124 557.087C42.7408 552.775 48.1461 542.544 43.3076 536.099C39.9812 531.669 24.4431 527.202 21.4524 534.28C19.5357 538.818 21.0334 549.935 20.8079 555.242Z" fill="black"/>
<defs>
<linearGradient id="paint0_linear_277_120" x1="-11.5" y1="295.5" x2="604.5" y2="284" gradientUnits="userSpaceOnUse">
<stop stop-color="#7BF2EB"/>
<stop offset="1" stop-color="#EDF7E2"/>
</linearGradient>
</defs>
</svg>
