<svg width="597" height="684" viewBox="0 0 597 684" fill="none" xmlns="http://www.w3.org/2000/svg">
<circle cx="313" cy="399.788" r="284" fill="url(#paint0_linear_174_71)"/>
<path d="M194.322 260.402C194.899 252.992 196.567 245.742 198.144 238.511C198.875 235.189 198.027 234.325 194.727 233.746C157.999 227.369 122.74 216.619 90.0768 198.441C76.5197 190.775 63.7481 181.827 51.9418 171.722C46.9203 167.492 41.5921 163.822 38.2835 157.864C33.0239 148.578 31.6828 137.617 34.5511 127.36C35.5428 123.566 34.8757 120.832 32.6219 117.652C26.7619 109.387 21.6321 100.659 19.5225 90.5859C19.1709 88.8848 17.8546 88.2436 16.7638 87.2728C12.5085 83.5233 8.1451 79.8806 4.06113 75.9618C1.52781 73.5215 -1.52844 70.7249 0.869651 66.7616C3.15054 63.0032 6.84684 63.4574 10.4981 64.7399C10.7325 64.8201 11.048 64.6775 11.8143 64.5796C10.426 62.2194 9.10969 60.0196 7.83853 57.7663C6.79274 55.8959 5.9453 53.9187 7.73035 52.0306C9.51539 50.1425 11.8504 50.6056 13.9329 51.6922C15.3754 52.4492 16.6376 53.4734 18.7021 54.8094C17.476 52.3067 16.4933 50.4097 15.6188 48.4592C14.9336 46.9362 14.4739 45.3064 15.709 43.8457C16.9441 42.3851 18.8643 42.296 20.6945 42.6167C23.1196 43.0442 25.085 44.4514 27.1315 45.7339C27.3118 45.5112 27.6183 45.2797 27.5822 45.1639C26.6807 42.0734 25.7792 38.9295 29.2862 36.8543C32.7931 34.7791 35.9395 36.3644 38.7162 38.7246C45.9285 44.87 51.1124 52.7876 56.9364 60.0997C58.3969 61.9344 59.8663 63.7602 61.7325 66.0937C62.6341 62.5311 63.3012 59.6633 64.1036 56.84C64.8148 54.1036 66.068 51.5336 67.7908 49.2786C69.5308 47.0876 71.6134 45.4756 74.6966 45.9743C77.7799 46.4731 79.637 48.6462 80.6378 51.4428C81.981 55.1567 81.5934 59.0488 81.4582 62.9052C81.323 66.7616 81.2057 70.6091 81.1787 74.4834C81.1787 82.499 83.9915 89.5083 89.1303 95.7071C102.653 112.059 117.925 126.79 133.892 140.764C144.881 150.383 158.891 154.649 172.252 159.877C188.561 166.254 205.501 170.956 221.693 177.69C222.286 177.806 222.891 177.853 223.496 177.832C220.484 173.628 219.484 168.926 215.292 165.684C210.901 162.308 210.604 158.844 213.245 153.883C214.147 152.244 213.245 151.505 212.722 150.374C209.783 144.451 211.703 140.23 218.231 138.947C220.115 138.573 220.566 137.344 221.422 136.275C231.038 123.806 243.81 117.447 259.737 117.198C261.992 117.15 264.24 117.451 266.4 118.089C271.881 119.736 276.245 122.658 277.597 128.5C278.949 134.343 275.668 138.065 270.772 141.485C273.711 143.917 275.28 146.918 274.712 150.695C274.433 152.601 273.771 154.434 272.767 156.086C271.762 157.737 270.434 159.175 268.861 160.313C263.713 163.992 264.461 169.994 261.559 175.133C273.81 170.787 285.422 166.619 297.07 162.558C310.079 158.015 322.953 153.153 335.557 147.595C343.147 144.35 350.111 139.83 356.139 134.236C369.157 121.936 382.283 109.717 394.13 96.2771C402.244 87.1392 406.138 77.0306 405.336 64.9536C405.02 60.2333 404.434 55.4863 405.228 50.7036C405.85 46.7848 407.301 43.3203 411.719 42.6879C415.92 42.0734 418.3 44.8789 420.148 48.1564C422.546 52.4225 423.096 57.3031 424.719 62.6558C428.532 57.7663 431.931 53.5091 435.24 49.1361C438.485 44.6659 442.129 40.4928 446.13 36.6673C447.317 35.5351 448.605 34.5126 449.98 33.6124C452.432 32.036 455.092 31.6708 457.562 33.4877C460.79 35.8657 459.365 39.0363 458.545 42.3406C460.853 41.2629 462.863 40.2031 464.964 39.3926C466.866 38.6623 468.93 38.6712 470.445 40.1852C472.086 41.8418 471.346 43.7478 470.445 45.529C469.769 46.9807 469.03 48.4147 467.848 50.7926C469.949 49.5814 471.202 48.762 472.537 48.1208C474.493 47.15 476.521 46.5889 478.379 48.3167C480.236 50.0445 479.713 52.0841 478.622 53.99C477.225 56.4392 475.737 58.8439 473.988 61.7563C475.737 61.2575 477.044 60.8033 478.379 60.5183C479.694 60.1426 481.098 60.2001 482.378 60.6822C483.658 61.1642 484.745 62.0445 485.474 63.1902C487.141 65.5682 486.168 67.8304 484.662 69.7541C480.695 74.8485 475.647 78.8296 470.625 82.8731C468.419 84.5562 466.863 86.9359 466.217 89.6152C463.71 99.0291 458.761 107.428 453.054 115.247C451.044 117.991 450.864 120.297 451.639 123.361C454.767 135.607 453.262 147.132 445.878 157.748C441.857 163.546 435.745 166.949 430.552 171.348C401.811 195.538 368.283 210.634 332.419 221.179C321.37 224.51 310.129 227.187 298.756 229.195C295.718 229.711 295.637 230.78 296.259 233.274C299.513 246.375 302.461 259.547 303.823 273.005C304.291 277.645 304.111 282.232 302.317 286.569C302.025 287.32 301.887 288.121 301.91 288.925C301.934 289.729 302.118 290.52 302.452 291.254C316.733 331.938 324.54 374.011 329.76 416.619C332.374 437.994 334.547 459.369 336.882 480.69C337.128 482.306 337.176 483.944 337.026 485.571C335.944 493.48 339.073 500.32 342.436 507.142C343.337 510.535 339.136 511.533 339.262 514.151C340.696 512.842 340.795 509.511 344.139 509.636C346.745 511.542 347.673 513.599 344.879 516.146C344.415 516.727 344.105 517.413 343.977 518.141C343.662 519.175 342.526 520.537 344.176 521.161C345.537 521.668 345.609 520.074 346.06 519.228C346.973 517.542 347.875 515.858 348.764 514.178L352.839 516.164C353.795 518.168 351.784 519.246 351.37 520.885C352.83 519.994 352.677 517.518 354.913 517.536C358.916 520.145 362.973 522.684 366.903 525.391C369.117 526.946 370.939 528.981 372.231 531.341C375.423 537.005 374.341 541.137 368.787 544.522C366.111 546.191 363.116 547.3 359.988 547.782C339.167 550.829 317.988 550.595 297.241 547.087C293.085 546.365 288.695 545.083 287.045 539.463C314.298 544.927 342.471 543.96 369.274 536.64C366.516 534.752 364.767 535.749 363.207 536.07C338.823 541.397 313.608 541.867 289.037 537.45C286.468 536.996 285.63 535.838 285.134 533.523C282.988 523.494 282.718 513.234 281.239 503.125C280.797 500.115 280.031 498.833 276.84 498.423C265.534 496.98 265.255 496.891 263.605 485.705C260.756 466.449 260.377 446.989 259.575 427.582C259.26 419.905 258.034 412.771 254.599 405.726C250.091 396.41 247.792 386.195 244.682 375.65C237.343 386.266 229.878 396.134 221.314 405.04C199.01 428.134 183.909 455.682 170.161 484.119C168.285 487.994 166.338 491.859 164.102 495.528C159.36 503.295 154.492 505.396 145.567 503.25C142.943 502.627 141.78 503.25 140.59 505.334C137.038 511.693 132.864 517.803 129.871 524.349C127.932 528.633 126.598 533.104 123.659 536.952C122.072 539.027 120.549 539.623 117.97 539.089C92.6012 533.932 69.4317 523.948 48.7684 508.451C47.1907 507.276 45.8744 505.477 43.4222 505.325C48.9126 515.701 83.667 532.828 118.538 542.482C116.312 546.312 112.805 546.935 108.901 546.517C103.24 545.764 97.7066 544.267 92.4479 542.064C78.8347 536.604 65.1674 531.243 52.6451 523.494C48.534 520.947 44.7566 518.043 42.0429 514.018C38.6081 508.897 39.5005 504.524 44.5672 500.97C49.9764 497.194 56.2872 496.651 62.598 496C65.2485 495.715 64.9871 498.12 65.7174 499.563C66.2583 500.641 65.9067 502.938 67.6015 502.457C69.4677 501.923 68.2506 499.99 67.9171 498.672C67.6317 497.788 67.2914 496.923 66.8983 496.081C70.6487 494.077 71.406 496.846 72.56 499.224C73.1099 500.347 72.0821 503.09 74.4171 502.359C76.4456 501.736 74.7056 499.554 74.6786 498.058C74.6786 496.855 72.4698 496 73.9123 494.78C74.8719 494.043 76.0847 493.704 77.2931 493.836C79.565 494.21 79.0962 496.561 79.7904 498.084C80.2682 499.171 79.3306 501.424 81.2779 501.157C83.0269 500.908 83.081 498.423 82.3958 497.39C79.3486 492.732 82.477 490.585 85.5422 487.878C90.3925 483.603 94.0076 478.25 97.0187 472.586C106.701 454.346 117.511 436.729 127.797 418.827C150.696 378.892 173.764 339.033 196.999 299.251C199.974 294.175 200.867 290.203 196.999 285.669C196.702 284.289 197.639 284.333 198.487 284.52C199.721 284.824 200.927 285.229 202.093 285.732C213.398 297.702 228.148 300.498 243.771 301.264C256.974 301.873 270.16 299.749 282.483 295.03C288.965 292.616 294.762 289.553 298.017 283.14C302.245 278.375 302.705 272.452 299.234 267.269C298.536 266.304 297.892 265.302 297.305 264.268C295.664 260.705 295.556 256.777 294.78 253.01C291.607 237.584 287.442 222.408 283.493 207.169C282.808 204.497 281.284 200.935 284.971 199.92C288.659 198.904 289.317 202.77 290.038 205.406C291.372 210.269 292.743 215.132 293.969 220.03C294.663 222.8 295.709 224.02 298.936 223.388C324.914 218.485 350.221 210.594 374.341 199.875C388.36 193.41 401.799 185.783 414.514 177.075C421.528 172.403 427.971 166.946 433.716 160.812C428.702 159.564 423.881 157.656 419.382 155.139C409.113 149.091 402.712 139.998 398.133 129.382C395.169 122.751 392.589 115.96 390.406 109.04C383.879 115.577 377.785 121.446 371.826 127.485C365.878 133.359 359.573 138.87 352.947 143.988C346.817 148.878 339.424 151.567 332.293 154.774C312.324 163.813 291.399 170.369 270.88 177.983C269.753 178.402 268.681 178.963 267.527 179.302C264.308 180.255 263.776 182.045 264.308 185.358C265.976 195.885 265.94 206.19 256.961 214.161C255.644 215.382 254.163 216.419 252.561 217.242C250.587 218.195 248.432 218.926 246.909 216.717C245.16 214.214 247.251 212.86 249.054 211.81C257.033 207.125 260.477 197.764 256.456 184.904C255.807 187.798 255.996 190.773 256.005 193.712C256.129 197.436 255.366 201.136 253.778 204.515C250.497 211.142 244.24 214.072 236.965 212.451C231.654 211.275 227.814 205.967 227.534 199.252C227.372 195.253 227.534 191.236 227.453 186.231C225.254 191.637 224.848 196.197 226.083 200.935C226.942 204.241 228.063 207.475 229.437 210.607C230.176 212.29 230.861 214.232 228.652 215.256C226.444 216.28 225.389 214.366 224.505 212.878C220.196 205.415 217.978 197.488 220.304 188.965C221.386 185.037 220.457 183.185 216.5 181.751C199.452 175.561 182.367 169.433 165.319 163.217C144.268 155.548 126.409 143.57 111.002 127.707C106.241 122.809 101.085 118.32 96.4237 112.567C94.6206 115.372 94.0076 118.115 93.1151 120.707C89.7884 130.308 85.5602 139.41 79.2945 147.56C73.6278 154.942 65.7365 160.359 56.756 163.03C55.5209 163.422 54.0514 163.448 52.9606 164.811C54.7737 166.95 56.7837 168.917 58.9648 170.689C81.3591 189.17 106.746 202.378 134.027 212.282C152.959 219.166 172.577 223.619 192.257 227.823C198.433 229.141 198.721 228.936 199.866 222.702C200.768 217.59 201.669 212.477 202.742 207.383C203.112 205.602 203.644 203.153 206.267 203.696C208.647 204.195 208.782 206.368 208.413 208.425C205.6 223.895 203.391 239.481 199.65 254.782C198.748 256.947 197.477 258.968 196.945 261.311C196.918 261.534 196.841 261.749 196.719 261.94C196.598 262.13 196.435 262.292 196.243 262.413C196.05 262.534 195.834 262.611 195.607 262.639C195.381 262.667 195.151 262.645 194.935 262.575C193.808 262.192 193.979 261.284 194.322 260.402Z" fill="#242323"/>
<path d="M205.041 0C206.97 4.82721 208.918 8.83503 210.162 13.0477C211.352 17.1179 213.993 18.6854 217.879 19.2821C221.141 19.7465 224.377 20.3827 227.57 21.1881C230.735 21.9807 231.474 23.7531 229.022 26.2379C228.27 27.1661 227.382 27.9794 226.389 28.6515C218.564 32.8464 217.681 39.3391 219.871 46.9985C220.548 49.3854 221.674 52.7252 219.682 54.1235C217.428 55.7267 214.967 52.9212 213.245 51.4071C206.781 45.7071 200.533 44.0327 193.222 50.1958C191.022 52.0484 187.1 54.5688 184.802 52.9568C182.503 51.3448 184.72 47.2835 185.703 44.7719C189.012 36.5959 187.425 30.3259 179.906 25.4631C178.671 24.6615 176.634 23.4859 177.454 21.669C178.184 20.0392 180.33 20.5201 181.962 20.4399C195.665 19.7898 192.257 22.2212 198.604 9.94832C200.376 6.41048 202.535 3.07458 205.041 0Z" fill="#FDCD00"/>
<path d="M144.908 54.5245C144.908 57.6507 143.331 57.2766 141.807 56.7689C138.129 55.5221 134.351 54.4711 130.826 52.8858C127.031 51.1758 124.371 51.9951 121.811 55.1124C119.347 57.911 116.457 60.3147 113.246 62.2374C112.273 62.8698 111.245 64.1345 110.1 63.5734C108.739 62.8965 109.199 61.2132 109.117 59.9307C109.009 55.6378 108.829 51.3361 108.955 47.0521C109.1 45.9524 108.878 44.8359 108.324 43.8717C107.769 42.9075 106.911 42.1481 105.881 41.7083C103.086 40.2922 100.472 38.5911 97.767 36.9434C96.8113 36.3556 95.3058 35.937 95.6213 34.4675C95.9008 33.1315 97.4244 33.0068 98.4973 32.6862C101.202 31.9114 103.97 31.1454 106.746 30.5131C109.667 29.8362 111.335 28.3399 111.912 25.2227C112.778 20.2682 114.103 15.4027 115.87 10.6876C116.24 9.75242 116.212 8.36304 117.403 8.22945C118.593 8.09585 119.034 9.36946 119.629 10.2067C121.432 12.7539 123.506 15.1675 124.957 17.8928C127.247 22.1946 130.619 23.5216 135.298 22.8982C138.128 22.5655 140.98 22.4642 143.827 22.5953C147.947 22.7289 148.731 24.0916 146.603 27.5205C144.656 30.6734 142.492 33.755 140.293 36.6673C139.066 38.2794 138.958 39.5352 139.815 41.45C141.789 45.9121 143.376 50.5434 144.908 54.5245Z" fill="#FDCD00"/>
<path d="M342.589 28.5004C351.938 33.3187 357.996 28.0996 363.117 19.7455C364.55 17.421 366.552 13.5111 369.328 14.2236C371.645 14.8026 371.483 19.1844 371.564 21.8029C371.79 29.9165 375.982 34.0401 383.69 35.7679C386.295 36.3468 390.217 36.9614 390.442 40.0429C390.668 43.1245 386.89 44.2645 384.438 45.3867C378.371 48.1031 374.864 51.9328 376.117 58.9599C376.423 60.661 375.973 62.5224 375.765 64.3036C375.585 65.889 376.126 68.071 374.503 68.7568C372.538 69.6474 371.384 67.4297 370.122 66.3343C367.417 63.9919 364.857 61.4714 362.323 58.9421C360.403 57.0094 358.429 56.5641 355.868 57.7931C351.627 59.6969 347.15 61.0385 342.553 61.7832C340.073 62.2552 339.1 61.5516 340.272 58.9599C342.075 54.8986 343.634 50.7037 345.573 46.6959C346.898 44.024 346.943 41.7708 344.852 39.3839C342.895 37.1484 341.3 34.6012 339.56 32.1876C338.965 31.3504 338.117 30.4687 338.658 29.391C339.199 28.3134 340.461 28.5004 342.589 28.5004Z" fill="#FDCD00"/>
<path d="M268.807 18.2397C275.361 20.0833 278.814 16.7257 281.501 11.3373C283.069 8.18447 285.395 5.38788 287.433 2.43098C288.01 1.60269 288.524 0.364706 289.668 0.45377C291.21 0.587365 291.102 2.23505 291.472 3.23256C292.635 6.79509 293.78 10.2775 294.672 13.8667C294.928 15.1795 295.582 16.3841 296.549 17.3197C297.515 18.2554 298.748 18.8777 300.081 19.1037C303.687 19.9943 307.357 20.8849 310.9 22.114C314.443 23.3431 314.677 25.1154 311.801 27.5291C308.925 29.9427 305.932 32.1336 302.867 34.2533C302.103 34.6958 301.498 35.3626 301.136 36.1608C300.774 36.9591 300.673 37.8489 300.848 38.7065C301.28 42.6698 301.379 46.6777 301.524 50.6677C301.524 52.1016 301.966 54.0076 300.442 54.7201C298.918 55.4326 297.737 53.8295 296.565 52.9923C293.554 50.7924 290.561 48.5391 287.712 46.1522C285.467 44.273 283.421 43.9969 280.824 45.5733C277.236 47.736 273.336 49.3486 269.258 50.356C268.077 50.6588 266.643 51.9235 265.534 50.5965C264.552 49.4119 265.651 48.0315 265.994 46.8202C267.121 42.8391 268.275 38.8045 269.708 34.9569C270.655 32.4008 270.358 30.5038 268.392 28.5444C266.274 26.4603 264.371 24.1535 262.406 21.927C261.631 21.0363 260.35 20.1457 260.846 18.9433C261.441 17.5094 263.055 17.6875 264.452 17.7944C265.832 17.9369 267.319 18.0972 268.807 18.2397Z" fill="#FDCD00"/>
<path d="M415 522.363C415 520.351 414.838 518.445 415 516.574C415.659 510.064 420.563 506.038 427.063 507.08C429.452 507.463 430.056 506.813 430.876 504.844C431.648 502.82 432.896 501.006 434.517 499.552C436.137 498.098 438.085 497.046 440.198 496.481C449.782 493.863 457.156 499.973 456.832 510.438C456.742 513.234 456.633 514.526 460.384 514.054C463.189 513.688 466.042 514.039 468.672 515.071C471.302 516.103 473.62 517.783 475.407 519.95C477.193 522.118 478.388 524.701 478.879 527.454C479.369 530.208 479.138 533.039 478.207 535.679C477.793 536.952 477.63 539.241 475.8 538.84C473.636 538.351 474.98 536.516 475.331 535.162C476.783 529.596 476.008 524.474 471.608 520.431C467.38 516.574 462.304 515.782 456.949 517.759C453.658 518.988 452.82 517.964 453.415 514.82C453.748 513.077 453.947 511.311 454.01 509.538C454.136 505.21 452.757 501.522 448.43 499.741C444.102 497.96 440.009 498.521 436.71 501.62C433.59 504.524 431.3 507.988 433.41 512.611C433.747 513.278 433.928 514.012 433.942 514.757C433.861 516.654 434.005 519.282 431.724 519.531C429.209 519.798 429.75 517.011 429.488 515.452C429.037 512.78 429.858 509.503 425.44 509.458C423.625 509.498 421.881 510.164 420.51 511.34C419.139 512.516 418.226 514.128 417.93 515.897C417.562 518.102 417.764 520.363 418.516 522.47C419.012 523.913 421.023 525.516 419.49 526.87C417.687 528.438 416.47 525.855 414.919 525.312C413.369 524.768 411.935 523.949 410.222 523.922C406.201 523.878 404.11 526.46 405.219 530.317C406.526 534.877 409.663 537.896 413.855 540.043C415.073 540.666 416.939 540.39 417.462 542.252C409.871 543.062 401 533.684 402.595 526.603C403.325 523.343 407.103 520.965 410.989 521.41C412.342 521.656 413.682 521.974 415 522.363Z" fill="#272626"/>
<path d="M194.935 525.213C196.576 521.027 197.693 517.046 200.055 513.635C201.327 511.809 202.643 509.681 205.365 510.349C208.088 511.017 209.089 513.243 209.152 515.782C209.377 524.207 207.349 532.231 204.482 540.096C204.103 541.138 203.499 542.224 202.264 541.592C201.029 540.96 201.606 539.766 201.967 538.795C203.85 533.793 205.159 528.598 205.87 523.307C206.16 521.399 206.319 519.474 206.348 517.545C206.348 516.022 206.808 513.867 204.689 513.475C202.886 513.136 202.49 515.203 201.768 516.387C198.82 521.238 197.195 526.762 197.053 532.419C197.053 533.559 197.27 535.09 195.647 535.18C194.024 535.269 194.051 533.639 193.844 532.508C192.825 527.164 191.41 521.945 186.695 516.85C185.964 526.309 188.741 534.227 190.301 543.168C187.136 540.844 187.037 538.101 186.55 535.883C185.36 530.397 184.747 524.786 183.936 519.21C183.72 517.705 183.792 516.129 185.514 515.425C187.236 514.722 188.435 515.55 189.571 516.619C191.969 518.934 193.078 522.078 194.935 525.213Z" fill="#2A2929"/>
<path d="M405.417 210.581C428.136 207.493 446.551 197.061 460.663 179.284C458.545 192.919 422.438 213.431 405.417 210.581Z" fill="#303030"/>
<path d="M194.322 260.402C194.601 260.892 194.772 261.676 195.223 261.818C195.863 262.032 196.26 261.364 196.125 260.767C195.665 258.007 197.766 256.314 198.92 254.284C201.083 257.686 199.442 261.293 199.073 264.642C198.458 270.554 199.242 276.527 201.363 282.089C201.859 283.452 202.742 284.761 201.759 286.302C199.956 287.264 198.784 284.396 196.981 285.652C196.48 285.157 196.083 284.568 195.815 283.919C195.548 283.271 195.414 282.576 195.422 281.875C195.602 278.562 195.016 275.276 195.016 271.963C195.016 270.707 195.142 269.291 193.637 268.569C193.565 265.817 193.411 263.065 194.322 260.402Z" fill="#666565"/>
<path d="M350.45 510.767C349.413 511.658 348.728 511.07 348.647 510.072C348.26 507.139 348.684 504.157 349.873 501.442C350.432 500.169 351.397 499.136 352.929 499.305C354.606 499.492 355.057 500.854 354.94 502.235C354.787 504.087 355.273 504.907 357.329 504.666C357.63 504.617 357.937 504.628 358.233 504.698C358.53 504.768 358.809 504.896 359.054 505.075C359.3 505.253 359.506 505.479 359.662 505.737C359.818 505.996 359.92 506.283 359.961 506.581C360.286 508.808 358.51 509.974 356.986 511.123C356.085 511.8 355.183 512.905 353.849 512.263C352.803 511.747 352.947 510.812 353.849 510.144C354.751 509.476 356.364 509.191 356.689 507.401L352.38 507.944C350.856 506.813 351.992 505.548 352.217 504.292C351.027 506.341 351.108 508.647 350.45 510.767Z" fill="#303030"/>
<path d="M71.7036 484.324C69.0891 488.163 67.3942 487.504 66.2943 483.158C64.5454 487.558 67.5474 489.392 68.485 491.895C64.6805 491.093 62.0751 487.103 63.0758 484.155C63.1189 484.016 63.1701 483.879 63.2291 483.746C63.8241 482.481 71.0364 481.296 72.7493 482.392C75.4539 484.102 74.6335 486.774 74.2278 489.223C74.1557 489.615 73.3984 490.114 72.9026 490.167C71.9019 490.301 71.7576 489.481 71.7396 488.706C71.6855 487.673 71.7036 486.64 71.7036 484.324Z" fill="#333232"/>
<path d="M28.9706 176.665C32.9193 179.551 36.1829 183.229 40.4201 185.732C44.423 188.119 48.534 190.301 53.1589 192.857C46.6047 193.151 31.9006 183.282 28.9706 176.665Z" fill="#434343"/>
<path d="M389.667 537.94C387.098 534.957 387.504 532.205 389.424 529.729C390.274 528.48 391.554 527.578 393.025 527.189C394.496 526.799 396.061 526.948 397.429 527.609C398.097 527.894 398.899 528.197 398.637 529.123C398.547 529.435 398.015 529.738 397.637 529.818C390.569 531.323 390.569 531.323 389.667 537.94Z" fill="#3B3A3A"/>
<path d="M185.919 536.488C184.522 538.181 183.512 536.488 182.575 537.192C182.404 539.24 184.125 539.864 185.352 540.835C185.874 541.244 186.253 541.832 185.865 542.313C185.645 542.491 185.389 542.622 185.114 542.697C184.839 542.772 184.552 542.79 184.27 542.749C181.295 542.384 178.166 536.667 180.15 534.734C182.746 532.187 184.017 535.464 185.919 536.488Z" fill="#363535"/>
<path d="M193.628 268.569C195.016 267.803 196.215 268.142 196.161 269.718C196.026 273.771 197.189 277.921 195.413 281.875C193.793 277.634 193.183 273.081 193.628 268.569Z" fill="#3D3D3D"/>
<path d="M344.067 509.663C341.75 511.168 340.642 513.519 339.56 515.897C339.154 516.788 338.766 518.222 337.513 517.678C335.8 516.966 337.207 515.763 337.513 514.766C338.415 511.747 341.164 509.939 342.391 507.142L344.067 509.663Z" fill="#DDDDDD"/>
<path d="M354.868 517.562C353.362 519.023 352.83 521 352.001 522.817C351.631 523.619 351.163 524.598 350.045 524.162C348.927 523.726 349.224 522.657 349.594 521.926C350.577 519.976 351.721 518.097 352.794 516.191C353.237 516.196 353.669 516.328 354.038 516.572C354.406 516.815 354.694 517.16 354.868 517.562Z" fill="#E5E5E5"/>
<path d="M350.45 510.767C350.261 507.864 350.279 505.005 352.181 501.995C353.939 504.266 351.379 506.163 352.307 507.944C350.82 508.336 351.667 510.206 350.45 510.767Z" fill="#B6B6B6"/>
<path d="M201.751 286.302C196.828 276.897 196.81 267.011 198.775 256.911C198.885 256.025 198.93 255.132 198.911 254.239C201.675 239.08 204.449 223.922 207.232 208.763C207.358 208.033 207.502 207.303 207.619 206.572C207.8 205.45 207.619 204.346 206.393 204.034C204.716 203.607 204.464 204.925 204.239 206.127C203.076 212.362 201.624 218.596 200.822 224.919C200.281 229.203 198.938 230.308 194.403 229.435C152.238 221.303 111.921 208.514 75.8416 184.699C66.4519 178.615 57.721 171.592 49.7871 163.742C79.5379 157.739 87.3091 134.013 95.6032 110.144C97.8932 112.602 99.9757 114.82 102.04 117.064C110.844 126.427 120.249 135.221 130.195 143.391C139.211 150.997 150.029 155.504 160.848 160.037C179.627 167.928 199.073 174.064 218.14 181.189C221.828 182.57 223.063 183.772 221.747 188.029C219.222 196.339 220.845 204.471 225.272 211.979C226.011 213.234 226.552 215.63 228.724 214.392C230.735 213.261 228.824 211.765 228.247 210.625C224.767 203.776 223.333 196.66 225.127 189.098C225.632 186.97 226.218 184.796 228.102 183.247C229.599 184.004 228.869 185.34 228.887 186.346C228.941 190.799 228.752 195.253 228.887 199.706C229.022 205.94 232.412 210.393 237.677 211.685C243.825 213.145 249.397 210.643 252.417 205.005C255.437 199.367 254.761 193.507 254.878 187.593C254.878 185.554 253.346 182.205 256.059 181.804C258.295 181.483 258.71 185.064 259.025 187.103C260.432 196.134 259.828 208.523 248.811 213.172C247.449 213.742 246.503 214.686 247.278 216.298C248.054 217.91 249.406 217.527 250.713 216.957C258.106 213.769 262.027 207.882 263.533 200.347C264.651 194.763 264.822 189.045 262.631 183.692C261.45 180.815 262.694 180.067 264.894 179.239C274.162 175.828 283.376 172.247 292.707 168.988C306.293 164.25 319.518 158.63 332.924 153.473C349.368 147.141 361.828 135.66 374.134 123.886C379.822 118.445 385.141 112.629 390.794 106.822C393.663 115.455 397.019 123.924 400.846 132.187C407.914 147.123 419.229 156.822 436.439 160.135C431.219 166.12 425.305 170.823 419.247 175.204C391.822 195.092 361.287 208.55 328.678 217.652C318.428 220.511 308.015 222.728 297.611 224.964C295.024 225.525 293.951 225.053 293.347 222.292C292.049 216.36 290.39 210.5 288.704 204.666C288.19 202.885 288.379 199.706 285.413 200.418C282.447 201.131 283.953 203.749 284.431 205.673C288.749 222.773 293.725 239.722 296.773 257.116C297.187 259.449 297.674 261.765 298.17 264.089C300.622 268.836 300.712 273.931 300.361 279.07C300.253 280.637 300.153 282.312 298.765 283.478C297.196 287.451 294.744 290.692 290.786 292.607C267.067 304.105 242.653 305.967 217.554 297.613C211.237 295.533 205.719 291.584 201.751 286.302Z" fill="#FDFDFD"/>
<path d="M10.5252 55.0054C15.6189 56.6976 19.2251 60.2066 22.9845 63.4841C26.0137 66.156 28.8715 68.9882 31.8827 71.6601C33.0997 72.7466 34.3168 75.0177 36.2822 73.0673C37.932 71.4285 36.0658 70.0837 35.0831 68.917C30.8638 63.9056 26.9502 58.6505 23.3631 53.1796C22.2542 51.4785 20.8929 49.8665 20.4692 47.3371C24.1564 48.4059 26.3382 51.051 28.6551 53.3221C32.4867 57.0716 36.0117 61.1329 39.672 65.0516C40.7538 66.2095 41.7184 68.0085 43.6657 66.4499C45.613 64.8913 44.1436 63.591 43.2871 62.2016C39.6089 56.2612 35.9306 50.3296 32.3244 44.3446C31.5942 43.1334 30.314 41.5837 31.7835 40.3368C33.253 39.0899 34.5602 40.7643 35.615 41.6104C44.7026 48.9224 50.6617 58.8529 57.8019 67.7859C59.3165 69.674 57.1257 69.9857 56.2963 70.6626C51.5669 74.6087 48.0529 79.7865 46.154 85.6073C45.6852 86.9521 44.7926 88.7156 46.8121 89.4013C48.5701 89.9981 48.9397 88.1634 49.4175 87.0056C52.0975 80.4843 56.8415 74.9948 62.9406 71.3573C65.2576 69.9412 66.078 67.9106 66.5468 65.5504C67.3491 61.7831 68.0795 57.9801 69.7834 54.4799C70.6849 52.6987 71.4511 50.1515 73.9845 50.481C76.8153 50.8551 76.8784 53.6962 77.0407 55.8248C77.236 58.7934 77.1727 61.7731 76.8514 64.731C75.436 79.3284 78.4922 92.474 89.5992 102.948C91.9883 105.21 92.2226 107.481 91.3571 110.5C87.5887 123.566 82.9548 136.124 73.5157 146.473C70.4594 149.812 68.4581 150.427 64.6716 146.998C50.8691 134.476 38.2295 121.099 29.755 104.399C27.3209 99.5812 24.2646 94.8431 25.1932 88.956C25.4637 87.2371 23.859 86.5692 22.6238 85.6785C16.9746 81.4995 11.6497 76.9088 6.69367 71.9451C5.89131 71.1524 4.46687 70.3241 5.34137 69.0327C6.21586 67.7413 7.78454 68.3826 8.94752 68.9793C13.4101 71.197 17.0613 74.5101 20.9289 77.5827C22.2091 78.6069 23.5614 79.551 24.9318 80.4505C26.3021 81.3501 27.5282 82.2763 28.8084 80.4505C29.9533 78.8385 28.5109 77.9835 27.6183 77.1285C21.4951 71.2147 16.1655 64.5488 11.7603 57.2943C11.3095 56.5462 10.9399 55.7624 10.5252 55.0054Z" fill="#FDFDFD"/>
<path d="M465.658 44.309C462.448 51.3539 457.805 57.33 453.126 63.2794C452.297 64.3303 451.395 65.3278 450.566 66.3788C449.737 67.4297 448.763 68.5786 450.16 69.8611C451.558 71.1436 452.622 70.0036 453.595 69.1219C458.59 64.6688 463.512 60.0642 468.561 55.62C470.553 53.8387 472.518 51.9862 475.277 50.8551C476.107 52.77 474.718 53.9367 473.916 55.1301C469.718 61.6398 464.812 67.6756 459.284 73.1297C458.175 74.1896 456.255 75.2494 457.715 77.1554C459.176 79.0613 460.735 77.4315 461.934 76.5676C465.919 73.673 469.796 70.6271 473.717 67.6613C474.164 67.2643 474.661 66.926 475.196 66.6549C476.999 65.9156 479.172 63.511 480.759 65.4703C482.345 67.4297 479.37 68.6143 478.153 69.8433C473.576 74.5489 468.546 78.8024 463.133 82.5437C461.97 83.3274 460.771 84.2002 461.123 85.7054C462.196 90.31 459.87 94.104 458.085 97.9248C449.223 116.913 435.168 131.813 419.445 145.386C417.543 147.034 416.533 146.446 415.009 145.03C406.778 137.389 402.153 127.645 398.268 117.421C398.214 117.287 398.205 117.127 398.142 117.002C393.976 108.47 393.886 101.202 401.468 93.6053C411.313 83.7549 410.006 70.4489 409.456 57.7931C409.336 55.1361 409.493 52.4739 409.925 49.8487C410.15 48.4683 410.826 47.2481 412.395 47.0343C413.756 46.8473 414.586 47.925 415.262 48.8779C417.741 52.5384 418.706 56.7511 419.526 60.9727C420.175 64.3214 421.446 66.8953 424.638 68.8102C430.426 72.2836 434.365 77.5116 437.034 83.6659C437.53 84.8237 437.935 86.5871 439.739 85.9102C441.542 85.2334 440.64 83.6124 440.288 82.4457C438.387 76.4661 434.77 71.1601 429.876 67.1714C428.803 66.2808 427.036 65.8355 428.731 63.8494C435.691 55.7002 441.127 46.3129 449.466 39.2948C450.151 38.7159 450.791 38.0746 451.513 37.5135C452.414 36.9079 453.46 36.1865 454.389 36.8099C455.624 37.6471 455.065 39.0009 454.479 40.0162C451.648 44.9057 448.754 49.7508 445.833 54.5958C444.841 56.2434 443.714 57.8288 442.66 59.4408C441.884 60.6253 441.289 61.8544 442.66 63.0033C444.336 64.3303 445.364 63.1814 446.392 61.9702C450.533 56.8705 455.079 52.1054 459.987 47.7201C461.655 46.3129 463.269 44.7989 465.658 44.309Z" fill="#FDFDFD"/>
<path d="M227.625 315.639L226.038 317.759C186.821 370.885 151.661 426.612 118.935 483.843C117.574 486.23 116.762 486.738 114.346 485.063C109 481.385 108.937 481.501 111.975 475.988C143.475 419.32 176.252 363.377 210.306 308.158C212.307 304.907 213.633 304.506 216.527 307.036C219.42 309.565 222.837 311.569 226.002 313.804C226.66 314.294 227.805 314.392 227.625 315.639Z" fill="#FDCD00"/>
<path d="M231.294 329.675C234.44 338.03 230.392 344.816 225.479 351.754C219.059 361.067 211.963 369.908 204.248 378.206C187.38 396.019 175.453 417.162 162.597 437.691C151.778 454.951 140.96 472.203 131.124 490.042C129.636 492.714 128.419 493.168 125.661 491.708C119.251 488.306 119.169 488.448 122.875 481.991C154.78 426.389 188.741 372.078 226.552 320.146C226.953 319.519 227.402 318.924 227.895 318.364C228.797 317.474 229.085 315.514 230.717 316.173C231.934 316.663 231.249 318.311 231.285 319.424C231.348 322.693 231.294 325.97 231.294 329.675Z" fill="#FDCD00"/>
<path d="M307.357 492.171C308.375 495.03 306.563 495.805 302.849 495.841C294.492 495.939 294.519 496.126 293.437 487.629C290.492 464.401 288.388 441.099 287.126 417.723C286.225 401.158 281.996 385.322 276.804 369.629C271.701 354.275 267.328 338.724 265.147 322.666C264.948 321.241 263.749 319.041 265.895 318.516C267.698 318.07 270.033 317.251 271.629 320.11C273.612 323.491 276.791 326.029 280.554 327.235C283.258 328.126 284.088 329.853 284.584 332.347C292.361 371.44 298.401 410.791 302.705 450.401C304.246 464.018 305.743 477.538 307.357 492.171Z" fill="#FDCD00"/>
<path d="M320.627 482.258C320.627 484.93 320.627 487.602 320.627 490.274C320.582 494.193 319.104 494.914 312.207 495.181C308.258 495.342 309.827 492.51 309.692 490.871C307.6 466.672 304.553 442.581 301.307 418.516C297.404 389.597 292.788 360.803 286.36 332.32C285.711 329.453 286.45 328.651 289.173 328.589C290.453 328.589 292.139 328.313 292.085 326.505C292.03 324.412 290.281 324.572 288.767 324.456C285.161 324.162 281.726 319.736 282.763 316.601C283.412 314.641 285.648 314.722 287.207 314.018C293.888 311.034 293.987 311.07 295.853 318.24C305.4 354.862 311.702 392.073 316.21 429.569C318.31 447.096 319.969 464.624 320.627 482.258Z" fill="#FDCD00"/>
<path d="M287.793 495.617C284.043 496.615 282.997 494.397 282.087 491.316C276.389 471.944 274.604 452.057 273.693 432.035C273.242 422.238 272.692 412.495 271.89 402.752C271.268 395.431 268.717 388.617 265.21 382.142C254.617 362.549 251.515 341.263 250.551 319.478C250.469 317.456 250.848 316.218 253.255 316.913C253.552 316.974 253.854 317.013 254.157 317.029C262.866 318.115 262.821 318.124 264.074 326.621C266.275 341.735 269.897 356.613 274.892 371.063C281.987 391.779 284.809 413.047 285.819 434.77C286.72 453.856 289.001 472.853 291.372 491.814C291.724 495.119 291.625 496.739 287.793 495.617Z" fill="#FDCD00"/>
<path d="M232.213 344.825C232.799 348.788 234.017 351.799 237.235 353.865C239.588 355.352 239.597 356.956 237.965 359.36C229.851 371.366 220.142 382.116 210.18 392.599C190.842 412.958 177.093 436.872 164.454 461.542C158.765 472.648 153.527 483.977 147.325 494.825C145.404 498.165 143.457 498.877 139.788 497.497C131.448 494.424 131.34 494.593 135.803 487.023C153.473 457.036 171.323 427.164 190.743 398.245C195.04 391.981 199.83 386.06 205.068 380.539C214.61 370.457 223.053 359.412 230.257 347.586C230.816 346.633 231.546 345.751 232.213 344.825Z" fill="#FDCD00"/>
<path d="M242.807 333.095C242.807 327.751 242.915 323.717 242.807 319.736C242.716 317.26 243.546 316.432 246.133 316.441C248.901 316.441 248.775 317.955 248.838 319.852C249.604 337.842 251.777 355.593 258.457 372.541C258.765 373.535 259.167 374.498 259.656 375.418C269.456 390.612 270.592 407.694 271.196 425.017C271.989 447.683 272.693 470.439 279.878 492.277C280.635 494.602 279.878 495.056 277.57 494.949C269.88 494.513 268.509 493.382 267.383 485.713C265.066 469.985 264.507 454.114 263.876 438.27C263.344 424.91 261.73 412.121 256.167 399.429C246.674 377.778 243.681 357.944 242.807 333.095Z" fill="#FDCD00"/>
<path d="M323.143 478.767C319.131 421.962 311.215 366.628 296.024 312.451C295.447 310.42 299.513 305.557 301.542 306.038C303.345 306.457 303.047 308.407 303.435 309.708C309.289 329.005 314.125 348.589 317.923 368.382C324.152 401.157 328.101 434.226 330.869 467.447C331.247 472.007 332.221 476.522 332.933 481.047C333.411 484.093 333.303 487.05 330.941 489.347C329.003 491.244 326.433 493.257 323.9 492.491C321.989 491.904 323.323 488.804 323.197 486.845C322.998 483.897 323.143 480.94 323.143 478.767Z" fill="#FDCD00"/>
<path d="M202.436 317.696C196.945 326.558 191.698 334.974 186.524 343.426C159.946 386.818 134.027 430.575 109.442 475.106C108.694 476.46 108.766 479.764 106.016 478.553C103.609 477.493 101.599 475.213 102.013 472.149C102.311 470.542 102.923 469.008 103.816 467.634C132.35 419.7 159.55 371.027 187.281 322.639C189.526 318.729 191.401 315.737 196.639 317.607C198.153 318.159 200.083 317.696 202.436 317.696Z" fill="#FDCD00"/>
<path d="M232.52 145.048C238.146 142.973 243.456 142.501 248.829 143.926C255.338 145.653 259.449 149.706 260.828 156.394C263.533 169.415 256.258 180.441 243.32 182.802C242.004 183.042 240.264 182.962 240.481 184.832C240.733 187.014 242.671 186.364 244.087 186.311C245.971 186.231 248.495 184.485 249.496 185.732C250.497 186.979 250.019 189.686 250.109 191.744C250.275 194.858 249.971 197.98 249.207 201.006C247.963 205.691 244.655 207.989 239.931 207.713C235.847 207.463 233.133 204.907 232.718 200C232.329 194.525 232.233 189.034 232.43 183.55C232.484 181.59 232.304 180.263 230.717 178.927C223.955 173.263 221.855 165.764 222.603 157.33C223.27 150.205 225.425 148.37 232.331 148.218C233.53 148.218 235.495 149.109 235.82 147.328C236.144 145.547 233.863 146.063 232.52 145.048Z" fill="#FDFDFD"/>
<path d="M241.084 357.383C243.726 365.122 243.14 371.268 238.272 377.458C231.267 386.364 224.487 395.431 216.761 403.713C199.334 422.417 185.55 443.444 174.389 466.325C169.791 475.792 165.734 485.562 159.964 494.442C157.097 498.842 153.356 501.104 147.469 499.447C155.24 486.578 161.695 473.245 168.006 459.885C182.917 428.322 204.338 401.38 227.652 375.685C232.655 370.19 236.694 363.938 241.084 357.383Z" fill="#FDCD00"/>
<path d="M105.196 510.161C105.179 508.19 105.909 506.284 107.242 504.818C109.83 501.87 108.694 500.071 106.034 497.924C102.338 494.932 99.0743 491.405 95.4682 488.287C93.3586 486.506 92.9528 484.894 95.0353 482.855C95.78 482.115 96.3739 481.242 96.7844 480.281C98.1547 477.074 99.2906 477.609 101.617 479.791C111.194 488.605 122.484 495.404 134.802 499.777C137.651 500.81 138.237 501.558 136.506 504.23C133.071 509.574 129.97 515.202 126.86 520.778C125.823 522.639 124.867 523.174 122.641 522.399C118.081 520.927 113.714 518.927 109.631 516.44C107.314 514.989 105.412 513.127 105.196 510.161Z" fill="#FDFDFD"/>
<path d="M332.735 493.222C334.872 496.784 333.637 498.565 330.085 499.456C325.478 500.712 320.979 502.368 316.372 503.597C313.749 504.292 312.766 505.298 313.154 508.238C314.154 515.701 311.648 518.399 303.823 518.809C299.485 518.96 295.142 518.88 290.813 518.569C287.983 518.426 286.874 517.438 286.657 514.792C286.333 510.811 286.053 506.777 285.35 502.894C284.773 499.714 285.801 499.198 288.794 499.518C299.288 500.649 309.701 499.518 320.059 497.889C324.581 497.273 328.909 495.68 332.735 493.222Z" fill="#FCFCFC"/>
<path d="M202.706 295.831C203.725 296.615 204.446 297.131 205.113 297.693C211.74 303.304 211.74 303.313 207.115 310.393C205.51 312.852 196.594 314.847 194.178 313.261C193.042 312.54 193.592 311.783 194.024 311.035C196.873 306.02 199.74 301.032 202.706 295.831Z" fill="#FCCD00"/>
<path d="M240.012 350.249C237.668 349.421 237.064 347.417 236.883 345.386C236.117 336.729 235.486 328.054 234.792 319.388C234.657 317.776 234.684 316.485 236.956 316.503C238.759 316.503 239.66 316.957 239.597 318.97C239.302 329.147 239.603 339.332 240.499 349.474C240.481 349.679 240.219 349.911 240.012 350.249Z" fill="#F8CA01"/>
<path d="M298.711 283.487C299.847 276.986 298.711 270.546 298.116 264.098C303.192 270.208 304.156 276.3 300.947 281.626C300.415 282.517 299.928 283.425 298.711 283.487Z" fill="#626161"/>
<path d="M281.852 323.387C278.616 322.194 276.118 320.867 274.559 318.106C281.482 315.809 281.861 316.076 281.852 323.387Z" fill="#ECC104"/>
<path d="M84.857 151.728C87.1379 152.787 89.3105 154.319 89.9776 157.072C90.0329 157.366 90.0121 157.67 89.917 157.955C89.8219 158.239 89.6556 158.496 89.4335 158.7C89.2115 158.904 88.9409 159.05 88.6468 159.123C88.3527 159.197 88.0445 159.196 87.7509 159.12C86.5394 158.779 85.4352 158.14 84.5413 157.263C83.6474 156.387 82.993 155.3 82.6391 154.106C82.1793 152.761 83.144 151.923 84.857 151.728Z" fill="#2A2929"/>
<path d="M398.385 155.059C398.123 155.116 397.852 155.118 397.589 155.065C397.326 155.013 397.077 154.907 396.857 154.755C396.638 154.603 396.453 154.407 396.314 154.18C396.175 153.953 396.085 153.701 396.05 153.438C395.843 152.334 400.368 147.898 401.73 147.898C402.956 147.898 403.884 148.602 403.659 149.777C403.091 152.654 400.882 154.079 398.385 155.059Z" fill="#2B2B2B"/>
<path d="M97.8752 141.681C97.4875 143.177 96.7393 144.264 95.6755 143.899C94.494 143.477 93.4505 142.747 92.6566 141.785C91.8626 140.824 91.348 139.667 91.1678 138.439C91.1454 138.176 91.1924 137.912 91.3045 137.673C91.4165 137.433 91.5896 137.226 91.8069 137.073C92.0241 136.919 92.2781 136.824 92.5438 136.797C92.8095 136.769 93.0778 136.811 93.3225 136.917C95.5944 137.852 96.6671 140.025 97.8752 141.681Z" fill="#353535"/>
<path d="M382.752 126.665C381.364 126.336 380.453 125.552 380.886 124.483C381.331 123.41 382.025 122.454 382.911 121.694C383.797 120.933 384.851 120.387 385.989 120.101C386.248 120.054 386.515 120.069 386.767 120.144C387.019 120.22 387.249 120.354 387.438 120.535C387.627 120.717 387.769 120.94 387.852 121.187C387.936 121.434 387.958 121.697 387.918 121.954C387.197 124.572 384.709 125.481 382.752 126.665Z" fill="#333333"/>
<path d="M416.091 164.339C414.829 165.782 413.819 167.902 411.331 168.142C411.065 168.17 410.797 168.131 410.551 168.027C410.306 167.923 410.091 167.759 409.928 167.55C409.765 167.34 409.66 167.093 409.621 166.832C409.583 166.571 409.613 166.304 409.708 166.058C410.511 163.983 411.935 162.193 414.342 161.908C415.46 161.774 416.073 162.852 416.091 164.339Z" fill="#343434"/>
<path d="M394.599 133.327C393.697 135.679 391.551 136.587 389.189 137.059C388.035 137.291 386.935 136.65 387.206 135.367C387.783 132.615 390.587 132.401 392.561 131.386C393.544 130.869 394.427 131.911 394.599 133.327Z" fill="#2A2929"/>
<path d="M99.3718 128.892C98.4511 128.426 97.6413 127.773 96.9962 126.974C96.3511 126.176 95.8855 125.251 95.6304 124.26C95.5671 124 95.5754 123.728 95.6544 123.471C95.7333 123.215 95.88 122.984 96.0794 122.803C96.2788 122.621 96.5236 122.495 96.7886 122.439C97.0535 122.382 97.3291 122.396 97.5868 122.479C98.5824 122.799 99.4695 123.384 100.15 124.169C100.831 124.955 101.279 125.911 101.445 126.932C101.707 128.09 100.715 128.785 99.3718 128.892Z" fill="#313131"/>
<path d="M72.9025 166.859C72.9025 168.222 72.2714 169.041 71.0453 168.952C70.1678 168.876 69.3396 168.518 68.6881 167.933C68.0366 167.347 67.5978 166.566 67.4392 165.71C67.3479 165.426 67.3347 165.123 67.4007 164.833C67.4668 164.542 67.6099 164.274 67.8153 164.055C68.0207 163.837 68.281 163.677 68.5697 163.59C68.8584 163.504 69.1652 163.495 69.4586 163.564C70.2857 163.743 71.0459 164.147 71.6541 164.729C72.2623 165.311 72.6946 166.048 72.9025 166.859Z" fill="#323232"/>
<path d="M242.554 167.937C240.634 167.937 238.831 167.358 238.47 165.345C237.947 162.353 240.58 163.92 241.788 163.404C242.062 163.303 242.342 163.217 242.626 163.145C244.177 162.647 245.601 160.705 247.368 162.549C247.703 162.952 247.89 163.456 247.9 163.978C247.91 164.499 247.742 165.009 247.422 165.425C246.912 166.235 246.191 166.895 245.335 167.337C244.479 167.779 243.519 167.986 242.554 167.937Z" fill="#292929"/>
<path d="M238.732 149.76C240.453 152.601 238.398 155.78 240.724 157.9C240.724 157.9 240.111 158.924 239.66 159.039C239.407 159.117 239.14 159.139 238.877 159.103C238.615 159.067 238.364 158.974 238.141 158.831C237.919 158.688 237.732 158.499 237.592 158.276C237.453 158.054 237.365 157.803 237.334 157.543C236.835 154.867 237.331 152.103 238.732 149.76Z" fill="#515151"/>
<path d="M242.771 147.07C245.881 144.968 248.36 145.377 250.794 145.805C250.979 145.829 251.157 145.891 251.317 145.987C251.476 146.082 251.614 146.209 251.722 146.36C251.829 146.51 251.904 146.681 251.941 146.862C251.979 147.042 251.978 147.229 251.939 147.409C251.905 147.591 251.834 147.764 251.73 147.918C251.626 148.072 251.492 148.203 251.335 148.304C251.178 148.405 251.002 148.473 250.818 148.505C250.633 148.536 250.444 148.53 250.262 148.487C248.126 148.149 245.926 147.676 242.771 147.07Z" fill="#2D2D2D"/>
<path d="M235.639 150.784C234.837 152.236 233.34 151.951 232.033 152.103C231.537 152.156 230.645 151.978 230.816 151.211C231.204 149.429 232.917 149.937 234.098 149.625C234.278 149.572 234.469 149.561 234.655 149.595C234.841 149.628 235.016 149.704 235.166 149.817C235.316 149.93 235.437 150.077 235.52 150.245C235.602 150.412 235.643 150.597 235.639 150.784Z" fill="#626262"/>
<path d="M245.646 149.751C246.548 150.205 248.162 149.528 248.351 151.14C248.477 152.173 247.45 152.101 246.791 151.959C245.764 151.745 244.222 152.181 244.006 150.623C243.879 149.68 244.862 149.706 245.646 149.751Z" fill="#3D3D3D"/>
<defs>
<linearGradient id="paint0_linear_174_71" x1="17.5" y1="411.288" x2="633.5" y2="399.788" gradientUnits="userSpaceOnUse">
<stop stop-color="#7BF2E8"/>
<stop offset="1" stop-color="#E2E2F7"/>
</linearGradient>
</defs>
</svg>
