<svg width="36" height="36" viewBox="0 0 36 36" fill="none" xmlns="http://www.w3.org/2000/svg">
<path d="M32.1531 3.87297C31.4028 3.1029 30.2923 2.81601 29.2569 3.118L5.11199 10.1393C4.01955 10.4428 3.24523 11.314 3.03665 12.4208C2.82356 13.5473 3.56786 14.9772 4.54026 15.5751L12.0899 20.2152C12.8642 20.6908 13.8636 20.5716 14.5043 19.9253L23.1494 11.2265C23.5846 10.7735 24.3049 10.7735 24.74 11.2265C25.1752 11.6643 25.1752 12.374 24.74 12.827L16.08 21.5274C15.4377 22.1721 15.3177 23.1762 15.7904 23.9554L20.4033 31.5806C20.9435 32.4866 21.8739 33 22.8943 33C23.0143 33 23.1494 33 23.2694 32.9849C24.4399 32.8339 25.3703 32.0336 25.7154 30.9012L32.8734 6.78719C33.1885 5.76042 32.9034 4.64305 32.1531 3.87297" fill="#FDCC00"/>
</svg>
