<svg width="649" height="568" viewBox="0 0 649 568" fill="none" xmlns="http://www.w3.org/2000/svg">
<circle cx="338" cy="284" r="284" fill="url(#paint0_linear_222_107)"/>
<path d="M80.7827 8.94177C74.5977 11.9521 66.7622 28.4665 75.536 31.9759C86.0361 36.1759 103.258 32.7023 114.151 31.2637C117.852 30.7748 122.189 31.2507 125.575 29.4444C132.75 25.6182 127.932 18.364 122.503 15.7555C118.529 13.8459 114.091 15.0956 110.192 13.4875C106.457 11.9472 105.085 8.2333 100.572 8.00796C96.7839 7.81875 94.0366 11.0656 90.5772 10.989C86.8633 10.9068 84.9002 6.93777 80.7827 8.94177Z" fill="black"/>
<path d="M82.9182 11.1652C78.4243 11.7294 71.4984 26.3369 75.8522 29.1791C79.2294 31.3837 84.2224 30.8196 88.0457 30.8211C98.4865 30.8251 112.634 31.5212 122.48 27.6547C129.691 24.8227 124.674 18.8829 119.37 17.6584C115.853 16.8463 111.487 18.2787 108.197 16.7753C104.659 15.1585 104.24 10.589 99.5307 10.7083C95.8844 10.8008 93.6937 15.1879 90.4316 15.1204C87.455 15.0587 86.3571 10.7335 82.9182 11.1652Z" fill="white"/>
<path d="M330.298 73.6328V75.7212C342.356 77.1528 354.703 78.6334 366.844 78.8485C379.43 79.072 391.915 78.5875 404.435 77.7469C408.657 77.4629 415.76 76.4344 418.125 72.4247C424.208 62.1112 407.355 51.7508 399.214 50.8058C396.383 50.4769 391.795 51.7351 389.27 50.3464C386.176 48.6454 386.643 39.7165 383.257 36.54C377.851 31.4702 373.081 33.8713 367.067 32.1408C363.534 31.1244 362.426 24.8494 358.485 22.9849C353.121 20.4461 350.366 24.2304 345.394 24.1547C343.102 24.1198 341.708 17.8784 340.386 16.2218C335.627 10.2575 326.763 8.97187 320.968 14.2784C318.871 16.1983 311.568 28.2306 316.931 30.4392C318.27 30.9903 318.081 24.3162 318.289 23.5118C319.655 18.2439 325.504 12.2748 331.342 13.6065C336.334 14.7452 340.171 19.4486 340.802 24.4157C340.981 25.8192 339.466 31.7407 341.16 32.1843C344.594 33.0833 349.506 24.704 354.314 24.9234C362.777 25.3094 359.413 34.8744 363.228 36.4432C369.557 39.0451 374.686 32.295 381.124 39.3342C383.737 42.1905 385.77 46.8442 384.141 50.6607C383.483 52.2029 378.636 56.3766 381.003 58.0034C383.527 59.7378 388.355 54.7884 390.86 54.1514C398.29 52.2593 420.272 59.5185 415.693 70.3363C413.284 76.0292 399.093 75.7118 393.993 75.7212C372.662 75.7619 351.513 73.6328 330.298 73.6328ZM235.276 83.0305C229.689 81.4444 224.303 83.5641 225.078 90.3398C225.761 96.3136 231.111 100.297 232.605 106.003C235.276 116.2 230.109 127.629 227.58 137.328C226.589 141.126 225.343 150.941 220.962 152.38C216.781 153.754 205.817 146.26 201.862 144.408C191.413 139.513 180.648 136.33 169.493 133.541C162.335 131.752 155.382 131.321 150.077 125.922C148.155 123.966 141.563 121.985 141.072 119.354C140.457 116.05 146.65 112.222 147.834 109.134C149.763 104.103 146.643 99.5558 147.444 94.6941C149.199 84.0517 156.727 73.9889 142.343 66.9176C133.993 62.8119 122.636 63.5115 114.151 66.8122C110.572 68.203 106.56 72.2305 102.664 72.1647C98.7717 72.0989 94.6628 68.3179 91.1784 66.7829C81.2832 62.4235 46.7736 57.687 52.3806 78.8538C53.483 83.0148 56.9906 84.9905 58.9133 88.549C60.8748 92.1797 58.8017 96.8232 60.5383 100.782C65.8093 112.796 81.6476 116.253 93.2667 113.416C96.5236 112.622 101.995 108.448 105.132 108.999C108.049 109.512 117.265 122.567 116.942 125.509C116.431 130.154 102.368 125.752 99.5319 125.241C81.0135 121.903 61.1942 120.148 43.1457 126.571C-3.14548 143.046 -6.62555 189.543 6.94713 230.261C13.0146 248.463 22.3691 266.976 38.9689 277.722C55.8798 288.669 73.5529 280.429 89.2675 272.2C94.028 269.707 99.3418 271.765 102.938 266.694C108.988 258.161 101.034 254.189 100.556 246.671C100.27 242.155 103.591 239.358 101.611 234.438C96.9026 222.738 83.798 211.195 76.1697 201.024C73.666 197.686 67.6889 192.105 67.6286 187.687C67.5826 184.33 73.1251 183.699 75.5155 183.156C81.9016 181.704 98.7425 179.536 104.422 183.302C107.26 185.183 107.275 189.663 107.89 192.67C109.609 201.085 111.936 209.399 114.018 217.731C115.665 224.319 113.7 232.616 116.248 238.57C117.769 242.121 124.93 244.164 125.042 247.55C125.252 253.832 119.418 262.449 118.127 268.896C114.801 285.492 114.36 302.414 117.701 319.017C120.243 331.654 138.93 357.172 129.575 368.052C124.232 374.266 116.028 377.231 108.93 380.894C94.171 388.511 79.3053 395.687 64.0295 402.259C57.0863 405.246 43.0171 408.215 39.1559 415.192C36.1184 420.68 39.4641 429.342 40.9365 434.922C44.86 449.79 52.543 465.485 61.8364 477.734C65.9361 483.137 71.2779 488.496 78.632 488.02C90.1603 487.274 86.0604 461.393 77.6039 459.983V457.894C84.0556 457.677 82.5544 455.167 79.6923 450.585C85.927 453.93 88.8279 453.497 95.3499 451.039C96.6896 450.535 101.076 449.682 100.513 447.472C99.9161 445.13 94.4634 445.298 92.6653 443.895C79.8768 433.919 62.0164 432.412 63.8014 411.015C64.1583 406.738 76.2315 400.522 80.1476 402.09C83.0845 403.265 83.3617 416.121 87.5511 414.297C91.0061 412.794 85.5342 400.987 90.2887 396.952C102.769 386.364 135.009 383.109 137.942 363.917C139.707 352.378 130.157 340.743 126.106 330.503C118.586 311.491 117.885 287.589 122.64 267.852C124.113 261.737 126.119 251.75 131.265 247.598C135.423 244.244 145.427 245.236 150.697 244.242C162.489 242.018 174.462 237.86 184.095 230.511C187.709 227.755 194.6 212.229 197.239 211.996C206.195 211.206 219.459 219.391 229.011 220.565C258.354 224.168 278.488 204.213 287.807 178.052C295.897 155.342 296.922 132.97 296.883 109.135C296.862 95.755 294.102 79.8155 283.293 70.7383C273.189 62.2533 252.156 55.8962 240.2 61.1871C236.526 62.8129 231.45 61.6163 229.884 66.3851C228.17 71.6029 233.35 78.4037 235.276 83.0305Z" fill="black"/>
<path d="M248.119 63.3337C245.957 63.7639 245.844 66.3807 244.064 67.2808C241.466 68.5964 238.526 65.6571 235.923 66.9988C232.011 69.0162 239.407 79.4967 238.928 82.9687C238.103 88.9445 230.274 84.3835 229.457 88.5989C228.63 92.8634 233.544 97.2782 235.277 100.781C237.649 105.574 237.741 111.226 237.063 116.444C235.488 128.561 226.921 141.992 226.847 153.797C226.827 157.104 236.589 158.319 235.06 160.676C233.713 162.753 227.685 161.043 225.879 160.522C218.593 158.42 211.286 149.841 204.132 156.363C195.15 164.551 191.596 177.985 189.79 189.537C189.291 192.73 187.756 199.443 190.056 202.103C192.854 205.341 199.052 206.89 202.906 208.478C216.253 213.978 231.227 217.468 245.718 215.328C260.102 213.204 270.553 201.446 277.445 189.537C292.386 163.72 296.361 125.661 291.178 96.6047C289.79 88.8224 286.375 77.6809 279.117 73.4049C276.227 71.7039 272.889 73.2097 270.126 71.6204C267.57 70.1502 266.536 66.8328 263.465 66.0622C261.067 65.4597 259.355 67.5439 257.069 67.3873C253.703 67.1555 251.753 62.608 248.119 63.3337Z" fill="white"/>
<path d="M287.486 65.2788L302.105 76.7649C299.191 70.5708 293.589 67.8204 287.486 65.2788Z" fill="black"/>
<path d="M123.548 100.781C123.83 107.241 122.6 114.52 123.111 120.507C123.5 125.081 130.583 125.236 133.319 122.722C135.293 120.906 133.984 117.876 135.157 115.675C136.75 112.682 140.654 111.713 142.612 108.939C145.676 104.596 143.434 90.9536 137.88 88.979C126.809 85.0414 131.568 102.023 123.548 100.781Z" fill="white"/>
<path d="M462.91 124.798C428.906 169.426 384.094 210.899 341.784 247.569C330.463 257.38 319.154 267.955 306.282 275.735C303.954 277.141 293.968 280.988 293.968 284.134C293.968 287.39 306.188 280.585 307.326 279.909C319.498 272.667 331.33 263.812 341.784 254.277C386.919 213.112 428.864 169.696 470.219 124.798C470.219 128.29 470.302 131.777 469.761 135.239C469.488 136.991 469.101 138.727 468.733 140.46C468.489 141.606 466.73 150.013 470.569 147.586C475.278 144.611 478.438 121.023 473.621 117.562C468.869 114.149 449.748 124.916 444.115 126.387C441.931 126.958 437.285 127.214 436.123 129.553C434.288 133.244 445.194 130.406 446.203 130.14C448.312 129.583 450.395 128.951 452.468 128.275L462.91 124.798Z" fill="black"/>
<path d="M60.8973 127.316C52.9428 128.486 45.2229 130.464 37.9252 133.958C-1.03548 152.612 -0.81307 196.783 12.6617 232.349C19.0007 249.081 35.4526 283.47 58.8089 279.091C62.4149 278.414 64.6739 275.113 68.2066 274.214C71.9673 273.256 75.9645 274.845 79.6927 273.459C83.293 272.12 85.4784 268.581 89.0904 267.305C94.3416 265.45 102.401 267.274 101.055 258.454C99.9583 251.27 85.155 245.73 86.4751 239.068C86.8516 237.169 95.6072 247.132 97.9712 240.611C99.7401 235.731 93.9814 230.366 91.1788 227.128C81.4871 215.933 74.1529 200.948 63.5368 190.813C59.9013 187.342 48.0235 195.313 47.8885 194.947C47.0486 192.671 52.1969 189.206 53.588 188.131C59.2072 183.785 65.4642 181.126 72.3834 179.724C74.4989 179.295 79.258 179.18 79.9489 176.572C80.859 173.137 77.4476 167.918 76.8502 164.477C75.3685 155.943 75.5826 147.961 76.4199 139.416C76.6664 136.901 77.9386 129.657 75.922 127.814C73.1811 125.309 64.2626 126.821 60.8973 127.316ZM136.079 127.33C132.708 127.786 126.038 127.119 123.265 129.082C121.066 130.637 121.008 137.162 117.914 137.275C116.557 137.324 114.706 133.474 112.953 132.859C107.177 130.834 87.896 125.585 82.4111 128.575C79.8197 129.988 80.2955 136.834 79.9908 139.416C79.0353 147.514 78.5221 173.192 87.4129 177.422C98.8483 182.861 105.672 177.065 105.802 166.565C105.814 165.532 105.944 156.789 108.591 158.428C112.325 160.738 109.749 176.102 110.153 180.14C111.584 194.466 117.747 207.756 119.958 221.907C120.678 226.521 118.766 234.392 122.09 238.077C126.045 242.461 137.087 241.084 142.344 240.401C156.036 238.621 171.686 234.521 181.981 224.858C185.775 221.298 191.949 213.47 188.258 207.925C183.598 200.923 166.782 195.12 159.051 192.354C157.71 191.875 149.478 190.264 150.914 187.725C152.298 185.275 157.181 187.211 159.051 187.821C162.887 189.072 181.312 199.802 183.658 197.148C187.034 193.33 186.704 182.092 188.516 177.007C191.332 169.099 201.285 158.69 202.263 151.189C202.764 147.348 192.064 144.65 189.332 143.648C175.923 138.731 159.927 133.107 145.477 134.292C142.467 134.54 131.562 140.721 129.731 139.153C124.155 134.375 156.017 127.301 140.25 126.948C138.857 126.916 137.455 127.144 136.079 127.33Z" fill="white"/>
<path d="M316.911 378.165C286.108 307.16 221.89 236.677 193.175 220.492C169.681 242.42 130.002 246.492 130.002 246.075C102.331 295.152 130.002 342.14 130.002 343.184C139.608 358.638 134.004 368.767 130.002 371.9C115.731 379.731 87.6075 395.811 89.2782 397.482C86.6677 443.949 116.949 460.656 117.993 462.222C134.178 466.921 134.178 451.258 137.311 450.736C203.721 424.005 208.49 365.112 202.573 339.008C213.941 351.379 231.796 363.982 246.951 380.253C268.879 413.667 283.497 431.418 292.373 434.029C310.333 430.27 329.79 413.319 337.273 405.314C330.486 396.786 316.911 379.418 316.911 378.165Z" fill="#FECD00"/>
<path d="M344.929 196.968L346.231 198.814L344.929 196.968ZM496.324 201.466C492.651 201.949 486.334 201.078 483.524 203.887C477.599 209.811 481.309 232.451 489.059 235.592C498.406 239.382 511.655 235.735 521.384 235.497C549.986 234.796 578.473 231.264 607.007 229.31C618.583 228.517 634.948 232.617 645.488 226.679C651.398 223.349 649.486 203.387 642.464 202.222C634.401 200.885 625.596 203.115 617.449 203.112C598.203 203.104 579.263 202.879 560.019 203.108C539.153 203.356 516.945 198.759 496.324 201.466Z" fill="black"/>
<path d="M641.133 206.451C635.189 205.323 626.837 208.33 620.581 208.332C606.894 208.338 590.129 203.333 576.88 207.265C571.659 208.816 571.772 224.584 576.963 226.321C581.629 227.881 588.598 225.292 593.432 225.08C607.187 224.478 628.726 229.019 641.306 223.066C644.978 221.329 645.438 207.267 641.133 206.451Z" fill="#FECD00"/>
<path d="M332.212 207.77C327.181 209.184 321.652 216.423 317.768 219.871C308.076 228.475 298.043 236.464 287.486 243.982C286.423 244.739 273.237 253.646 276.691 254.27C280.592 254.975 287.485 248.72 290.619 246.766C304.235 238.279 316.264 227.933 328.194 217.288C329.097 216.482 337.999 206.145 332.212 207.77ZM420.116 229.4C415.74 231.46 412.3 237.243 408.612 240.388C403.506 244.744 397.69 247.17 392.079 250.632C391.054 251.266 388.645 253.394 391.255 253.768C400.703 255.121 414.572 241.99 419.738 235.483C420.524 234.492 424.533 227.323 420.116 229.4ZM193.509 237.57C197.513 247.598 195.564 259.644 200.783 268.896C207.761 281.264 222.353 291.844 232.051 302.31C248.922 320.514 264.385 339.891 279.265 359.74C286.61 369.538 293.278 379.806 300.02 390.022C300.756 391.137 305.418 399.501 307.282 398.014C309.354 396.361 303.831 389.358 302.949 387.933C296.954 378.258 290.385 368.981 283.749 359.74C260.485 327.346 231.36 301.299 206.059 270.98C198.26 261.636 204.852 243.468 193.509 237.57ZM149.653 266.807V267.852C157.844 267.881 176.981 283.054 171.379 292.741C168.694 297.382 163.982 293.453 161.139 291.236C152.153 284.228 150.186 276.875 144.004 268.502C142.823 266.903 141.113 267.407 140.598 269.233C139.145 274.384 143.194 280.748 146.188 284.543C155.052 295.781 167.782 303.177 176.681 314.84C195.718 339.788 223.521 354.799 242.987 378.536C255.586 393.899 264.257 412.724 277.385 427.568C281.555 432.283 287.91 432.158 291.887 436.297C298.941 443.64 299.83 456.45 309.414 461.027V462.071C292.321 462.071 275.281 462.099 258.249 460.933C249.218 460.314 236.706 458.151 228.029 461.656C223.155 463.626 223.793 469.229 223.791 473.557C223.788 482.465 223.912 494.394 235.277 495.387C272.774 498.663 313.83 491.98 351.182 488.489C361.732 487.503 380.217 493.096 389.187 484.95C393.308 481.207 391.051 462.918 385.526 461.359C378.536 459.385 369.835 462.068 362.668 462.071C347.546 462.077 332.841 460.379 317.768 461.027V459.982C333.721 458.591 350.944 448.869 363.712 439.696C368.943 435.937 375.639 430.85 373.818 423.456C371.615 414.509 356.524 414.318 356.403 424.48C351.946 416.697 354.353 421.465 349.54 421.295C347.814 421.234 348.343 417.571 346.691 417.087C345.447 416.723 343.888 419.982 343.001 419.049C341.394 417.36 338.682 404.868 333.135 408.735C330.471 410.591 331.319 422.211 330.362 425.524C327.648 434.908 313.151 442.205 303.545 441.652C293.688 441.084 301.25 427.955 301.32 427.992C296.441 425.523 290.377 431.959 284.38 427.893C268.957 417.437 259.953 392.036 248.381 377.491C232.299 357.276 209.031 343.539 191.598 324.238C185.552 317.544 177.051 309.454 173.153 301.266C171.196 297.153 174.912 293.09 174.498 288.735C173.432 277.534 161.184 263.4 149.653 266.807ZM372.932 314.326C368.152 314.819 358.533 313.627 355.089 317.469C349.587 323.607 352.758 345.409 360.599 348.524C370.52 352.465 387.746 349.424 398.17 348.432C423.436 346.027 450.072 343.074 475.44 343.033C487.121 343.014 507.728 346.538 517.92 339.584C523.277 335.93 520.779 316.44 514.207 315.199C506.701 313.782 497.741 315.884 490.059 315.884C472.566 315.884 455.33 315.441 437.849 315.869C416.556 316.391 393.92 312.167 372.932 314.326Z" fill="black"/>
<path d="M511.831 319.63C500.129 319.634 488.378 321.586 476.484 321.065C467.772 320.682 458.076 318.471 449.396 320.42C443.262 321.799 443.003 336.93 448.529 339.255C452.386 340.879 459.747 339.002 463.953 338.816C475.117 338.322 486.148 337.812 497.367 337.812C502.381 337.812 509.189 338.622 513.742 336.034C517.769 333.746 517.06 319.629 511.831 319.63Z" fill="#FECD00"/>
<path d="M103.708 423.435C129.659 417.432 160.795 396.963 170.537 371.226L156.504 386.889L132.946 407.69L103.708 423.435ZM318.811 396.287L322.988 392.11L318.811 396.287ZM347.004 409.861L345.96 405.684H347.004L352.225 410.905C355.45 410.214 356.718 406.379 353.154 404.438C348.129 401.701 340.455 406.344 347.004 409.861ZM469.174 415.666C465.85 416.521 462.764 420.179 459.474 420.397C455.036 420.689 452.488 416.151 447.251 418.107C440.119 420.772 441.377 427.687 436.874 432.042C434.754 434.089 431.068 433.45 428.689 435.462C422.331 440.841 427.943 447.914 433.673 450.669C450.547 458.78 477.949 454.761 496.323 454.761C503.667 454.761 513.359 455.891 520.278 452.942C527.488 449.87 521.437 443.265 517.203 440.819C511.52 437.537 507.319 431.38 501.529 428.895C497.31 427.084 492.257 429.759 488.584 428.09C486.416 427.106 486.022 423.248 484.829 421.393C481.55 416.298 474.959 414.177 469.174 415.666Z" fill="black"/>
<path d="M468.132 418.99C464.951 420.21 460.954 427.552 458.244 427.554C454.726 427.557 455.799 418.261 448.296 420.938C441.046 423.525 442.982 430.473 439.402 435.416C436.806 438.999 427.396 433.662 428.845 442.232C430.33 451.015 441.695 450.576 448.291 450.585C466.053 450.608 483.834 453.492 501.545 451.806C506.458 451.339 514.344 452.978 518.645 449.997C520.652 448.606 519.255 446.213 517.914 444.897C515.085 442.117 511.428 442.803 508.395 440.902C505.559 439.124 505.265 434.891 502.365 432.843C493.867 426.842 489.479 437.328 482.647 436.006C481.912 435.864 483.741 428.759 483.66 427.613C483.115 419.946 474.88 416.401 468.132 418.99Z" fill="white"/>
<path d="M89.9167 423.797C87.3829 425.211 91.175 432.854 93.681 431.427C96.1056 430.048 92.4458 422.384 89.9167 423.797ZM121.46 446.407L128.769 453.717L121.46 446.407ZM91.1781 456.849L93.2665 465.203C88.1406 463.994 92.0928 468.905 94.9779 466.537C98.5167 463.631 94.4308 457.467 91.1781 456.849ZM124.592 479.821V480.866C134.755 479.978 149.872 473.439 154.874 464.159L124.592 479.821Z" fill="black"/>
<path d="M383.22 465.41C377.885 464.4 370.386 467.282 364.757 467.291C350.847 467.313 331.269 461.727 318.1 466.564C313.505 468.252 314.529 483.703 319.05 485.363C323.786 487.102 331.612 484.431 336.564 484.091C350.348 483.148 371.66 488.53 384.264 482.022C387.963 480.112 387.351 466.191 383.22 465.41Z" fill="#FECD00"/>
<path d="M48.3662 524.12C45.1929 524.538 39.9328 523.973 37.5102 526.396C31.5756 532.331 35.4268 554.823 43.1904 557.86C51.6174 561.158 63.4424 558.136 72.3825 558.136C101.34 558.136 130.138 552.594 159.05 551.886C170.686 551.601 190.402 555.637 200.485 548.447C206.645 544.054 202.346 525.271 194.548 524.537C166.408 521.889 137.14 524.722 108.929 524.722C89.1313 524.722 67.9574 521.547 48.3662 524.12Z" fill="black"/>
<path d="M194.399 528.629C178.442 529.97 163.657 531.096 147.565 529.197C143.1 528.67 132.221 527.252 128.798 530.974C125.997 534.022 126.607 547.101 131.012 548.406C138.091 550.504 148.66 547.518 155.918 546.827C167.895 545.687 182.955 549.781 194.399 545.894C199.136 544.285 199.811 528.175 194.399 528.629Z" fill="#FECD00"/>
<defs>
<linearGradient id="paint0_linear_222_107" x1="42.5" y1="295.5" x2="658.5" y2="284" gradientUnits="userSpaceOnUse">
<stop stop-color="#7B80F2"/>
<stop offset="1" stop-color="#E2E9F7"/>
</linearGradient>
</defs>
</svg>
