<svg width="24" height="24" viewBox="0 0 24 24" fill="none" xmlns="http://www.w3.org/2000/svg">
<path fill-rule="evenodd" clip-rule="evenodd" d="M12 3.13269C9.96385 3.13269 9.77134 6.63635 8.55911 7.87426C7.34689 9.11217 3.5782 7.69678 3.05459 9.89401C2.53207 12.0924 5.92235 12.8383 6.34036 14.7243C6.76057 16.6104 4.68922 19.2603 6.45916 20.5791C8.22911 21.8968 10.1343 18.9143 12 18.9143C13.8656 18.9143 15.7709 21.8968 17.5408 20.5791C19.3108 19.2603 17.2405 16.6104 17.6596 14.7243C18.0787 12.8383 21.4679 12.0924 20.9454 9.89401C20.4229 7.69678 16.6531 9.11217 15.442 7.87426C14.2297 6.63635 14.0361 3.13269 12 3.13269Z" fill="#FDCD00"/>
</svg>
