<svg width="109" height="104" viewBox="0 0 109 104" fill="none" xmlns="http://www.w3.org/2000/svg">
<path d="M54.1847 3.24586C55.1641 3.24586 56.1431 3.45283 57.0522 3.86718L92.4399 20.51C94.2582 21.4077 95.6568 23.0651 96.0764 24.9989L104.818 62.4967C105.308 64.4995 104.818 66.5712 103.49 68.1593L79.0122 98.1994C77.7533 99.7874 75.7949 100.685 73.7671 100.685H34.5329C32.5046 100.685 30.5466 99.7874 29.2877 98.1994L4.81042 68.1593C3.55153 66.5712 3.06161 64.4995 3.48166 62.4967L12.2236 24.9989C12.7131 22.9961 14.0418 21.3387 15.8601 20.51L51.2482 3.79861C52.1573 3.45324 53.2061 3.24628 54.1851 3.24628L54.1847 3.24586ZM54.1847 0C52.7162 0 51.2477 0.345366 49.8487 0.966691L14.4614 17.6789C11.6638 18.991 9.7058 21.4077 9.00628 24.3772L0.264373 61.8753C-0.434725 64.8448 0.264374 67.8833 2.22278 70.3004L26.7001 100.34C28.5887 102.688 31.4558 104 34.463 104H73.6968C76.7041 104 79.5716 102.688 81.4597 100.34L105.937 70.3C107.895 67.9523 108.595 64.8448 107.895 61.8749L99.1535 24.3772C98.4544 21.4077 96.496 18.991 93.6988 17.6789L58.4509 0.966273C57.1221 0.345366 55.6536 0 54.1847 0Z" fill="black"/>
<path d="M89.6426 59.5271C89.5727 59.5271 89.5727 59.5271 89.6426 59.5271H89.5727C89.5029 59.5271 89.433 59.5271 89.433 59.4581C89.2933 59.4581 89.1535 59.3891 89.0134 59.3891C88.5239 59.3201 88.1043 59.2511 87.6846 59.2511C87.4746 59.2511 87.265 59.2511 86.9851 59.1817H86.9152C85.4467 59.0437 84.2577 58.9058 83.1386 58.5604C82.6491 58.353 82.5093 58.077 82.3692 57.8007C82.3692 57.7317 82.2993 57.7317 82.2993 57.6627L81.3902 57.3867C81.8197 54.1382 81.6539 50.8398 80.9007 47.6492C80.1371 44.432 78.8118 41.3708 76.9843 38.6027L77.6838 37.9814V37.8434C77.6838 37.4981 77.7537 37.1527 78.0332 36.8073C78.8724 36.0476 79.9217 35.4263 81.1806 34.6666C81.3902 34.5286 81.5998 34.4596 81.8098 34.3212C82.2295 34.1142 82.5792 33.9073 82.9988 33.6309C83.0687 33.5619 83.2085 33.4929 83.3486 33.3549C83.4185 33.2855 83.4883 33.2855 83.4883 33.2165C84.4673 32.3878 84.6774 31.0068 83.9778 30.1087C83.6281 29.6253 82.9988 29.3493 82.3692 29.3493C81.8102 29.3493 81.3203 29.5563 80.8308 29.9017L80.6911 30.0397C80.5514 30.1086 80.4811 30.247 80.3413 30.316C79.9916 30.6614 79.7117 30.9374 79.4322 31.2827C79.2925 31.4207 79.1527 31.6281 78.9427 31.7661C77.9633 32.8022 77.0542 33.6309 76.1451 34.2522C75.9355 34.3902 75.7259 34.4596 75.5158 34.4596C75.3761 34.4596 75.2359 34.4596 75.0962 34.3902H74.9565L74.1168 34.9429C73.2077 33.9762 72.2287 33.1475 71.2497 32.3188C67.0341 29.0651 61.9607 27.0755 56.633 26.5868L56.5631 25.6891L56.4234 25.5512C56.2134 25.3438 55.9339 25.1368 55.8636 24.6534C55.7937 23.5484 55.9339 22.3053 56.0736 20.9242V20.8553C56.0736 20.6479 56.1435 20.3719 56.2134 20.1645C56.2832 19.7506 56.3531 19.3358 56.4234 18.8525V18.2311C56.4234 16.9881 55.444 15.9524 54.2554 15.9524C53.6956 15.9524 53.1362 16.2284 52.7166 16.6427C52.2974 17.0571 52.0874 17.6094 52.0874 18.2311V18.7835C52.0874 19.2668 52.1572 19.6812 52.297 20.0955C52.3668 20.3029 52.3668 20.5099 52.4367 20.7863V20.8553C52.5764 22.2363 52.7865 23.4794 52.6467 24.5845C52.5769 25.0678 52.297 25.2748 52.0874 25.4822L51.9476 25.6201L51.8773 26.5178C50.6185 26.6558 49.3596 26.7938 48.1007 27.0702C42.7158 28.2443 37.9602 30.9378 34.2538 34.8045L33.5543 34.3212H33.4145C33.2748 34.3212 33.1346 34.3902 32.9949 34.3902C32.7849 34.3902 32.5753 34.3212 32.3653 34.1832C31.4561 33.5619 30.547 32.6638 29.568 31.6281C29.4283 31.4901 29.2885 31.2827 29.0785 31.1447C28.7986 30.7994 28.5187 30.523 28.169 30.1781C28.0991 30.1087 27.9594 30.0401 27.8196 29.9017C27.7498 29.8327 27.6799 29.8327 27.6799 29.7637C27.2466 29.4102 26.7032 29.215 26.1411 29.2109C25.5115 29.2109 24.8822 29.4873 24.5325 29.9707C23.833 30.8684 24.043 32.2494 25.022 33.0781C25.0918 33.0781 25.0918 33.1475 25.1617 33.1475C25.3014 33.2165 25.3717 33.3545 25.5115 33.4235C25.9311 33.6995 26.2809 33.9068 26.7005 34.1142C26.9105 34.1832 27.1201 34.3212 27.3301 34.4596C28.5886 35.2189 29.6379 35.8406 30.4771 36.6004C30.8269 36.9453 30.8269 37.2907 30.8269 37.636V37.774L31.526 38.3958C31.3863 38.6027 31.2465 38.7411 31.1762 38.9481C27.6795 44.4037 26.3507 50.826 27.2598 57.1794L26.3507 57.4553C26.3507 57.5247 26.2809 57.5247 26.2809 57.5933C26.1411 57.8697 25.9311 58.146 25.5115 58.353C24.4626 58.6984 23.2037 58.8368 21.7352 58.9748H21.6649C21.4553 58.9748 21.1754 58.9748 20.9658 59.0437C20.5462 59.0437 20.1266 59.1127 19.6371 59.1817C19.4974 59.1817 19.3576 59.2511 19.2175 59.2511C19.1476 59.2511 19.0777 59.2511 19.0074 59.3201C17.7486 59.5961 16.9792 60.7702 17.1892 61.8748C17.3992 62.8419 18.3083 63.4637 19.4271 63.4637C19.6371 63.4637 19.7768 63.4637 19.9869 63.3943C20.0567 63.3943 20.1266 63.3943 20.1266 63.3253C20.2663 63.3253 20.4061 63.2563 20.5458 63.2563C21.0357 63.1183 21.3855 62.9803 21.8051 62.7729C22.0147 62.704 22.2243 62.5656 22.4343 62.497H22.5042C23.833 62.0132 25.022 61.5989 26.1411 61.4609H26.2809C26.7005 61.4609 26.9804 61.6679 27.19 61.8063C27.2598 61.8063 27.2598 61.8752 27.3297 61.8752L28.3091 61.7373C29.9876 66.8471 33.2045 71.405 37.4707 74.7199C38.4497 75.4792 39.4286 76.1009 40.4779 76.7227L40.0583 77.6199C40.0583 77.6893 40.1282 77.6893 40.1282 77.7579C40.2679 78.0343 40.4076 78.3797 40.2679 78.863C39.8487 79.8991 39.219 80.9348 38.4497 82.1089V82.1779C38.3099 82.3852 38.1702 82.5232 38.0304 82.7302C37.7506 83.0755 37.5405 83.4209 37.2606 83.8353C37.1908 83.9043 37.1209 84.0422 37.051 84.1806C37.051 84.2496 36.9812 84.3186 36.9812 84.3186C36.4218 85.4927 36.8414 86.8047 37.8903 87.2881C38.1698 87.4261 38.4497 87.4955 38.7295 87.4955C39.5688 87.4955 40.4081 86.9427 40.8277 86.183C40.8277 86.114 40.8976 86.045 40.8976 86.045C40.9674 85.9071 41.0373 85.7691 41.1072 85.6997C41.3172 85.2163 41.3871 84.8709 41.5268 84.4566L41.7368 83.8353C42.2263 82.4542 42.5761 81.3491 43.2053 80.3824C43.4848 79.9681 43.835 79.8991 44.1144 79.7607C44.1843 79.7607 44.1843 79.7607 44.2542 79.6917L44.7441 78.794C47.8212 79.9681 51.1782 80.5894 54.5348 80.5894C56.5631 80.5894 58.6613 80.3824 60.6197 79.8991C61.852 79.627 63.0664 79.281 64.2562 78.863L64.6754 79.6227C64.7457 79.6227 64.7457 79.6227 64.8155 79.6917C65.1653 79.7607 65.4448 79.8991 65.7246 80.3135C66.284 81.2801 66.7036 82.4542 67.1931 83.7663V83.8353L67.4032 84.4566C67.5429 84.8709 67.6128 85.2853 67.8224 85.6997C67.8927 85.8377 67.9625 85.9071 68.0324 86.045C68.0324 86.114 68.1027 86.183 68.1027 86.183C68.5219 87.0117 69.3611 87.4955 70.2004 87.4955C70.4803 87.4955 70.7602 87.4261 71.0397 87.2881C71.5291 87.0121 71.9488 86.5974 72.0889 86.045C72.2287 85.4927 72.2287 84.871 71.9492 84.3186C71.9492 84.2496 71.8789 84.2496 71.8789 84.1806C71.809 84.0427 71.7392 83.9047 71.6693 83.8353C71.4593 83.4209 71.1798 83.0755 70.8999 82.7302C70.7602 82.5232 70.6205 82.3852 70.4807 82.1783V82.1089C69.7109 80.9348 69.0114 79.8991 68.662 78.863C68.5223 78.3797 68.662 78.1037 68.7319 77.7583C68.7319 77.6893 68.8018 77.6893 68.8018 77.6204L68.452 76.7916C72.1588 74.6509 75.3058 71.612 77.6838 67.8832C78.9427 65.9494 79.9217 63.8086 80.6208 61.6679L81.4601 61.8058C81.5304 61.8058 81.5304 61.7368 81.5998 61.7368C81.8797 61.5989 82.0897 61.3919 82.5094 61.3919H82.6491C83.7682 61.5299 84.9568 61.9438 86.286 62.4276H86.3559C86.5655 62.4966 86.7751 62.6345 86.9851 62.7035C87.4047 62.9109 87.7545 63.0489 88.244 63.1873C88.3837 63.1873 88.5235 63.2563 88.6636 63.2563C88.7335 63.2563 88.8034 63.2563 88.8732 63.3253C89.0832 63.3943 89.223 63.3943 89.433 63.3943C90.4819 63.3943 91.391 62.704 91.6709 61.8063C91.6709 60.9775 90.9015 59.8725 89.6426 59.5275V59.5271ZM57.2622 56.1432L54.1851 57.5937L51.1079 56.1432L50.339 52.8978L52.4367 50.2737H55.8636L57.9617 52.8978L57.2626 56.1432H57.2622ZM75.5158 48.9616C76.0583 51.2452 76.2236 53.6003 76.0053 55.9359L65.305 52.8978C64.326 52.6218 63.7667 51.6547 63.9763 50.688C64.0461 50.4117 64.1863 50.1353 64.3959 49.9283L72.8583 42.4009C74.0469 44.3347 74.956 46.5445 75.5158 48.9612V48.9616ZM69.5013 38.2578L60.3398 44.6801C59.5704 45.1634 58.5211 45.025 57.8919 44.2657C57.6823 44.0584 57.6124 43.782 57.5421 43.506L56.9129 32.2494C61.6758 32.791 66.1127 34.9087 69.5013 38.2578ZM49.2198 32.5944C49.9892 32.4564 50.6883 32.3184 51.4577 32.1804L50.8285 43.2292C50.7586 44.1959 49.9892 45.0246 48.9399 45.0246C48.6605 45.0246 48.3107 44.9556 48.1007 44.8177L38.7994 38.2578C41.6669 35.4263 45.2336 33.4925 49.2198 32.5948V32.5944ZM35.4424 42.4005L43.7647 49.7205C44.5341 50.3423 44.6039 51.5159 43.9747 52.2757C43.7647 52.5516 43.4852 52.759 43.1354 52.8284L32.2954 55.9359C31.8758 51.24 32.9246 46.4751 35.4424 42.4005ZM33.5539 61.1151L44.6742 59.2503C45.5833 59.1813 46.4226 59.803 46.6322 60.7007C46.7021 61.1147 46.7021 61.4605 46.5623 61.8058L42.2962 71.9569C38.3798 69.4708 35.2328 65.6726 33.5543 61.1151H33.5539ZM59.0809 74.8574C57.4722 75.2028 55.8636 75.4098 54.1851 75.4098C51.7376 75.4098 49.3596 74.9958 47.1221 74.3051L52.6467 64.4299C53.2061 63.8082 54.1152 63.5322 54.8846 63.9466C55.2112 64.1441 55.4961 64.4019 55.7239 64.7059L61.1087 74.3051C60.4795 74.5121 59.78 74.6505 59.0805 74.8574H59.0809ZM72.7182 65.2587C70.9698 68.0208 68.6616 70.2305 66.0045 71.9569L61.5987 61.529C61.3886 60.7007 61.7384 59.803 62.5776 59.3883C62.8571 59.2503 63.2069 59.1813 63.5566 59.1813L74.7464 61.0461C74.3268 62.5651 73.6273 63.9466 72.7182 65.2587Z" fill="black"/>
</svg>
