<svg width="123" height="88" viewBox="0 0 123 88" fill="none" xmlns="http://www.w3.org/2000/svg">
<path d="M24.6891 70.9065C21.1893 70.9065 18.0078 68.0576 18.0078 64.5755C18.0078 61.0935 20.8712 58.2446 24.6891 58.2446C28.507 58.2446 31.3704 61.0935 31.3704 64.5755C31.3704 68.0576 28.1888 70.9065 24.6891 70.9065ZM106.774 36.4029C106.138 31.3381 102.956 27.223 98.82 24.0576L97.2292 22.7914L95.9565 24.3741C93.4113 27.223 92.4568 32.2878 92.775 36.0863C93.0931 38.9353 94.0476 41.7842 95.6384 44C94.3657 44.6331 92.775 45.2662 91.5023 45.8993C88.6389 46.8489 85.7755 47.1655 82.912 47.1655H0.509053L0.190895 49.0648C-0.445422 55.0791 0.509053 61.4101 3.05432 67.1079L4.32695 69.3237V69.6403C11.9628 82.3022 25.6436 88 40.597 88C69.2312 88 92.775 75.6547 103.91 49.0648C111.228 49.3813 118.546 47.482 122.046 40.518L123 38.9352L121.409 37.9856C117.273 35.4532 111.546 35.1367 106.774 36.4029ZM65.7315 31.3381H53.3233V43.6835H65.7315V31.3381ZM65.7315 15.8273H53.3233V28.1727H65.7315V15.8273ZM65.7315 0H53.3233V12.3453H65.7315V0ZM81.0031 31.3381H68.5949V43.6835H81.0031V31.3381ZM34.8701 31.3381H22.462V43.6835H34.8701V31.3381ZM50.4599 31.3381H38.0517V43.6835H50.4599V31.3381ZM19.5986 31.3381H7.19038V43.6835H19.5986V31.3381ZM50.4599 15.8273H38.0517V28.1727H50.4599V15.8273ZM34.8701 15.8273H22.462V28.1727H34.8701V15.8273Z" fill="#061D2F"/>
</svg>
