<svg width="123" height="110" viewBox="0 0 123 110" fill="none" xmlns="http://www.w3.org/2000/svg">
<path d="M123 54.9233C123 46.7539 112.796 39.0119 97.1515 34.2108C100.762 18.224 99.1572 5.5049 92.087 1.43278C90.4574 0.477593 88.552 0.0251361 86.4711 0.0251361V5.63058C87.6243 5.63058 88.552 5.85681 89.3292 6.28413C92.7389 8.24478 94.2181 15.7103 93.0648 25.3125C92.789 27.6753 92.3378 30.1638 91.7862 32.7026C86.8722 31.4961 81.5069 30.566 75.8659 29.9627C72.4812 25.3125 68.9713 21.0895 65.4362 17.3945C73.6095 9.7781 81.2813 5.60544 86.4961 5.60544V0C79.6015 0 70.5758 4.92676 61.4499 13.4732C52.3239 4.97703 43.2982 0.100546 36.4036 0.100546V5.70599C41.5934 5.70599 49.2903 9.85351 57.4635 17.4196C53.9535 21.1147 50.4435 25.3125 47.1091 29.9627C41.4429 30.566 36.0777 31.496 31.1637 32.7277C30.587 30.2141 30.1608 27.7758 29.86 25.4382C28.6816 15.836 30.1358 8.37046 33.5204 6.38467C34.2725 5.93222 35.2503 5.73113 36.4036 5.73113V0.125683C34.2976 0.125683 32.3922 0.578139 30.7375 1.53333C23.6924 5.60544 22.1129 18.2994 25.7483 34.2359C10.1539 39.0621 0 46.779 0 54.9233C0 63.0926 10.204 70.8347 25.8486 75.6358C22.2383 91.6226 23.8428 104.342 30.913 108.414C32.5426 109.369 34.448 109.821 36.554 109.821C43.4486 109.821 52.4743 104.895 61.6003 96.3483C70.7263 104.844 79.7519 109.721 86.6466 109.721C88.7525 109.721 90.658 109.268 92.3127 108.313C99.3577 104.241 100.937 91.5472 97.3019 75.6106C112.846 70.8096 123 63.0675 123 54.9233ZM90.3571 38.1572C89.4295 41.3998 88.2762 44.743 86.9725 48.0861C85.9446 46.0752 84.8665 44.0643 83.6881 42.0534C82.5349 40.0425 81.3064 38.0818 80.0779 36.1714C83.638 36.6993 87.0728 37.3529 90.3571 38.1572ZM78.8744 64.9276C76.9189 68.321 74.9132 71.5385 72.8323 74.5298C69.0966 74.8565 65.3109 75.0325 61.5 75.0325C57.7142 75.0325 53.9285 74.8565 50.2179 74.5549C48.137 71.5637 46.1062 68.3713 44.1506 65.003C42.2452 61.7101 40.5153 58.367 38.9358 54.9987C40.4902 51.6304 42.2452 48.2621 44.1256 44.9692C46.0811 41.5758 48.0868 38.3583 50.1678 35.3671C53.9034 35.0403 57.6892 34.8643 61.5 34.8643C65.2858 34.8643 69.0715 35.0403 72.7821 35.3419C74.863 38.3332 76.8938 41.5255 78.8494 44.8938C80.7548 48.1867 82.4847 51.5299 84.0642 54.8981C82.4847 58.2664 80.7548 61.6347 78.8744 64.9276ZM86.9725 61.6599C88.3263 65.0282 89.4796 68.3965 90.4323 71.6642C87.148 72.4686 83.6881 73.1473 80.1029 73.6751C81.3314 71.7396 82.5599 69.7538 83.7132 67.7178C84.8665 65.7068 85.9446 63.6708 86.9725 61.6599ZM61.5502 88.4805C59.2185 86.0674 56.8869 83.3778 54.5803 80.4368C56.8367 80.5374 59.1433 80.6128 61.4749 80.6128C63.8316 80.6128 66.1633 80.5625 68.4448 80.4368C66.1883 83.3778 63.8567 86.0674 61.5502 88.4805ZM42.8971 73.6751C39.3369 73.1473 35.9022 72.4937 32.6178 71.6893C33.5455 68.4467 34.6987 65.1036 36.0024 61.7604C37.0304 63.7713 38.1084 65.7823 39.2868 67.7932C40.4651 69.8041 41.6686 71.7647 42.8971 73.6751ZM61.4248 21.366C63.7564 23.7791 66.0881 26.4687 68.3946 29.4097C66.1382 29.3092 63.8316 29.2338 61.5 29.2338C59.1433 29.2338 56.8117 29.284 54.5302 29.4097C56.7866 26.4687 59.1182 23.7791 61.4248 21.366ZM42.872 36.1714C41.6435 38.107 40.415 40.0927 39.2617 42.1288C38.1084 44.1397 37.0304 46.1506 36.0024 48.1616C34.6486 44.7933 33.4953 41.425 32.5426 38.1572C35.827 37.378 39.2868 36.6993 42.872 36.1714ZM20.1824 67.6424C11.3072 63.8467 5.56584 58.8697 5.56584 54.9233C5.56584 50.9768 11.3072 45.9747 20.1824 42.2042C22.3386 41.2742 24.6953 40.4446 27.1272 39.6654C28.5563 44.5922 30.4366 49.72 32.7682 54.9736C30.4617 60.202 28.6064 65.3047 27.2024 70.2063C24.7203 69.427 22.3636 68.5724 20.1824 67.6424ZM33.6708 103.562C30.2611 101.602 28.7819 94.1362 29.9352 84.5341C30.211 82.1713 30.6623 79.6827 31.2138 77.144C36.1278 78.3505 41.4931 79.2806 47.1341 79.8838C50.5188 84.5341 54.0287 88.757 57.5638 92.4521C49.3905 100.068 41.7187 104.241 36.5039 104.241C35.3757 104.216 34.423 103.99 33.6708 103.562ZM93.14 84.4084C94.3184 94.0106 92.8643 101.476 89.4796 103.462C88.7275 103.914 87.7497 104.115 86.5964 104.115C81.4066 104.115 73.7098 99.9679 65.5365 92.4018C69.0465 88.7068 72.5565 84.509 75.891 79.8587C81.5571 79.2554 86.9223 78.3254 91.8363 77.0937C92.413 79.6325 92.8643 82.0707 93.14 84.4084ZM102.793 67.6424C100.636 68.5724 98.2797 69.4019 95.8477 70.1811C94.4187 65.2544 92.5383 60.1265 90.2067 54.873C92.5133 49.6446 94.3685 44.5419 95.7725 39.6403C98.2546 40.4195 100.611 41.2742 102.818 42.2042C111.693 45.9998 117.434 50.9768 117.434 54.9233C117.409 58.8697 111.668 63.8719 102.793 67.6424Z" fill="black"/>
<path d="M61.4747 66.4108C67.8025 66.4108 72.9323 61.2677 72.9323 54.9234C72.9323 48.5791 67.8025 43.436 61.4747 43.436C55.1468 43.436 50.0171 48.5791 50.0171 54.9234C50.0171 61.2677 55.1468 66.4108 61.4747 66.4108Z" fill="black"/>
</svg>
