<svg width="148" height="56" viewBox="0 0 148 56" fill="none" xmlns="http://www.w3.org/2000/svg">
<path d="M11.1691 16.7212C10.8809 16.7212 10.8088 16.5773 10.9529 16.3614L12.4662 14.4182C12.6103 14.2023 12.9706 14.0584 13.2588 14.0584H38.9838C39.2721 14.0584 39.3441 14.2743 39.2 14.4902L37.975 16.3614C37.8309 16.5773 37.4706 16.7932 37.2544 16.7932L11.1691 16.7212ZM0.288235 23.3422C0 23.3422 -0.0720588 23.1983 0.0720588 22.9824L1.58529 21.0392C1.72941 20.8233 2.08971 20.6794 2.37794 20.6794H35.2368C35.525 20.6794 35.6691 20.8953 35.5971 21.1112L35.0206 22.8384C34.9485 23.1263 34.6603 23.2702 34.3721 23.2702L0.288235 23.3422ZM17.7265 29.9632C17.4382 29.9632 17.3662 29.7473 17.5103 29.5314L18.5191 27.7322C18.6632 27.5163 18.9515 27.3004 19.2397 27.3004H33.6515C33.9397 27.3004 34.0838 27.5163 34.0838 27.8042L33.9397 29.5314C33.9397 29.8193 33.6515 30.0352 33.4353 30.0352L17.7265 29.9632ZM92.5235 15.4258C87.9838 16.5773 84.8853 17.4409 80.4176 18.5924C79.3368 18.8802 79.2647 18.9522 78.3279 17.8727C77.2471 16.6492 76.4544 15.8576 74.9412 15.1379C70.4015 12.9069 66.0059 13.5546 61.8985 16.2174C56.9985 19.384 54.4765 24.0619 54.5485 29.8913C54.6206 35.6487 58.5838 40.3985 64.2765 41.1902C69.1765 41.8379 73.2838 40.1107 76.5265 36.4403C77.175 35.6487 77.7515 34.7851 78.4721 33.7775H64.5647C63.0515 33.7775 62.6912 32.8419 63.1956 31.6185C64.1323 29.3875 65.8618 25.6452 66.8706 23.774C67.0868 23.3422 67.5912 22.6225 68.6721 22.6225H94.9015C94.7573 24.5657 94.7574 26.5088 94.4691 28.4519C93.6765 33.6336 91.7309 38.3834 88.5603 42.5576C83.3721 49.3945 76.5985 53.6406 68.0235 54.7921C60.9618 55.7276 54.4044 54.3603 48.6397 50.0422C43.3074 46.012 40.2809 40.6864 39.4882 34.0654C38.5515 26.2209 40.8573 19.1681 45.6132 12.9789C50.7294 6.28589 57.5029 2.0398 65.7897 0.528477C72.5632 -0.694972 79.0485 0.0966716 84.8853 4.05489C88.7044 6.57376 91.4426 10.0282 93.2441 14.2023C93.6765 14.85 93.3882 15.2099 92.5235 15.4258Z" fill="black"/>
<path d="M116.375 55.2237C109.818 55.0798 103.837 53.2086 98.7927 48.8906C94.5412 45.2202 91.8751 40.5423 91.0104 35.0008C89.7133 26.8685 91.9471 19.6717 96.8471 13.2666C102.107 6.35771 108.449 2.75933 117.024 1.24801C124.374 -0.047412 131.291 0.672264 137.56 4.91835C143.253 8.80461 146.784 14.0582 147.721 20.9671C148.946 30.6828 146.135 38.5992 139.434 45.3642C134.678 50.186 128.841 53.2086 122.14 54.576C120.194 54.9359 118.249 55.0078 116.375 55.2237ZM133.525 26.1488C133.453 25.2132 133.453 24.4935 133.309 23.7739C132.012 16.6491 125.454 12.6189 118.609 14.2022C111.907 15.7135 107.584 19.9596 105.999 26.7245C104.702 32.338 107.44 38.0235 112.628 40.3264C116.591 42.0536 120.554 41.8377 124.374 39.8946C130.066 36.9439 133.165 32.338 133.525 26.1488Z" fill="black"/>
</svg>
