<svg width="555" height="544" viewBox="0 0 555 544" fill="none" xmlns="http://www.w3.org/2000/svg">
<path fill-rule="evenodd" clip-rule="evenodd" d="M540.783 35.8724C540.753 35.2468 540.759 34.6378 540.789 34.0661C540.889 32.3469 542.487 32.3528 542.612 32.3552C542.872 32.3611 544.032 32.4345 544.31 33.7749C544.328 33.8548 544.369 34.4336 544.381 34.6568C544.405 35.1326 544.417 35.6001 544.352 36.0695C544.411 36.8655 544.541 37.6846 544.79 38.4551C545.151 39.5926 545.737 40.6425 546.796 41.2018C548.69 42.2079 551.181 42.167 553.265 42.4227C554.135 42.5292 554.797 43.2548 554.827 44.1307C554.851 45.0072 554.235 45.7718 553.371 45.931C550.767 46.4128 547.772 48.7807 545.867 50.6875C545.281 51.2734 544.624 52.6689 543.89 53.5626C543.298 54.2787 542.641 54.7587 542.02 54.9492C541.777 55.0232 540.434 55.2931 539.83 53.9023C539.664 53.5117 539.078 51.4664 539.025 51.2332C538.706 49.8968 538.25 48.7031 537.356 47.6402C536.581 46.7187 535.64 45.9139 534.51 45.4676C534.054 45.2877 533.58 45.151 533.107 45.0101C532.941 44.99 532.474 44.9308 532.308 44.8746C531.971 44.7622 531.722 44.5858 531.545 44.4101C531.207 44.0774 531.036 43.6803 531.006 43.2282C530.982 42.9299 531.024 42.576 531.237 42.1836C531.397 41.9048 531.758 41.4852 532.409 41.213C533.089 40.9283 534.551 40.6579 534.811 40.5874C536.622 40.0998 538.398 39.3582 539.789 38.0728C540.481 37.4301 540.641 36.737 540.783 35.8724ZM541.943 40.9053C542.641 42.3529 543.683 43.5714 545.133 44.339C545.731 44.658 546.382 44.9001 547.056 45.0883C545.665 46.0565 544.375 47.1573 543.351 48.1776C543.02 48.5096 542.659 49.047 542.274 49.637C541.825 48.0616 541.162 46.6466 540.073 45.3516C539.428 44.5882 538.7 43.8904 537.889 43.3087C539.357 42.7275 540.747 41.9498 541.943 40.9053Z" fill="#35312B"/>
<path fill-rule="evenodd" clip-rule="evenodd" d="M503.788 86.1604C517.258 86.4859 531.024 85.829 543.902 90.4334C544.825 90.7648 545.843 90.2795 546.175 89.3622C546.506 88.4389 546.021 87.421 545.098 87.0895C531.859 82.3549 517.72 82.9408 503.877 82.6094C502.895 82.5857 502.084 83.3611 502.06 84.3376C502.036 85.32 502.812 86.1308 503.788 86.1604Z" fill="#35312B"/>
<path fill-rule="evenodd" clip-rule="evenodd" d="M502.788 66.4827C506.96 62.6447 511.511 59.7666 517.015 58.3415C517.962 58.0959 518.53 57.1265 518.287 56.1778C518.039 55.2291 517.074 54.6586 516.121 54.9042C510.037 56.479 504.995 59.6276 500.385 63.8686C499.663 64.532 499.615 65.6559 500.278 66.3773C500.941 67.0987 502.066 67.1461 502.788 66.4827Z" fill="#35312B"/>
<path fill-rule="evenodd" clip-rule="evenodd" d="M491.164 24.0778C493.076 17.5352 496.834 12.4165 502.592 8.72057C503.415 8.19148 503.658 7.09186 503.125 6.26745C502.598 5.44244 501.497 5.20276 500.675 5.73244C494.165 9.90895 489.915 15.6893 487.755 23.083C487.483 24.0234 488.022 25.0099 488.963 25.2845C489.904 25.5591 490.892 25.0182 491.164 24.0778Z" fill="#35312B"/>
<path fill-rule="evenodd" clip-rule="evenodd" d="M424.039 14.9793C422.927 16.3014 421.932 17.7218 421.08 19.231C420.583 20.1015 419.707 22.1291 419.855 23.5975C419.968 24.6977 420.488 25.5925 421.53 26.1204C423.193 26.9655 424.525 26.862 425.548 26.3512C426.531 25.8624 427.312 24.9095 427.797 23.6223C428.661 21.3242 428.561 17.8502 428.123 15.7575C429.307 14.5508 430.603 13.4536 431.982 12.4747C442.587 4.95676 458.146 7.76555 470.119 19.0067C474.315 22.9447 476.31 31.2237 477.357 40.1466C479.008 54.148 478.067 69.7858 477.937 74.3671C477.907 75.5726 478.038 76.2876 478.097 76.4302C478.428 77.2179 479.02 77.425 479.428 77.502C480.003 77.6085 480.458 77.4961 480.831 77.3008C481.328 77.0404 481.742 76.5835 481.932 75.8721C482.027 75.5087 482.056 75.0039 482.044 74.4648C482.032 74.1458 481.956 73.7978 482.021 73.5693C482.482 71.9637 483.039 70.3948 483.577 68.8158C485.388 63.5041 487.738 58.5269 490.336 53.555C498.615 37.7474 506.605 21.0396 520.176 8.99596C520.91 8.34555 520.981 7.22287 520.33 6.4896C519.679 5.75692 518.554 5.69003 517.82 6.34045C503.924 18.6705 495.662 35.7239 487.193 51.9085C485.222 55.669 483.4 59.4348 481.831 63.3367C481.973 54.5274 481.76 42.5897 479.801 32.737C478.41 25.7108 476.085 19.7311 472.551 16.418C459.194 3.87728 441.759 1.19038 429.928 9.57771C428.762 10.4027 427.655 11.3035 426.608 12.2753C420.323 1.2993 407.166 -3.05535 395.525 2.25746C394.637 2.66463 394.241 3.71866 394.649 4.60995C395.058 5.50123 396.111 5.89478 396.999 5.48761C407.261 0.805092 418.884 4.93545 424.039 14.9793ZM424.951 19.695C424.678 20.1146 424.418 20.543 424.17 20.9804C423.992 21.287 423.726 21.8208 423.542 22.3913C423.483 22.5896 423.436 22.9015 423.412 23.092C423.631 23.1962 423.808 23.2506 423.968 23.1719C424.229 23.0411 424.341 22.715 424.471 22.37C424.761 21.6012 424.909 20.6442 424.951 19.695Z" fill="#35312B"/>
<path d="M302.625 318.34C302.625 318.34 299.205 290.244 309.873 280.285C317.746 272.935 322.802 272.655 333.431 274.396C342.418 275.867 356.082 282.55 356.082 282.55L359.706 290.252L349.287 329.212C349.287 329.212 354.127 330.844 353.364 334.649C352.601 338.453 337.961 337.82 337.961 337.82C337.961 337.82 351.266 344.719 349.287 351.411C347.065 358.922 330.259 356.394 330.259 356.394C330.259 356.394 330.259 365.002 332.525 406.681C332.525 425.255 330.259 441.111 330.259 441.111C330.259 441.111 336.486 451.987 335.696 460.591C332.525 472.823 251.839 455.608 252.792 446.547C253.429 440.48 254.916 436.122 259.134 431.144C263.023 426.553 272.271 427.52 272.271 427.52C272.271 427.52 271.111 420.788 273.631 418.006C275.771 415.642 281.332 415.288 281.332 415.288C281.332 415.288 272.271 398.526 289.487 381.311C310.779 360.018 307.155 350.958 307.155 350.958C307.155 350.958 287.873 342.741 292.658 336.008C295.741 331.669 302.325 335.724 304.437 331.024C306.953 325.422 291.767 323.762 296.282 320.605C298.892 318.78 302.625 318.34 302.625 318.34Z" fill="#FDCD00"/>
<path d="M352.12 313.695C354.157 306.517 357.665 297.686 356.351 290.137C355.904 287.566 351.417 281.618 353.566 279.516C363.171 270.12 369.658 283.174 377.49 287.171C379.316 288.103 388.692 292.562 388.692 287.537C388.692 284.781 377.882 281.044 375.681 279.097C372.795 276.544 369.66 270.321 365.627 269.753C361.475 269.169 355.996 272.397 352.12 273.677C338.749 278.087 309.252 274.287 322.99 253.895C325.019 250.885 327.732 248.286 330.375 245.822C336.86 239.773 344.395 234.748 349.826 227.619C353.471 222.834 355.554 216.417 354.543 210.405C354.354 209.28 353.477 204.35 351.509 204.896C349.541 205.443 350.819 210.021 350.873 211.31C351.097 216.59 348.392 221.76 345.161 225.772C335.492 237.771 299.264 257.682 320.447 276.342C329.313 284.153 349.299 276.943 350.985 291.949C351.875 299.881 347.525 310.863 344.823 318.225C343.868 320.829 342.921 324.736 340.137 325.97C329.663 330.615 312.911 321.908 303.197 318.664C300.925 317.904 296.95 318.305 299.91 321.29C308.881 330.34 327.648 331.099 339.435 331.856C341.904 332.014 348.045 336.389 349.743 334.76C352.368 332.244 347.051 328.496 348.638 325.333C352.513 317.613 365.73 312.008 373.865 311.134C385.232 309.913 395.379 314.278 406.484 315.353C410.924 315.783 417.336 313.66 421.365 315.17C434.936 320.253 444.111 329.378 459.941 324.626C473.774 320.474 480.689 304.407 484.999 291.949C495.379 261.949 500.899 212.439 476.99 186.886C473.547 183.207 469.492 181.445 464.472 181.436C461.204 181.431 456.833 183.181 454.047 180.86C451.669 178.878 450.76 175.763 448.123 173.891C439.067 167.466 424.168 165.029 413.732 161.092C384.553 150.086 354.041 143.65 323.126 151.415C281.284 161.924 254.657 196.302 237.679 233.961C231.686 247.255 224.71 261.964 222.815 276.546C221.773 284.571 223.699 294.93 232.52 297.7C235.814 298.735 240.652 296.615 243.449 297.949C246.795 299.546 247.719 309.086 251.631 312.064C257.868 316.81 263.966 311.944 269.315 314.72C272.809 316.534 274.163 322.438 277.085 325.175C280.083 327.984 295.497 334.184 297.185 326.535C297.508 325.068 282.944 323.096 280.626 320.845C277.268 317.583 275.827 311.401 271.441 309.408C265.474 306.698 260.259 312.594 254.363 307.148C250.452 303.536 250.975 293.306 247.377 291.188C245.138 289.872 241.892 292.584 239.768 293.17C235.42 294.368 231.907 291.841 229.533 288.321C224.801 281.306 228.319 272.842 230.708 265.674C236.788 247.428 244.071 229.779 253.743 213.122C259.687 202.888 266.743 193.409 275.105 185.034C313.679 146.4 363.634 147.054 411.92 165.055C421.87 168.765 436.895 171.173 445.346 177.516C452.593 182.955 450.894 201.312 450.881 209.498C450.839 235.17 444.003 260.129 434.585 283.795C430.821 293.251 429.49 303.281 419.165 308.764C408.007 314.69 392.777 306.753 381.114 305.695C370.529 304.735 361.345 309.388 352.12 313.695ZM437.29 181.41L435.478 207.686H437.29L439.102 181.41H437.29ZM311.209 214.739C306.3 215.533 300.96 219.615 296.85 222.232C283.486 230.739 271.34 242.317 262.815 255.707C259.192 261.398 256.158 267.429 253.991 273.827C253.57 275.069 251.707 280.662 254.93 280.137C256.976 279.804 257.67 276.3 258.274 274.733C260.607 268.683 263.372 262.935 266.954 257.519C274.875 245.541 285.2 235.228 296.85 226.853C301.526 223.492 307.637 221.412 311.948 217.7C313.438 216.417 313.804 214.32 311.209 214.739ZM344.07 241.782C342.443 242.15 329.285 256.372 335.864 255.297C339.908 254.637 343.322 251.182 344.894 247.551C345.339 246.527 346.926 241.135 344.07 241.782ZM183.671 244.242C182.167 245.583 189.141 254.896 191.076 254.229C192.984 253.57 185.465 242.638 183.671 244.242ZM285.441 269.376C281.039 271.905 278.391 280.08 277.18 284.701C276.873 285.871 275.446 291.764 278.402 291.115C280.587 290.635 287.394 273.82 287.929 271.245C288.304 269.438 287.116 268.414 285.441 269.376ZM182.687 275.64V273.828L168.521 276.19L182.687 275.64ZM179.968 315.507L190.841 305.54C185.898 307.221 182.166 310.795 179.968 315.507ZM289.296 337.327C284.875 340.741 298.516 346.945 300.474 347.891C309.651 352.319 335.581 361.18 344.583 353.05C351.533 346.775 339.052 336.763 332.492 338.478C328.051 339.64 340.29 345.624 340.29 347.957C340.29 352.036 330.037 350.351 327.656 350.031C318.226 348.76 307.84 345.998 299.568 341.225C297.358 339.949 291.994 335.243 289.296 337.327ZM506.15 484.94C517.054 483.555 527.925 481.535 538.769 479.728C540.913 479.37 548.312 479.316 549.224 476.914C550.135 474.511 545.69 471.036 544.355 469.537C538.675 463.16 534.27 456.115 528.903 449.604C506.294 422.175 482.346 389.789 452.693 369.64C430.422 354.508 396.096 362.472 370.59 361.875C357.132 361.561 340.176 359.001 327.038 361.094C322.722 361.781 325.567 373.46 326.081 376.213C328.399 388.637 337.852 409.771 325.546 420.018C319.32 425.204 307.436 419.949 300.474 418.414C298.156 417.902 292.351 415.642 290.667 418.399C288.633 421.732 296.013 422.951 297.756 423.328C305.069 424.91 318.267 425.052 324.545 428.268C327.061 429.557 326.512 432.961 324.646 434.561C322.078 436.763 317.184 436.161 314.065 435.859C304.742 434.957 294.938 432.889 285.978 430.179C283.665 429.479 275.096 424.394 273.606 428.133C272.088 431.943 282.834 433.949 285.071 434.723C295.586 438.36 306.705 439.736 317.69 441.062C320.591 441.411 326.322 439.02 328.593 440.527C332.718 443.263 338.877 459.583 333.711 463.033C330.072 465.462 322.782 464.107 318.596 464.101C302.088 464.075 284.362 458.612 268.762 453.527C264.831 452.246 253.283 450.656 250.965 447.353C243.789 437.133 263.649 429.376 267.87 425.154C272.146 420.879 270.813 414.132 278.729 414.268C277.781 411.462 276.816 401.636 274.558 400.317C267.638 396.276 249.521 404.88 244.324 398.318C241.523 394.781 243.279 384.346 242.745 379.837C242.428 377.153 240.033 366.31 242.855 365.062C245.606 363.846 251.207 365.339 254.265 365.34H284.165C289.572 365.34 296.388 366.901 299.568 361.716C242.153 362.034 184.776 361.297 127.417 359.89C113.376 359.547 98.8614 359.878 84.8319 358.916C71.1386 357.979 54.9267 355.905 41.341 358.516C28.0043 361.08 24.3812 376.221 19.9549 387.086C18.4344 390.818 15.2795 395.545 15.1589 399.636C15.0573 403.081 19.1045 401.768 21.2538 402.23C28.4822 403.778 34.6692 404.297 42.2471 404.301C44.5539 404.302 50.5768 403.379 50.1443 407.153C49.3172 414.372 42.8278 422.991 39.9134 429.671C30.8891 450.352 21.2828 471.087 11.2173 491.283C7.96551 497.807 4.83661 504.501 1.99937 511.216C1.47386 512.46 -1.09882 516.967 0.537441 518.151C2.44117 519.529 5.04455 512.22 5.48309 511.216C7.94549 505.58 12.559 489.887 18.6174 487.693C24.99 485.384 35.5325 487.659 42.2471 487.659H97.5168C102.505 487.659 118.545 485.033 122.173 488.59C124.44 490.813 120.725 497.089 119.889 499.437C116.343 509.403 110.394 520.578 109.471 531.149C109.267 533.496 105.727 541.721 108.714 542.605C116.182 544.811 129.34 542.022 137.383 542.022H208.056C216.354 542.022 234.726 545.503 241.826 541.172C245.594 538.873 245.203 534.033 245.205 530.243V501.249C245.205 496.029 243.616 488.335 250.646 487.712C280.626 485.052 312.04 487.659 342.153 487.659C351.31 487.659 369.326 484.19 377.405 488.59C381.445 490.79 383.821 496.62 386.24 500.343C392.704 510.296 398.971 520.382 405.579 530.243C407.69 533.396 412.291 543.073 416.536 543.275C422.792 543.572 434.355 537.658 440.914 536.018C462.678 530.577 484.384 524.927 506.15 519.486C512.981 517.778 520.011 515.333 526.99 514.39C528.543 514.18 533.007 515.179 533.788 513.353C534.991 510.538 529.548 507.097 527.896 505.639C520.366 498.994 513.251 492.041 506.15 484.94Z" fill="black"/>
<path d="M171.412 358.145C149.621 358.145 127.908 356.333 106.176 356.333C100.05 356.333 87.32 353.913 82.0658 357.264C77.8544 359.951 75.5032 368.304 73.3341 372.642C71.1248 377.061 63.1384 387.909 64.4812 392.935C64.9973 394.867 68.4811 394.377 69.9344 394.387C74.1468 394.416 86.7266 396.5 89.8452 393.456C92.23 391.129 92.2807 384.819 94.1834 381.716C95.1874 380.079 98.9774 374.245 101.536 375.38C103.297 376.162 97.4706 383.957 96.9478 385.327C93.9497 393.183 95.0107 402.686 101.73 408.265C107.366 412.944 116.86 415.621 123.225 410.829C125.055 409.45 131.815 397.694 134.307 400.505C138.84 405.616 118.978 417.791 126.272 423.453C127.938 424.746 130.246 421.67 131.128 420.642C132.955 418.516 140.461 403.859 143.659 406.095C147.521 408.796 139.583 415.035 140.884 418.299C142.224 421.665 148.862 425.252 151.466 427.913C158.947 435.557 162.583 448.571 172.319 453.668C181.588 458.523 188.061 450.731 192.053 443.315C192.911 441.72 196.164 434.863 198.872 436.901C201.03 438.525 198.028 442.691 197.164 444.221C194.734 448.519 182.408 459.978 188.986 464.125C196.858 469.088 204.134 450.843 206.524 446.033C207.061 444.952 209.715 437.724 211.602 438.972C213.992 440.554 209.991 447.902 209.187 449.657C206.77 454.942 204.236 460.727 200.239 465.02C198.46 466.931 193.737 468.95 193.278 471.651C192.548 475.947 198.692 484.206 203.089 484.312C207.347 484.416 210.481 477.145 212.359 474.121C219.438 462.721 226.234 450.993 231.839 438.785C233.224 435.769 236.019 425.381 240.195 425.381C244.579 425.381 238.793 436.233 238.077 437.878C233.84 447.615 228.521 456.879 223.058 465.966C221.621 468.357 217.077 473.353 217.642 476.293C218.046 478.392 222.506 477.742 223.964 477.745C227.843 477.753 243.047 479.916 245.163 476.293C248.863 469.956 245.709 453.388 245.709 446.033C245.709 434.233 246.002 422.446 244.955 410.693C244.71 407.95 245.973 401.95 243.872 399.849C240.81 396.787 228.144 398.918 223.964 398.918C204.939 398.918 185.908 398.786 166.883 398.919C160.216 398.965 154.134 411.283 147.664 401.283C146.2 399.021 147.546 395.969 149.871 394.934C152.345 393.831 155.77 395.254 157.954 393.456C160.435 391.414 161.068 385.558 162.05 382.609C164.887 374.09 167.371 366.127 171.412 358.145Z" fill="white"/>
<path fill-rule="evenodd" clip-rule="evenodd" d="M147.098 402.508C144.3 400.888 143.61 399.432 143.61 399.432C143.61 399.432 152.509 384.981 145.875 383.576C141.026 382.549 135.455 389.465 135.455 389.465C135.455 389.465 116.283 368.518 101.826 379.112C101.536 380.656 99.7039 383.544 98.3611 385.662C97.6614 386.766 97.0945 387.66 96.9474 388.045C95.9113 390.76 95.36 393.672 95.3594 396.55C98.1407 408.239 111.502 418.03 121.411 413.929C121.499 414.139 121.577 414.348 121.645 414.554C122.189 414.264 122.716 413.93 123.224 413.547C123.767 413.138 124.742 411.818 125.912 410.235C128.687 406.478 132.553 401.246 134.307 403.224C136.395 405.578 133.307 409.431 130.081 413.456C126.796 417.554 123.368 421.831 125.117 424.885C127.816 425.201 129.373 423.773 131.034 422.251C131.634 421.701 132.248 421.138 132.934 420.641C133.09 420.388 133.253 420.124 133.421 419.851C136.454 414.936 141.264 407.139 143.658 408.813C145.84 410.339 144.256 412.993 142.7 415.603C141.611 417.428 140.536 419.23 140.77 420.61C144.379 422.333 147.552 425.697 150.504 429.748C150.863 430.052 151.187 430.347 151.465 430.631C154.417 433.647 156.77 437.498 159.135 441.37C162.765 447.312 166.423 453.3 172.318 456.387C181.588 461.241 188.061 453.449 192.053 446.033C192.12 445.908 192.202 445.751 192.297 445.569C193.417 443.42 196.376 437.741 198.871 439.619C200.752 441.035 198.713 444.382 197.586 446.231C197.42 446.503 197.274 446.743 197.163 446.939C196.575 447.979 195.408 449.439 194.069 451.113C189.875 456.355 183.999 463.7 188.985 466.844C196.011 471.272 202.561 457.219 205.588 450.725C205.953 449.942 206.266 449.269 206.524 448.751C206.605 448.588 206.734 448.286 206.901 447.893C207.844 445.684 209.999 440.63 211.601 441.69C213.716 443.09 210.827 449.004 209.577 451.564C209.414 451.897 209.279 452.173 209.187 452.376C209.067 452.638 208.947 452.901 208.826 453.165C206.514 458.23 204.038 463.658 200.238 467.739C199.621 468.402 198.648 469.079 197.623 469.792C195.694 471.134 193.577 472.606 193.278 474.369C192.844 476.925 194.842 480.883 197.458 483.693C199.222 484.559 201.454 485.325 204.316 485.961C206.931 483.433 209.357 480.809 211.606 478.131C211.876 477.65 212.127 477.212 212.359 476.839C219.438 465.439 226.233 453.711 231.838 441.503C232.118 440.894 232.455 439.985 232.85 438.921C233.69 436.653 234.791 433.685 236.149 431.431C237.696 426.212 238.293 422.99 238.293 422.99C238.293 422.99 227.874 412.117 213.829 422.99C205.675 413.929 200.692 422.99 200.692 422.99C200.692 422.99 198.427 406.681 176.228 406.681C168.588 407.044 162.7 406.694 158.175 405.986C154.68 408.244 151.231 409.515 147.663 404.001C147.358 403.529 147.175 403.023 147.098 402.508Z" fill="#FDCD00"/>
<path d="M371.147 365.34V366.246C383.798 375.624 397.206 393.549 411.92 399.098C418.043 401.408 427.18 399.771 433.665 399.771H479.874C470.583 386.58 453.33 370.216 437.289 366.029C417.149 360.772 391.949 365.34 371.147 365.34Z" fill="white"/>
<path d="M281.551 393.742C276.842 395.643 276.528 412.739 282.128 411.621C283.872 411.272 283.399 392.996 281.551 393.742Z" fill="black"/>
<path d="M496.184 483.128C480.59 460.991 455.817 442.55 435.478 424.885C428.506 418.831 419.828 407.868 411.014 404.835C401.468 401.548 386.672 404.301 376.584 404.301H347.59C344.916 404.301 338.941 403.178 337.184 405.753C334.484 409.711 338.02 414.544 339.957 417.892C345.751 427.905 351.463 437.985 357.602 447.792C362.709 455.95 367.755 464.13 372.912 472.256C374.964 475.489 376.916 480.228 380.375 482.197C387.676 486.351 404.483 483.128 412.826 483.128H496.184ZM69.0243 416.393C67.2503 417.29 68.7915 420.385 69.3578 421.517C70.7993 424.402 78.113 436.484 82.4204 433.969C85.0825 432.414 71.3121 415.236 69.0243 416.393ZM145.184 439.951C143.021 440.872 142.269 445.82 141.613 447.792C138.885 455.97 136.257 464.181 133.238 472.256C132.445 474.376 129.397 480.105 131.151 482.197C132.982 484.381 140.245 483.128 142.82 483.128H172.72C175.599 483.128 181.379 484.228 183.87 482.582C187.63 480.098 180.836 473.112 179.399 471.318C172.045 462.133 160.468 462.239 153.567 450.51C152.416 448.555 148.237 438.649 145.184 439.951ZM461.754 442.356C470.961 453.776 484.188 467.43 496.184 475.88C489.949 463.862 473.456 449.12 461.754 442.356Z" fill="white"/>
</svg>
